<?xml version="1.0" encoding="UTF-8"?>
<svg width="400px" height="400px" viewBox="0 0 400 400" version="1.1" xmlns="http://www.w3.org/2000/svg" xmlns:xlink="http://www.w3.org/1999/xlink">
    <title>icon1</title>
    <defs>
        <polygon id="path-1" points="0.3912 0.252 15.3288 0.252 15.3288 15.152 0.3912 15.152"></polygon>
    </defs>
    <g id="icon1" stroke="none" stroke-width="1" fill="none" fill-rule="evenodd">
        <g id="Group" transform="translate(9.000000, 81.000000)">
            <path d="M354.764412,233.902251 L27.5356806,233.902251 C20.4760372,233.902251 14.7528558,228.17907 14.7528558,221.119426 L14.7528558,13.3860186 C14.7528558,6.32637519 20.4760372,0.603193798 27.5356806,0.603193798 L354.764412,0.603193798 C361.823178,0.603193798 367.547237,6.32637519 367.547237,13.3860186 L367.547237,221.119426 C367.547237,228.17907 361.823178,233.902251 354.764412,233.902251" id="Fill-34" fill="#132529"></path>
            <path d="M366.607414,237.060443 L15.6172124,237.060443 C6.99207442,237.060443 0,230.068369 0,221.443231 L0,216.647588 L382.225504,216.647588 L382.225504,221.443231 C382.225504,230.068369 375.232552,237.060443 366.607414,237.060443" id="Fill-35" fill="#132529"></path>
            <polygon id="Fill-36" fill="#334F55" points="24.223045 206.889572 357.090716 206.889572 357.090716 9.87155349 24.223045 9.87155349"></polygon>
            <polyline id="Fill-37" fill="#334F55" points="156.372198 216.647588 161.115191 224.191622 227.855805 224.191622 232.260074 216.647588 156.372198 216.647588"></polyline>
            <path d="M348.047002,206.259513 L33.9512248,206.259513 C32.3646698,206.259513 31.0791039,204.97307 31.0791039,203.387392 L31.0791039,19.4136992 C31.0791039,17.8280217 32.3646698,16.5415783 33.9512248,16.5415783 L348.047002,16.5415783 C349.633557,16.5415783 350.919122,17.8280217 350.919122,19.4136992 L350.919122,203.38827 C350.919122,204.97307 349.633557,206.259513 348.047002,206.259513" id="Fill-38" fill="#E4E4DE"></path>
            <polygon id="Fill-39" fill="#FAF9F6" points="31.0791039 206.259513 350.919122 206.259513 350.919122 30.4423628 31.0791039 30.4423628"></polygon>
            <path d="M57.3107907,23.8679876 C57.3107907,25.2790388 56.1673829,26.423324 54.7563318,26.423324 C53.3452806,26.423324 52.2027504,25.2790388 52.2027504,23.8679876 C52.2027504,22.457814 53.3452806,21.3144062 54.7563318,21.3144062 C56.1673829,21.3144062 57.3107907,22.457814 57.3107907,23.8679876" id="Fill-40" fill="#132529"></path>
            <path d="M49.2604279,23.8679876 C49.2604279,25.2790388 48.1170202,26.423324 46.705969,26.423324 C45.2949178,26.423324 44.1515101,25.2790388 44.1515101,23.8679876 C44.1515101,22.457814 45.2949178,21.3144062 46.705969,21.3144062 C48.1170202,21.3144062 49.2604279,22.457814 49.2604279,23.8679876" id="Fill-42" fill="#132529"></path>
            <path d="M364.515408,216.64671 C364.515408,216.77395 286.211721,216.875743 189.642468,216.875743 C93.0389922,216.875743 14.7528558,216.77395 14.7528558,216.64671 C14.7528558,216.520347 93.0389922,216.418555 189.642468,216.418555 C286.211721,216.418555 364.515408,216.520347 364.515408,216.64671" id="Fill-43" fill="#334F55"></path>
        </g>
        <path d="M342.2642,262.86917 C342.26288,262.84874 342.54668,262.872575 343.0562,262.732973 C343.54328,262.593371 344.3102,262.210884 344.67188,261.367598 C344.87516,260.955602 344.81708,260.449403 344.8184,259.88986 C344.81312,259.330318 344.80784,258.719701 344.80256,258.060281 C344.79332,256.73463 344.78276,255.210359 344.77088,253.495411 C344.74448,246.604978 344.70752,236.670543 344.66132,224.402598 C344.64812,218.258979 344.63492,211.533117 344.61908,204.312407 C344.6138,200.702051 344.60852,196.967984 344.60324,193.120419 C344.6006,191.197771 344.59796,189.245614 344.59532,187.268488 C344.57684,186.300354 344.62964,185.235748 344.5544,184.328903 C344.39864,183.450432 343.4654,182.717238 342.41732,182.679784 C323.53472,182.685459 302.77772,182.689999 280.99112,182.696809 C279.782,182.668434 278.69168,183.580954 278.69036,184.612646 C278.68904,185.774861 278.68772,186.932535 278.6864,188.086805 C278.6864,190.399884 278.68508,192.699343 278.68508,194.981778 C278.68376,199.545512 278.68244,204.042283 278.68112,208.46301 C278.6732,217.299925 278.6666,225.824722 278.66,233.946603 C278.64944,242.066214 278.63888,249.782908 278.62964,257.007024 C278.627,257.909329 278.62568,258.804824 278.62436,259.69124 C278.63492,260.12707 278.59136,260.602625 278.66264,260.970356 C278.74448,261.357383 278.96096,261.71944 279.27512,262.002049 C279.58796,262.284657 279.99452,262.487818 280.43144,262.576346 C280.8512,262.671684 281.36072,262.62288 281.861,262.6365 C282.85496,262.637635 283.83968,262.639905 284.81384,262.64104 C288.7118,262.647849 292.454,262.654659 296.02592,262.660334 C310.29248,262.700058 321.84644,262.731838 329.85884,262.754537 C333.83336,262.777237 336.93008,262.796531 339.05792,262.809016 C340.09148,262.822636 340.88612,262.831715 341.44976,262.838525 C341.98832,262.84874 342.2642,262.86917 342.2642,262.86917 C342.2642,262.86917 341.98832,262.889599 341.44976,262.898679 C340.88612,262.906624 340.09148,262.915704 339.05792,262.928188 C336.93008,262.941808 333.83336,262.959968 329.85884,262.983802 C321.84644,263.006502 310.29248,263.038281 296.02592,263.078005 C292.454,263.084815 288.7118,263.09049 284.81384,263.0973 C283.83968,263.098435 282.85496,263.09957 281.861,263.101839 C281.37128,263.08595 280.86704,263.148373 280.30472,263.032606 C279.76484,262.924783 279.26324,262.676224 278.87648,262.328922 C278.48972,261.982754 278.21912,261.535574 278.11616,261.056615 C278.0264,260.554956 278.08052,260.141825 278.06336,259.69124 C278.06204,258.804824 278.06072,257.909329 278.05808,257.007024 C278.04884,249.782908 278.03828,242.066214 278.0264,233.946603 C278.02112,225.824722 278.01452,217.299925 278.0066,208.46301 C278.00528,204.042283 278.00264,199.545512 278.00132,194.981778 C278.00132,192.699343 278,190.399884 278,188.086805 C278.00132,186.92686 278.00264,185.763511 278.00396,184.595622 C278.00528,183.254081 279.42296,182.070302 280.99112,182.104722 C302.79224,182.116836 323.56244,182.127051 342.45824,182.137266 C343.7954,182.189475 344.97416,183.119019 345.17216,184.23697 C345.26324,185.326546 345.1946,186.259495 345.2144,187.268488 C345.21176,189.245614 345.20912,191.197771 345.20648,193.120419 C345.2012,196.967984 345.1946,200.702051 345.18932,204.312407 C345.1748,211.533117 345.16028,218.258979 345.14708,224.402598 C345.10088,236.670543 345.06392,246.604978 345.03884,253.495411 C345.02696,255.210359 345.01508,256.73463 345.00716,258.060281 C345.00056,258.719701 344.99528,259.330318 344.99,259.88986 C344.97812,260.438053 345.02564,260.973761 344.80256,261.408457 C344.39732,262.291467 343.5842,262.664874 343.07732,262.790856 C342.548,262.913434 342.2642,262.86917 342.2642,262.86917" id="Fill-14" fill="#1A282B"></path>
        <path d="M342.2642,166.889494 C342.26288,166.87991 342.54668,166.891091 343.0562,166.825599 C343.54328,166.760107 344.3102,166.580669 344.67188,166.185053 C344.87516,165.991771 344.81708,165.754295 344.8184,165.491793 C344.81312,165.229292 344.80784,164.94283 344.80256,164.633472 C344.79332,164.011562 344.78276,163.296472 344.77088,162.491928 C344.74448,159.25938 344.70752,154.59878 344.66132,148.843448 C344.64812,145.961256 344.63492,142.805914 344.61908,139.41842 C344.6138,137.724673 344.60852,135.972888 344.60324,134.167858 C344.6006,133.265875 344.59796,132.350048 344.59532,131.422507 C344.57684,130.968321 344.62964,130.468876 344.5544,130.043443 C344.39864,129.631321 343.4654,129.287353 342.41732,129.269782 C323.53472,129.272445 302.77772,129.274574 280.99112,129.277769 C279.782,129.264458 278.69168,129.692553 278.69036,130.176557 C278.68904,130.721794 278.68772,131.2649 278.6864,131.806409 C278.6864,132.891557 278.68508,133.970316 278.68508,135.041088 C278.68376,137.182099 278.68244,139.291695 278.68112,141.365617 C278.6732,145.51133 278.6666,149.510617 278.66,153.320882 C278.64944,157.130083 278.63888,160.75026 278.62964,164.139352 C278.627,164.562655 278.62568,164.982764 278.62436,165.398613 C278.63492,165.603077 278.59136,165.826177 278.66264,165.998693 C278.74448,166.180261 278.96096,166.350115 279.27512,166.482697 C279.58796,166.615278 279.99452,166.710588 280.43144,166.75212 C280.8512,166.796846 281.36072,166.773951 281.861,166.78034 C282.85496,166.780873 283.83968,166.781938 284.81384,166.78247 C288.7118,166.785665 292.454,166.78886 296.02592,166.791522 C310.29248,166.810158 321.84644,166.825067 329.85884,166.835716 C333.83336,166.846365 336.93008,166.855417 339.05792,166.861274 C340.09148,166.867663 340.88612,166.871923 341.44976,166.875118 C341.98832,166.87991 342.2642,166.889494 342.2642,166.889494 C342.2642,166.889494 341.98832,166.899078 341.44976,166.903338 C340.88612,166.907065 340.09148,166.911325 339.05792,166.917182 C336.93008,166.923571 333.83336,166.932091 329.85884,166.943272 C321.84644,166.953921 310.29248,166.96883 296.02592,166.987466 C292.454,166.990661 288.7118,166.993323 284.81384,166.996518 C283.83968,166.99705 282.85496,166.997583 281.861,166.998648 C281.37128,166.991193 280.86704,167.020479 280.30472,166.966168 C279.76484,166.915584 279.26324,166.798976 278.87648,166.636044 C278.48972,166.473645 278.21912,166.263857 278.11616,166.03916 C278.0264,165.803813 278.08052,165.609999 278.06336,165.398613 C278.06204,164.982764 278.06072,164.562655 278.05808,164.139352 C278.04884,160.75026 278.03828,157.130083 278.0264,153.320882 C278.02112,149.510617 278.01452,145.51133 278.0066,141.365617 C278.00528,139.291695 278.00264,137.182099 278.00132,135.041088 C278.00132,133.970316 278,132.891557 278,131.806409 C278.00132,131.262238 278.00264,130.716469 278.00396,130.16857 C278.00528,129.539206 279.42296,128.983853 280.99112,129 C302.79224,129.005683 323.56244,129.010476 342.45824,129.015268 C343.7954,129.039761 344.97416,129.475843 345.17216,130.000314 C345.26324,130.511473 345.1946,130.949153 345.2144,131.422507 C345.21176,132.350048 345.20912,133.265875 345.20648,134.167858 C345.2012,135.972888 345.1946,137.724673 345.18932,139.41842 C345.1748,142.805914 345.16028,145.961256 345.14708,148.843448 C345.10088,154.59878 345.06392,159.25938 345.03884,162.491928 C345.02696,163.296472 345.01508,164.011562 345.00716,164.633472 C345.00056,164.94283 344.99528,165.229292 344.99,165.491793 C344.97812,165.74897 345.02564,166.00029 344.80256,166.204221 C344.39732,166.618473 343.5842,166.793652 343.07732,166.852754 C342.548,166.91026 342.2642,166.889494 342.2642,166.889494" id="Fill-14-Copy" fill="#1A282B"></path>
        <g id="Group-5" transform="translate(294.000000, 191.000000)">
            <path d="M21.9032638,1.40706479 C12.9246238,-0.584815209 3.07214381,4.29258479 0.549623813,13.5431448 C-1.87521619,22.4293848 3.98954381,32.7966648 12.9048238,35.2149048 C21.6339838,37.5816648 31.5841438,32.2119048 34.4670238,23.6649048 C37.6693438,14.1727848 31.5788638,3.94806479 22.4009038,0.921304791 C21.3356638,0.570184791 20.9119438,2.20830479 21.9415438,2.58582479 C29.7678238,5.45418479 35.3897038,13.9021848 33.0506638,22.3620648 C30.8264638,30.4087848 21.3963838,35.7970248 13.3351438,33.6559848 C5.58938381,31.5981048 0.589223813,23.2834248 1.57394381,15.5350248 C2.77910381,6.04818479 12.8243038,0.364264791 21.7633438,1.91658479 C22.0933438,1.97466479 22.2398638,1.48098479 21.9032638,1.40706479" id="Fill-15" fill="#1A282B"></path>
            <path d="M12.9787438,34.9456248 C22.1501038,37.7664648 32.7101038,32.4970248 35.4609838,23.0273448 C38.2620238,13.3807848 32.0223838,2.96202479 22.6305838,0.0897047913 C20.4631438,-0.572935209 19.6896238,2.62674479 21.7131838,3.41874479 C29.6688238,6.53130479 34.9395838,15.1522248 31.7953438,23.6147448 C28.9982638,31.1413848 20.7535438,34.7727048 13.1199838,33.9054648 C12.5075038,33.8368248 12.4322638,34.7766648 12.9787438,34.9456248" id="Fill-16" fill="#CF174D"></path>
        </g>
        <path d="M329.98292,237.03929 C329.98292,237.22937 321.81344,237.38381 311.7392,237.38381 C301.65968,237.38381 293.49152,237.22937 293.49152,237.03929 C293.49152,236.84921 301.65968,236.69609 311.7392,236.69609 C321.81344,236.69609 329.98292,236.84921 329.98292,237.03929" id="Fill-17" fill="#DE4D59"></path>
        <path d="M329.98292,242.57405 C329.98292,242.76413 321.81344,242.91857 311.7392,242.91857 C301.65968,242.91857 293.49152,242.76413 293.49152,242.57405 C293.49152,242.38529 301.65968,242.23085 311.7392,242.23085 C321.81344,242.23085 329.98292,242.38529 329.98292,242.57405" id="Fill-18" fill="#DE4D59"></path>
        <path d="M317.011523,220.1 L309.723457,211.331429 L310.83251,211.331429 C314.413169,211.331429 317.106584,209.005714 317.328395,205.894286 L319.8,205.894286 L319.8,203.568571 L317.106584,203.568571 C316.821399,202.625714 316.314403,201.84 315.648971,201.211429 L319.8,201.211429 L319.8,198.1 L304.4,198.1 L304.4,201.745714 L309.69177,201.745714 C311.561317,201.745714 312.638683,202.374286 313.01893,203.568571 L304.4,203.568571 L304.4,205.894286 L313.01893,205.894286 C312.638683,207.088571 311.561317,207.717143 309.69177,207.717143 L304.4,207.717143 L304.4,211.331429 L311.878189,220.1 L317.011523,220.1 Z" id="₹" fill="#0C172F" fill-rule="nonzero"></path>
        <g id="Group-4" transform="translate(130.000000, 210.000000)" fill="#1A282B">
            <path d="M125.3988,0.297862392 C125.3988,0.297862392 125.4816,0.287062392 125.646,0.297862392 C125.8104,0.311062392 126.0588,0.356662392 126.3552,0.504262392 C126.6444,0.653062392 126.984,0.920662392 127.2192,1.35506239 C127.488,1.78826239 127.4688,2.39066239 127.4676,3.00986239 C127.4808,5.55746239 127.5012,9.28106239 127.5264,14.0750624 C127.542,18.8870624 127.56,24.7670624 127.5804,31.5950624 C127.5888,35.0114624 127.596,38.6642624 127.6044,42.5390624 C127.6068,43.5074624 127.6092,44.4902624 127.6104,45.4862624 C127.6116,45.9842624 127.6128,46.4858624 127.614,46.9910624 C127.6284,47.4650624 127.6284,48.0890624 127.3236,48.5750624 C127.0452,49.0682624 126.5688,49.4498624 126.0144,49.6082624 C125.4324,49.7642624 124.9212,49.6718624 124.3968,49.6994624 C123.348,49.7006624 122.2848,49.7030624 121.2096,49.7042624 L121.4328,49.4810624 C121.4388,52.9418624 121.4436,56.6786624 121.4508,60.5498624 L121.4508,61.1870624 L121.0284,60.7094624 C117.942,57.2282624 114.6444,53.5094624 111.2256,49.6526624 L111.42,49.7414624 C82.5216,49.7558624 47.7504,49.7738624 10.3536,49.7942624 C8.778,49.7942624 7.206,49.7942624 5.64,49.7942624 L3.294,49.7930624 C2.8908,49.7882624 2.544,49.8038624 2.0952,49.7822624 C1.6464,49.7390624 1.212,49.5614624 0.8628,49.2794624 C0.5124,48.9962624 0.2484,48.6122624 0.1104,48.1838624 C0.0456,47.9690624 0.0036,47.7458624 6.82121026e-14,47.5214624 L6.82121026e-14,46.9334624 L6.82121026e-14,44.6114624 C6.82121026e-14,43.0658624 6.82121026e-14,41.5250624 6.82121026e-14,39.9902624 C0.0024,33.8510624 0.0036,27.8030624 0.0048,21.8594624 C0.0084,15.9158624 0.0108,10.0766624 0.0132,4.35986239 L0.0192,2.20946239 C0.0384,1.38746239 0.5496,0.613462392 1.2768,0.251062392 C1.6308,0.063862392 2.0664,-0.011737608 2.436,0.00146239198 L3.492,0.00266239198 L5.5944,0.00386239198 C8.3916,0.00626239198 11.1564,0.00746239198 13.8876,0.00986239198 C35.7288,0.035062392 55.3992,0.057862392 71.9244,0.075862392 C88.4328,0.119062392 101.7948,0.152662392 111.0516,0.175462392 C115.6584,0.200662392 119.2392,0.221062392 121.6896,0.234262392 C122.8932,0.248662392 123.8148,0.258262392 124.4556,0.265462392 C125.0796,0.276262392 125.3988,0.297862392 125.3988,0.297862392 C125.3988,0.297862392 125.0796,0.319462392 124.4556,0.329062392 C123.8148,0.336262392 122.8932,0.347062392 121.6896,0.360262392 C119.2392,0.374662392 115.6584,0.393862392 111.0516,0.419062392 C101.7948,0.443062392 88.4328,0.476662392 71.9244,0.518662392 C55.3992,0.537862392 35.7288,0.560662392 13.8876,0.585862392 C11.1564,0.587062392 8.3916,0.589462392 5.5944,0.590662392 L3.492,0.593062392 L2.436,0.593062392 C2.0988,0.583462392 1.8204,0.639862392 1.5444,0.779062392 C1.0056,1.05026239 0.6252,1.62386239 0.6132,2.23346239 L0.6096,4.35986239 C0.612,10.0766624 0.6156,15.9158624 0.618,21.8594624 C0.6192,27.8030624 0.6204,33.8510624 0.6228,39.9902624 C0.6228,41.5250624 0.6228,43.0658624 0.6228,44.6114624 L0.6228,46.9334624 C0.6276,47.3414624 0.5988,47.6942624 0.7044,47.9930624 C0.8052,48.3050624 0.9984,48.5858624 1.254,48.7934624 C1.5108,48.9998624 1.8264,49.1282624 2.154,49.1606624 C2.484,49.1774624 2.9172,49.1654624 3.294,49.1690624 L5.64,49.1678624 C7.206,49.1678624 8.778,49.1678624 10.3536,49.1678624 C47.7504,49.1882624 82.5216,49.2050624 111.42,49.2206624 L111.5388,49.2206624 L111.6156,49.3082624 C115.0248,53.1734624 118.3116,56.8994624 121.3896,60.3902624 L120.9684,60.5498624 C120.9732,56.6786624 120.9792,52.9418624 120.9852,49.4810624 L120.9852,49.2554624 L121.2096,49.2566624 C122.2848,49.2578624 123.348,49.2602624 124.3968,49.2614624 C124.9176,49.2422624 125.4696,49.3178624 125.8944,49.1942624 C126.3396,49.0670624 126.7272,48.7610624 126.9528,48.3638624 C127.2,47.9582624 127.2024,47.5154624 127.1928,46.9910624 C127.194,46.4858624 127.194,45.9842624 127.1952,45.4862624 C127.1976,44.4902624 127.1988,43.5074624 127.2012,42.5390624 C127.2096,38.6642624 127.218,35.0114624 127.2252,31.5950624 C127.2468,24.7670624 127.2648,18.8870624 127.2792,14.0750624 C127.3056,9.28106239 127.3248,5.55746239 127.3392,3.00986239 C127.3512,2.37626239 127.38,1.81706239 127.1328,1.39946239 C126.918,0.980662392 126.6,0.715462392 126.324,0.560662392 C125.7516,0.264262392 125.3904,0.327862392 125.3988,0.297862392" id="Fill-33"></path>
        </g>
        <g id="Group-2" transform="translate(137.000000, 219.000000)">
            <path d="M0.613856413,31.1071179 L21.3861436,31.1071179 L21.3861436,0.892882056 L0.613856413,0.892882056 L0.613856413,31.1071179 Z M0,32 L22,32 L22,0 L0,0 L0,32 Z" id="Fill-68" fill="#E0565F"></path>
            <path d="M100,7.5005 C100,7.6445 84.7762651,7.7605 66.0015256,7.7605 C47.2206837,7.7605 32,7.6445 32,7.5005 C32,7.3565 47.2206837,7.2395 66.0015256,7.2395 C84.7762651,7.2395 100,7.3565 100,7.5005" id="Fill-70" fill="#132529"></path>
            <path d="M100,14.5 C100,14.644 84.7762651,14.76 66.0015256,14.76 C47.2206837,14.76 32,14.644 32,14.5 C32,14.356 47.2206837,14.24 66.0015256,14.24 C84.7762651,14.24 100,14.356 100,14.5" id="Fill-71" fill="#132529"></path>
            <path d="M100,20.501 C100,20.644 84.7762651,20.76 66.0015256,20.76 C47.2206837,20.76 32,20.644 32,20.501 C32,20.356 47.2206837,20.24 66.0015256,20.24 C84.7762651,20.24 100,20.356 100,20.501" id="Fill-72" fill="#132529"></path>
            <path d="M100,27.5005 C100,27.6435 84.7762651,27.7605 66.0015256,27.7605 C47.2206837,27.7605 32,27.6435 32,27.5005 C32,27.3555 47.2206837,27.2395 66.0015256,27.2395 C84.7762651,27.2395 100,27.3555 100,27.5005" id="Fill-73" fill="#132529"></path>
        </g>
        <g id="cloud-computing" transform="translate(300.000000, 137.000000)" fill-rule="nonzero">
            <circle id="Oval" fill="#EC1066" cx="11.1645848" cy="11.3483977" r="10.9785263"></circle>
            <g id="Group" transform="translate(6.164912, 4.318129)" fill="#FAFAFA">
                <path d="M4.99967251,14.016655 C4.44846784,14.016655 4.00159064,13.5697778 4.00159064,13.0185731 L4.00159064,1.04196491 C4.00159064,0.490760234 4.44846784,0.0438830409 4.99967251,0.0438830409 C5.55087719,0.0438830409 5.99775439,0.490760234 5.99775439,1.04196491 L5.99775439,13.0185731 C5.99766082,13.5697778 5.55087719,14.016655 4.99967251,14.016655 Z" id="Path"></path>
                <path d="M8.99181287,6.03228226 C8.72692398,6.03274854 8.47270175,5.92795322 8.28519298,5.74081871 L4.99957895,2.45323977 L1.71396491,5.74081871 C1.31752047,6.12378947 0.685660819,6.11274854 0.302690058,5.71630409 C-0.0709239766,5.32949708 -0.0709239766,4.71635088 0.302690058,4.32954386 L4.29492398,0.337309942 C4.68463158,-0.0523040936 5.31639766,-0.0523040936 5.70619883,0.337309942 L9.69843275,4.32954386 C10.0875789,4.71990643 10.0866433,5.35185965 9.69618713,5.74100585 C9.50923977,5.92748538 9.25595322,6.03218713 8.99181287,6.03228226 Z" id="Path"></path>
            </g>
        </g>
        <g id="Group-7" transform="translate(238.000000, 215.000000)">
            <g id="Oval-2" fill="#F5DDE4">
                <circle id="Oval" cx="7.25" cy="7.25" r="7.25"></circle>
            </g>
            <g id="Group-3" transform="translate(2.000000, 2.000000)" fill="#F57DA0">
                <rect id="Rectangle" x="0" y="4.5" width="10" height="1.5"></rect>
                <rect id="Rectangle-Copy" x="4.5" y="0" width="1.5" height="10"></rect>
            </g>
        </g>
        <g id="Group-6" transform="translate(121.000000, 125.000000)">
            <path d="M0,4.85331854 L0,69.5753185 C0,71.0138185 1.28765372,72.1793185 2.87614665,72.1793185 L98.1238534,72.1793185 C99.7123463,72.1793185 101,71.0138185 101,69.5753185 L101,2.60351854 C101,1.13911854 99.6659443,-0.0375814607 98.0488369,0.000918539304 L2.80190355,2.25071854 C1.24279851,2.28781854 0,3.44211854 0,4.85331854" id="Fill-19" fill="#E1E3E6"></path>
            <path d="M87.4949077,14.5539593 C87.4623638,14.6211593 86.3962638,14.0030593 84.3053638,13.3415593 C82.2305638,12.6982593 79.0301638,12.0766593 75.1577638,12.6625593 C73.2376638,12.9705593 71.1572638,13.5515593 69.1251638,14.6015593 C67.0797638,15.6270593 65.1302638,17.1474593 63.1933638,18.8680593 C61.2480638,20.5844593 59.3174638,22.5332593 57.0900638,24.3350593 C54.8626638,26.1074593 52.3069638,27.7846593 49.3004638,28.5511593 C47.8080638,28.9347593 46.2456638,29.0348593 44.7518638,28.8248593 C43.2552638,28.6211593 41.8419638,28.1311593 40.5378638,27.5235593 C37.9254638,26.2929593 35.6910638,24.6745593 33.4783638,23.3256593 C31.2810638,21.9494593 29.0725638,20.8581593 26.8388638,20.3492593 C24.6184638,19.8088593 22.4624638,19.6996593 20.5227638,19.8648593 C16.6195638,20.2057593 13.6655638,21.5875593 11.8042638,22.7033593 C9.93316377,23.8464593 9.05116377,24.7067593 9,24.6465593 C8.98536377,24.6297593 9.20306377,24.4155593 9.63426377,24.0235593 C10.0584638,23.6245593 10.7353638,23.0869593 11.6635638,22.4793593 C13.5073638,21.2802593 16.4865638,19.7990593 20.4772638,19.3874593 C22.4603638,19.1872593 24.6758638,19.2698593 26.9697638,19.8025593 C29.2769638,20.3016593 31.5820638,21.4195593 33.8038638,22.7922593 C36.0466638,24.1418593 38.2810638,25.7378593 40.8164638,26.9208593 C43.3266638,28.1297593 46.2785638,28.6673593 49.1345638,27.8938593 C51.9912638,27.1686593 54.4839638,25.5509593 56.6749638,23.8170593 C58.8673638,22.0558593 60.8070638,20.1189593 62.7803638,18.3990593 C64.7466638,16.6756593 66.7514638,15.1356593 68.8717638,14.1003593 C70.9752638,13.0412593 73.1193638,12.4721593 75.0891638,12.1886593 C79.0623638,11.6503593 82.3103638,12.3622593 84.3879638,13.0909593 C85.4365638,13.4535593 86.2170638,13.8245593 86.7301638,14.0996593 C87.2432638,14.3775593 87.5057638,14.5336593 87.4949077,14.5539593" id="Fill-20" fill="#365158"></path>
            <polygon id="Fill-21" fill="#365158" points="20.3609 54.1893185 28.7931 54.1893185 28.7931 31.3826185 20.3609 31.3826185"></polygon>
            <polygon id="Fill-22" fill="#365158" points="56.1435 54.1893185 64.5757 54.1893185 64.5757 31.3826185 56.1435 31.3826185"></polygon>
            <polygon id="Fill-23" fill="#365158" points="68.0708 54.1893185 76.503 54.1893185 76.503 17.9895185 68.0708 17.9895185"></polygon>
            <polygon id="Fill-23-Copy" fill="#365158" points="80 54.1998 88.4322 54.1998 88.4322 18 80 18"></polygon>
            <polygon id="Fill-24" fill="#365158" points="9.4486 54.6849185 17.8808 54.6849185 17.8808 47.0094185 9.4486 47.0094185"></polygon>
            <polygon id="Fill-25" fill="#365158" points="32.2882 54.1893185 40.7211 54.1893185 40.7211 41.6817185 32.2882 41.6817185"></polygon>
            <polygon id="Fill-26" fill="#365158" points="44.2155 54.1893185 52.6484 54.1893185 52.6484 38.8103185 44.2155 38.8103185"></polygon>
            <path d="M29.1333,56.8773185 C29.1333,57.0642185 27.0935,57.2161185 24.5777,57.2161185 C22.0612,57.2161185 20.0214,57.0642185 20.0214,56.8773185 C20.0214,56.6897185 22.0612,56.5385185 24.5777,56.5385185 C27.0935,56.5385185 29.1333,56.6897185 29.1333,56.8773185" id="Fill-27" fill="#1A282B"></path>
            <path d="M78.1655,56.8773185 C78.1655,57.0642185 75.859,57.2161185 73.0156,57.2161185 C70.1701,57.2161185 67.865,57.0642185 67.865,56.8773185 C67.865,56.6897185 70.1701,56.5385185 73.0156,56.5385185 C75.859,56.5385185 78.1655,56.6897185 78.1655,56.8773185" id="Fill-29" fill="#1A282B"></path>
            <path d="M90.1655,56.8773185 C90.1655,57.0642185 87.859,57.2161185 85.0156,57.2161185 C82.1701,57.2161185 79.865,57.0642185 79.865,56.8773185 C79.865,56.6897185 82.1701,56.5385185 85.0156,56.5385185 C87.859,56.5385185 90.1655,56.6897185 90.1655,56.8773185" id="Fill-29" fill="#1A282B"></path>
            <path d="M65.6383,56.8773185 C65.6383,57.0642185 63.3318,57.2161185 60.4877,57.2161185 C57.6429,57.2161185 55.3378,57.0642185 55.3378,56.8773185 C55.3378,56.6897185 57.6429,56.5385185 60.4877,56.5385185 C63.3318,56.5385185 65.6383,56.6897185 65.6383,56.8773185" id="Fill-30" fill="#1A282B"></path>
            <path d="M52.6484,56.8773185 C52.6484,57.0642185 50.6079,57.2168185 48.0928,57.2168185 C45.5763,57.2168185 43.5365,57.0642185 43.5365,56.8773185 C43.5365,56.6904185 45.5763,56.5378185 48.0928,56.5378185 C50.6079,56.5378185 52.6484,56.6904185 52.6484,56.8773185" id="Fill-31" fill="#1A282B"></path>
            <path d="M40.3249,56.8773185 C40.3249,57.0642185 38.2844,57.2168185 35.7693,57.2168185 C33.2528,57.2168185 31.213,57.0642185 31.213,56.8773185 C31.213,56.6904185 33.2528,56.5378185 35.7693,56.5378185 C38.2844,56.5378185 40.3249,56.6904185 40.3249,56.8773185" id="Fill-32" fill="#1A282B"></path>
        </g>
        <g id="Group-8" transform="translate(47.000000, 151.000000)">
            <g id="Group-3" transform="translate(0.000000, 2.000000)">
                <polyline id="Fill-13" fill="#E4E4DE" points="27.1552 102.305652 35.288 118.656852 25.296 118.542452 27.1552 102.305652"></polyline>
                <path d="M38.3112,53.4520523 C42.3816,53.7648523 45.8952,50.6312523 46.0528,46.5520523 C46.2032,42.6344523 46.3344,38.6736523 46.3344,38.6736523 C46.3344,38.6736523 52.2704,38.1176523 52.7016,32.2432523 C53.132,26.3680523 52.9352,12.8056523 52.9352,12.8056523 C46.308,9.46645229 38.392,9.97525229 32.2464,14.1360523 L32.612,34.8120523 L32.612,45.9360523 C32.6512,49.6664523 34.5912,53.1664523 38.3112,53.4520523" id="Fill-84" fill="#F1AD92"></path>
                <path d="M46.8456,25.0704523 C45.8328,23.8152523 44.1848,23.3152523 42.8312,24.1944523 C41.4776,25.0736523 40.9576,27.0280523 41.6936,28.4640523 C42.2128,29.4776523 43.396,30.3960523 44.576,30.6432523 C45.6848,30.8752523 46.472,31.9464523 46.3424,33.0728523 C46.1736,34.5472523 45.3872,35.9432523 44.28,37.1640523 C42.5584,39.0624523 40.0248,40.0848523 37.4792,40.3856523 C34.9776,40.6816523 32.1112,40.1600523 30.6552,38.1032523 C29.596,36.6064523 29.52,34.6512523 29.4816,32.8184523 C29.392,28.4864523 29.3024,24.1544523 29.2128,19.8232523 C29.1808,18.2616523 29.1504,16.6808523 29.5088,15.1608523 C29.8672,13.6408523 30.6632,12.1632523 31.968,11.3048523 C33.3968,10.3648523 35.2072,10.2840523 36.8352,9.75765229 C38.8696,9.10005229 40.5976,7.75045229 42.5016,6.77605229 C44.4056,5.80245229 46.7392,5.22085229 48.6504,6.18005229 C50.0216,6.86805229 50.9416,8.23765229 52.276,8.99605229 C54.1752,10.0760523 56.7608,9.83125229 57.6832,12.6240523 C58.0016,13.5888523 57.9776,14.6488523 57.6512,15.6112523 C56.3632,19.4120523 51.656,20.9440523 48.2656,19.3016523 C48.1992,19.9456523 48.8328,21.3776523 48.1552,23.4112523 C47.9384,24.0616523 47.8616,25.0528523 46.8456,25.0704523" id="Fill-85" fill="#132529"></path>
                <path d="M30.6336,12.9768523 C31.4672,11.0776523 32.3112,9.13925229 32.5216,7.07605229 C32.7312,5.01205229 32.2072,2.76485229 30.6696,1.37205229 C29.6296,0.430452287 28.2,-0.0383477126 26.7968,0.00245228739 C24.112,0.0808522874 21.6264,2.09525229 20.8936,4.68005229 C20.1608,7.26485229 21.172,10.2256523 23.268,11.9064523 C25.3632,13.5872523 28.4056,13.9464523 30.8792,12.8992523" id="Fill-86" fill="#132529"></path>
                <path d="M31.788,10.8352523 C31.8992,10.8320523 31.804,11.8808523 30.9216,12.7328523 C30.048,13.5952523 28.9984,13.6656523 29.004,13.5536523 C28.9752,13.4352523 29.864,13.2000523 30.6304,12.4352523 C31.4136,11.6872523 31.6696,10.8040523 31.788,10.8352523" id="Fill-87" fill="#E0565F"></path>
                <path d="M29.856,12.2704523 C29.8784,12.3040523 29.3368,12.8304523 28.26,13.4376523 C27.72,13.7240523 27.0064,14.0208523 26.1576,14.0328523 C25.3376,14.0504523 24.3128,13.7728523 23.7056,12.9328523 C23.1064,12.1008523 23.0832,11.0784523 23.2712,10.2760523 C23.4672,9.45045229 23.8888,8.81845229 24.2592,8.33125229 C25.0328,7.37285229 25.6176,6.90085229 25.6496,6.92965229 C25.704,6.97605229 25.1864,7.53205229 24.4968,8.50405229 C24.1696,8.99445229 23.8,9.61445229 23.6456,10.3592523 C23.4928,11.0936523 23.54,11.9976523 24.0416,12.6864523 C24.5384,13.3808523 25.4096,13.6432523 26.1568,13.6488523 C26.9192,13.6584523 27.592,13.4176523 28.1288,13.1728523 C29.1992,12.6560523 29.816,12.2080523 29.856,12.2704523" id="Fill-88" fill="#132529"></path>
                <path d="M19.8696,18.9064523 C19.8976,18.8976523 19.9928,19.1336523 20.156,19.5568523 C20.3248,19.9744523 20.5472,20.6032523 21.0208,21.2312523 C21.4792,21.8352523 22.3264,22.4824523 23.3216,22.2888523 C24.308,22.1016523 25.18,21.1928523 25.5352,20.0600523 C25.9168,18.9176523 25.944,17.7224523 26.1368,16.6472523 C26.3136,15.5712523 26.6736,14.5904523 27.2584,13.9552523 C27.8288,13.3184523 28.504,13.0376523 28.9688,12.9800523 C29.4416,12.9152523 29.6944,13.0264523 29.688,13.0416523 C29.6848,13.0816523 29.428,13.0304523 28.9992,13.1392523 C28.576,13.2408523 27.9792,13.5376523 27.4816,14.1472523 C26.9792,14.7464523 26.6664,15.6632523 26.5152,16.7088523 C26.3464,17.7536523 26.3376,18.9640523 25.9296,20.1944523 C25.544,21.4208523 24.5632,22.4680523 23.3896,22.6672523 C22.8072,22.7712523 22.2312,22.6192523 21.796,22.3584523 C21.3568,22.0976523 21.028,21.7512523 20.784,21.4056523 C20.3048,20.7032523 20.1264,20.0456523 20.0016,19.6072523 C19.8848,19.1640523 19.8432,18.9144523 19.8696,18.9064523" id="Fill-89" fill="#132529"></path>
                <path d="M16.9832,68.2600523 C16.9832,68.2600523 13.9888,90.1968523 16.9832,92.9768523 C19.9768,95.7576523 22.8592,94.8352523 22.8592,94.8352523 L28.5616,90.0672523 L29.684,68.2600523 L16.9832,68.2600523" id="Fill-90" fill="#F1AD92"></path>
                <path d="M91.3128,11.3368523 C91.0632,9.15445229 91.2272,6.69765229 91.3128,7.79365229 C91.3984,8.88965229 89.4936,14.8696523 89.4936,14.8696523 L79.6496,35.5840523 C78.3112,38.8656523 75.6016,40.9280523 73.576,41.4152523 L64.3872,44.1472523 L67.9792,56.2952523 L80.7504,52.0608523 C84.064,50.9624523 86.6608,48.3576523 87.7496,45.0408523 L96.5536,18.2216523 C96.5536,18.2216523 96.8971355,15.2446185 97.2739355,13.0094185 C97.6507355,10.7742185 96.8328,7.79365229 96.8328,7.79365229 L91.3128,11.3368523 Z" id="Fill-92" fill="#F1AD92"></path>
                <path d="M51.6056,234.333652 L51.468,228.191252 L39.9608,228.374452 L40.0672,237.363252 L40.7816,237.397652 C43.9592,237.523252 56.9488,237.811252 59.0616,237.134452 C61.4176,236.378452 51.6056,234.333652 51.6056,234.333652" id="Fill-93" fill="#E0565F"></path>
                <path d="M40.0768,237.198452 L40.0272,233.982452 C40.1448,233.971252 40.2616,233.965652 40.3784,233.965652 C41.2256,233.965652 42.0448,234.260852 42.7304,234.776052 C43.4744,235.336052 44.0088,236.168052 44.2112,237.076852 L40.0816,237.104852 L40.0768,237.198452" id="Fill-94" fill="#EC979D"></path>
                <path d="M40.708,237.404852 C40.4864,237.392052 40.272,237.377652 40.0672,237.363252 L40.7816,237.397652 C40.8424,237.400052 40.9072,237.402452 40.9752,237.404852 C40.8872,237.404852 40.796,237.404852 40.708,237.404852" id="Fill-95" fill="#FFFFFE"></path>
                <path d="M48.3456,237.584852 C45.5576,237.584852 42.776,237.528052 40.708,237.404852 C40.796,237.404852 40.8872,237.404852 40.9752,237.404852 C42.7072,237.468852 46.688,237.567252 50.5024,237.567252 C50.7096,237.567252 50.916,237.566452 51.1224,237.566452 C50.2136,237.578452 49.2792,237.584852 48.3456,237.584852" id="Fill-96" fill="#6C7978"></path>
                <path d="M50.5024,237.567252 C46.688,237.567252 42.7072,237.468852 40.9752,237.404852 C40.9072,237.402452 40.8424,237.400052 40.7816,237.397652 L40.0672,237.363252 L40.0768,237.198452 L44.2376,237.205652 C44.2296,237.162452 44.2208,237.120052 44.2112,237.076852 L55.408,237.000852 C55.408,237.000852 55.7328,235.542452 56.4024,235.502452 C56.684,235.583252 56.9592,235.664852 57.2224,235.748052 C58.0096,235.999252 59.1208,236.402452 59.3976,236.752852 C59.4816,236.898452 59.3896,237.028852 59.0616,237.134452 C59.0304,237.144052 58.996,237.154452 58.96,237.164052 C57.7992,237.376852 54.6592,237.517652 51.1224,237.566452 C50.916,237.566452 50.7096,237.567252 50.5024,237.567252" id="Fill-98" fill="#E98891"></path>
                <path d="M44.2376,237.205652 L40.0768,237.198452 L40.0816,237.104852 L44.2112,237.076852 C44.2208,237.120052 44.2296,237.162452 44.2376,237.205652" id="Fill-99" fill="#F2BCBC"></path>
                <path d="M39.9008,237.101652 C39.9008,237.105652 39.9688,237.112052 40.0992,237.119252 C40.2696,237.127252 40.4568,237.136052 40.668,237.144852 C41.2368,237.160852 41.9352,237.180052 42.7608,237.203252 C44.5272,237.239252 46.9704,237.257652 49.6672,237.218452 C52.3656,237.178452 54.8064,237.088852 56.572,237.001652 C57.396,236.954452 58.0944,236.914452 58.6616,236.881652 C58.8728,236.866452 59.0592,236.852852 59.2296,236.839252 C59.36,236.828852 59.4272,236.820852 59.4272,236.815252 C59.4272,236.810452 59.3584,236.809652 59.228,236.811252 C59.0576,236.816852 58.8704,236.821652 58.6592,236.828052 C58.0912,236.848052 57.3928,236.872852 56.568,236.903252 C54.8016,236.965652 52.3616,237.038452 49.6656,237.078452 C46.9696,237.117652 44.5288,237.115252 42.7616,237.104052 C41.9368,237.099252 41.2376,237.094452 40.6688,237.091252 C40.4576,237.091252 40.2704,237.091252 40.0992,237.092052 C39.9696,237.093652 39.9008,237.096852 39.9008,237.101652" id="Fill-100" fill="#132529"></path>
                <path d="M51.9864,235.508852 C52.0192,235.529652 52.1784,235.328852 52.3424,235.062452 C52.5056,234.795252 52.612,234.562452 52.5792,234.541652 C52.5464,234.521652 52.3872,234.722452 52.2232,234.988852 C52.0592,235.256052 51.9536,235.488852 51.9864,235.508852" id="Fill-102" fill="#132529"></path>
                <path d="M51.0464,235.031252 C51.0728,235.059252 51.2528,234.935252 51.448,234.753652 C51.6432,234.572052 51.7808,234.403252 51.7552,234.374452 C51.728,234.346452 51.5488,234.470452 51.3536,234.651252 C51.1584,234.832852 51.0208,235.002452 51.0464,235.031252" id="Fill-103" fill="#132529"></path>
                <path d="M50.4408,233.953652 C50.4416,233.992852 50.7104,234.022452 51.0424,234.020852 C51.3744,234.019252 51.6432,233.987252 51.6432,233.948852 C51.6432,233.909652 51.3744,233.880052 51.0424,233.881652 C50.7104,233.882452 50.4408,233.915252 50.4408,233.953652" id="Fill-104" fill="#132529"></path>
                <path d="M50.2272,233.191252 C50.2144,233.225652 50.5096,233.352852 50.9,233.375252 C51.2904,233.400052 51.5984,233.308052 51.5904,233.272052 C51.5832,233.232852 51.2792,233.260052 50.9088,233.236852 C50.5376,233.215252 50.2392,233.152052 50.2272,233.191252" id="Fill-105" fill="#132529"></path>
                <path d="M52.3607983,234.499252 C52.36,234.514452 52.6448,234.544852 53.1,234.483252 C53.3272,234.452052 53.596,234.394452 53.8848,234.297652 C54.028,234.244052 54.1784,234.203252 54.3328,234.104852 C54.4048,234.055252 54.4848,233.984852 54.512,233.872052 C54.5408,233.761652 54.4792,233.637652 54.3952,233.578452 C53.6832,233.223252 52.9816,233.632052 52.7248,234.001652 C52.5832,234.189652 52.52,234.372052 52.4912,234.498452 C52.4632,234.624852 52.4664,234.697652 52.4752,234.698452 C52.5008,234.707252 52.5208,234.405652 52.8024,234.062452 C52.9408,233.893652 53.1528,233.728852 53.4272,233.641652 C53.6872,233.560852 54.0584,233.534452 54.3096,233.688852 C54.428,233.773652 54.3848,233.912052 54.2552,233.992052 C54.1352,234.072052 53.9776,234.123252 53.8424,234.176052 C53.564,234.276852 53.3048,234.343252 53.084,234.385652 C52.6424,234.471252 52.36,234.476052 52.3607983,234.499252" id="Fill-106" fill="#132529"></path>
                <path d="M52.5528,234.532852 C52.5632,234.540852 52.6696,234.350452 52.6304,234.018452 C52.6104,233.855252 52.5472,233.662452 52.42,233.480852 C52.2872,233.319252 52.116,233.096052 51.7984,233.113652 C51.6272,233.137652 51.5472,233.335252 51.576,233.458452 C51.592,233.588052 51.6512,233.698452 51.7072,233.787252 C51.82,233.970452 51.9464,234.117652 52.0632,234.229652 C52.2984,234.452052 52.4824,234.536052 52.4912,234.521652 C52.5032,234.504052 52.3416,234.391252 52.1336,234.160852 C52.0304,234.044852 51.9184,233.898452 51.8176,233.721652 C51.7136,233.567252 51.64,233.287252 51.8248,233.250452 C52.0096,233.230452 52.2016,233.411252 52.3168,233.556852 C52.4352,233.715252 52.5024,233.886452 52.5328,234.035252 C52.5944,234.335252 52.528,234.528052 52.5528,234.532852" id="Fill-107" fill="#132529"></path>
                <path d="M40.0871762,233.948852 C40.0904,233.975252 40.416,233.912852 40.9376,233.966452 C41.4536,234.015252 42.1736,234.216052 42.804,234.702452 C43.4344,235.189652 43.8104,235.836052 43.988,236.322452 C44.1712,236.812052 44.1936,237.143252 44.2192,237.140075 C44.228,237.139252 44.2304,237.056852 44.216,236.908052 C44.2016,236.759252 44.1632,236.544852 44.0808,236.289652 C43.9224,235.780852 43.5464,235.100052 42.8896,234.592052 C42.2312,234.084852 41.4768,233.892852 40.9456,233.868052 C40.6776,233.852852 40.4608,233.870452 40.3128,233.893652 C40.1648,233.916852 40.0856,233.940852 40.0871762,233.948852" id="Fill-108" fill="#132529"></path>
                <path d="M41.2064,229.142452 C41.168,229.142452 41.1392,230.201652 41.1432,231.507252 C41.1464,232.813652 41.1808,233.872052 41.2192,233.872052 C41.2576,233.872052 41.2856,232.812852 41.2824,231.506452 C41.2784,230.201652 41.2448,229.142452 41.2064,229.142452" id="Fill-109" fill="#132529"></path>
                <path d="M45.6687771,236.061652 C45.664,236.098452 46.416,236.208852 47.3512,236.203252 C48.2864,236.198452 49.0368,236.077652 49.0320229,236.041652 C49.0272,236.001652 48.2768,236.059252 47.3504,236.063252 C46.424,236.070452 45.6728,236.021652 45.6687771,236.061652" id="Fill-110" fill="#132529"></path>
                <path d="M43.4136,236.092852 C43.3856,236.121652 43.4768,236.251252 43.5568,236.422452 C43.6384,236.592852 43.68,236.745652 43.72,236.742452 C43.7576,236.741652 43.7768,236.560052 43.6832,236.363252 C43.5904,236.165652 43.4376,236.064852 43.4136,236.092852" id="Fill-111" fill="#132529"></path>
                <path d="M42.5472,235.048052 C42.52,235.076052 42.596,235.194452 42.7168,235.312852 C42.8384,235.432852 42.9584,235.505652 42.9848,235.478452 C43.012,235.451252 42.936,235.332852 42.8152,235.213652 C42.6936,235.095252 42.5744,235.020852 42.5472,235.048052" id="Fill-112" fill="#132529"></path>
                <path d="M41.324,234.584052 C41.332,234.623252 41.4848,234.619252 41.6552,234.676052 C41.8264,234.728852 41.948,234.820852 41.9776,234.794452 C42.0088,234.772852 41.9096,234.610452 41.6976,234.543252 C41.4872,234.474452 41.3112,234.548052 41.324,234.584052" id="Fill-113" fill="#132529"></path>
                <g id="Group-117" transform="translate(0.000000, 219.499252)">
                    <path d="M40.4544,14.8704 C40.4408,14.9056 40.508,14.964 40.604,15 C40.7,15.036 40.7888,15.0352 40.8024,14.9992 C40.8152,14.9624 40.7488,14.9048 40.6528,14.8696 C40.5568,14.8336 40.468,14.8344 40.4544,14.8704" id="Fill-114" fill="#132529"></path>
                    <path d="M11,12.8696 L14.9016,8.1232 L6.0584,0.7584 L0.2768,7.6408 L0.796,8.1328 C3.1232,10.3008 12.7816,18.9912 14.8248,19.8552 C17.104,20.8184 11,12.8696 11,12.8696" id="Fill-116" fill="#E0565F"></path>
                </g>
                <polyline id="Fill-118" fill="#EAEAE5" points="2.3816 224.635252 2.4512 224.551252 2.452 224.551252 2.3816 224.635252"></polyline>
                <g id="Group-122" transform="translate(0.000000, 224.299252)">
                    <mask id="mask-2" fill="white">
                        <use xlink:href="#path-1"></use>
                    </mask>
                    <g id="Clip-120"></g>
                    <path d="M3.6048,5.3272 L0.456,2.6552 L0.3912,2.7224 L2.3816,0.336 L2.452,0.252 C3.2488,0.8144 3.7752,1.664 3.9832,2.6168 C4.1824,3.5264 4.044,4.5056 3.6048,5.3272" id="Fill-119" fill="#EC979D" mask="url(#mask-2)"></path>
                    <path d="M15.1624,15.2 C15.0856,15.2 14.9368,15.1336 14.7272,15.0104 C14.7608,15.0272 14.7936,15.0424 14.8248,15.0552 C14.9552,15.1104 15.0576,15.136 15.136,15.136 C15.2488,15.136 15.3096,15.0824 15.3288,14.9848 C15.324,15.0992 15.28,15.1752 15.184,15.1976 C15.1776,15.1992 15.1704,15.2 15.1624,15.2 M14.2952,12.74 C14.1664,12.5336 14.0296,12.3216 13.8888,12.1072 C13.9384,12.1808 14.0984,12.4224 14.2952,12.74 M8.544,10.2216 C6.4728,8.4888 4.2592,6.5624 2.4416,4.8952 C2.448,4.8824 2.4544,4.8696 2.4616,4.8576 C4.0696,6.3144 6.3528,8.348 8.544,10.2216" id="Fill-121" fill="#FFFFFE" mask="url(#mask-2)"></path>
                </g>
                <path d="M2.4416,229.194452 C1.6232,228.443252 0.8856,227.744852 0.2768,227.140052 L0.796,227.632052 C1.1768,227.986452 1.7536,228.516052 2.4616,229.156852 C2.4544,229.168852 2.448,229.181652 2.4416,229.194452" id="Fill-123" fill="#E5E5E0"></path>
                <path d="M15.136,239.435252 C15.0576,239.435252 14.9552,239.409652 14.8248,239.354452 C14.7936,239.341652 14.7608,239.326452 14.7272,239.309652 C13.7096,238.714452 11.248,236.782452 8.544,234.520852 C6.3528,232.647252 4.0696,230.613652 2.4616,229.156852 C1.7536,228.516052 1.1768,227.986452 0.796,227.632052 L0.2768,227.140052 L0.3912,227.021652 L3.5416,229.740852 C3.5632,229.703252 3.5848,229.664852 3.6048,229.626452 L12.1432,236.869652 C12.1432,236.869652 12.9376,236.276852 13.52,236.276852 C13.6528,236.276852 13.7744,236.308052 13.8736,236.383252 C13.8736,236.383252 13.8784,236.391252 13.8888,236.406452 C14.0296,236.620852 14.1664,236.832852 14.2952,237.039252 C14.7312,237.743252 15.3472,238.824052 15.3288,239.284052 C15.3096,239.381652 15.2488,239.435252 15.136,239.435252" id="Fill-124" fill="#E98891"></path>
                <path d="M3.5416,229.740852 L0.3912,227.021652 L0.456,226.954452 L3.6048,229.626452 C3.5848,229.664852 3.5632,229.703252 3.5416,229.740852" id="Fill-125" fill="#F2BCBC"></path>
                <path d="M0.3216,226.833652 C0.3184,226.837652 0.3664,226.886452 0.46,226.976052 C0.584,227.093652 0.7208,227.221652 0.8744,227.367252 C1.2952,227.749652 1.812,228.220052 2.4232,228.775252 C3.7392,229.956052 5.5792,231.562452 7.6488,233.291252 C9.72,235.020852 11.6288,236.544852 13.0248,237.630452 C13.68,238.132052 14.2352,238.556852 14.6872,238.903252 C14.8568,239.028852 15.0072,239.139252 15.1448,239.240852 C15.2504,239.316852 15.3072,239.355252 15.3097413,239.351252 C15.3128,239.347252 15.2616,239.302452 15.1616,239.218452 C15.0288,239.110452 14.884,238.992852 14.72,238.860052 C14.276,238.504052 13.7304,238.068052 13.0864,237.552852 C11.7064,236.448052 9.8088,234.912852 7.7384,233.184052 C5.6696,231.456052 3.8208,229.862452 2.488,228.701652 C1.8664,228.159252 1.3392,227.700052 0.9104,227.326452 C0.7504,227.188852 0.6088,227.067252 0.4784,226.956052 C0.3784,226.871252 0.3248,226.829652 0.3216,226.833652" id="Fill-126" fill="#132529"></path>
                <path d="M12.0256,237.005652 C12.0552,237.037652 12.4,236.674452 12.9656,236.488852 C13.528,236.294452 14.0216,236.372852 14.0264,236.331252 C14.0416,236.299252 13.524,236.149652 12.9208,236.356852 C12.3152,236.557652 11.9936,236.989652 12.0256,237.005652" id="Fill-127" fill="#132529"></path>
                <path d="M10.5216,233.508052 C10.5328,233.544852 10.7848,233.496852 11.0832,233.401652 C11.3808,233.305652 11.6136,233.198452 11.6016,233.161652 C11.5904,233.124852 11.3384,233.172852 11.0408,233.268852 C10.7416,233.364052 10.5096,233.471252 10.5216,233.508052" id="Fill-128" fill="#132529"></path>
                <path d="M10.1215911,232.532852 C10.1232,232.571252 10.34,232.594452 10.6064,232.584852 C10.8728,232.574452 11.0872,232.536052 11.0856089,232.497652 C11.0848,232.458452 10.8672,232.436052 10.6008,232.444852 C10.3344,232.455252 10.12,232.494452 10.1215911,232.532852" id="Fill-129" fill="#132529"></path>
                <path d="M10.3648,231.321652 C10.3392,231.350452 10.524,231.548852 10.7768,231.764852 C11.0288,231.980052 11.2544,232.131252 11.2792,232.102452 C11.304,232.072052 11.12,231.873652 10.8672,231.658452 C10.6144,231.442452 10.3896,231.292052 10.3648,231.321652" id="Fill-130" fill="#132529"></path>
                <path d="M10.7,230.604052 C10.668,230.621652 10.808,230.910452 11.0896,231.182452 C11.3696,231.455252 11.6624,231.587252 11.68,231.554452 C11.7008,231.520052 11.4528,231.341652 11.1864,231.082452 C10.9192,230.824852 10.7336,230.581652 10.7,230.604052" id="Fill-131" fill="#132529"></path>
                <path d="M11.464,232.987252 C11.4536,232.998452 11.6496,233.206452 12.0352,233.456852 C12.2272,233.581652 12.4688,233.712852 12.7512,233.828052 C12.8944,233.880852 13.0344,233.948052 13.216,233.973652 C13.3032,233.983252 13.4096,233.982452 13.504,233.914452 C13.5976,233.848852 13.632,233.715252 13.6072,233.616052 C13.2984,232.881652 12.5,232.734452 12.0648,232.846452 C11.8344,232.897652 11.6672,232.994452 11.5632,233.070452 C11.4592,233.148852 11.4152,233.205652 11.4208,233.212052 C11.4344,233.236852 11.6456,233.020852 12.0832,232.943252 C12.2992,232.905652 12.5672,232.919252 12.8312,233.032852 C13.0816,233.140052 13.3808,233.362452 13.4704,233.643252 C13.5048,233.784852 13.3808,233.862452 13.2304,233.837652 C13.0872,233.820852 12.936,233.756052 12.7976,233.708052 C12.5216,233.603252 12.2808,233.484052 12.0864,233.372052 C11.6952,233.149652 11.4784,232.969652 11.464,232.987252" id="Fill-132" fill="#132529"></path>
                <path d="M11.588,233.137652 C11.5912,233.150452 11.7952,233.075252 11.9824,232.798452 C12.0728,232.661652 12.1512,232.473652 12.1728,232.253652 C12.1784,232.044052 12.1936,231.763252 11.9416,231.570452 C11.796,231.476852 11.6072,231.572852 11.548,231.686452 C11.4752,231.794452 11.4488,231.916852 11.4328,232.020852 C11.3992,232.232852 11.3984,232.427252 11.4144,232.588052 C11.4472,232.910452 11.5328,233.094452 11.548,233.088852 C11.5696,233.083252 11.52,232.892852 11.5128,232.581652 C11.5096,232.427252 11.5208,232.242452 11.5592,232.042452 C11.5816,231.858452 11.708,231.598452 11.872,231.691252 C12.0256,231.796052 12.0528,232.058452 12.0448,232.243252 C12.032,232.440852 11.9712,232.614452 11.8976,232.747252 C11.748,233.014452 11.5728,233.117652 11.588,233.137652" id="Fill-133" fill="#132529"></path>
                <path d="M2.5184,224.565652 C2.504,224.587252 2.792,224.752052 3.152,225.132852 C3.5112,225.506452 3.9256,226.128052 4.0872,226.907252 C4.2472,227.688052 4.1112,228.423252 3.928,228.908052 C3.7472,229.400052 3.548,229.665652 3.5704,229.679252 C3.5768,229.684052 3.6328,229.623252 3.7192,229.501652 C3.8056,229.379252 3.9152,229.191252 4.02,228.944052 C4.2312,228.455252 4.3904,227.693652 4.224,226.879252 C4.056,226.066452 3.6096,225.429652 3.2224,225.063252 C3.0288,224.877652 2.8536,224.748052 2.7256,224.670452 C2.5984,224.592052 2.5232,224.558452 2.5184,224.565652" id="Fill-134" fill="#132529"></path>
                <path d="M6.5016,221.651252 C6.4728,221.626452 5.76,222.410452 4.9112,223.403252 C4.0624,224.395252 3.3976,225.220052 3.4264,225.244852 C3.456,225.270452 4.168,224.485652 5.0176,223.493652 C5.8664,222.501652 6.5312,221.676052 6.5016,221.651252" id="Fill-135" fill="#132529"></path>
                <path d="M5.372,229.806452 C5.3448,229.832052 5.8424,230.405652 6.5552,231.010452 C7.2672,231.617652 7.9144,232.015252 7.9344,231.984852 C7.9576,231.952052 7.3504,231.505652 6.6456,230.904052 C5.9392,230.305652 5.4008,229.778452 5.372,229.806452" id="Fill-136" fill="#132529"></path>
                <path d="M3.6424,228.360052 C3.6024,228.364052 3.5872,228.521652 3.536,228.703252 C3.4864,228.885652 3.4184,229.028852 3.4504,229.052052 C3.4792,229.076052 3.6128,228.950452 3.6704,228.740052 C3.7288,228.530452 3.6784,228.354452 3.6424,228.360052" id="Fill-137" fill="#132529"></path>
                <path d="M3.6664,227.003252 C3.628,227.005652 3.6088,227.145652 3.6224,227.314452 C3.6368,227.483252 3.6792,227.617652 3.7176,227.614452 C3.756,227.611252 3.7752,227.472052 3.7616,227.303252 C3.7472,227.134452 3.7048,227.000052 3.6664,227.003252" id="Fill-138" fill="#132529"></path>
                <path d="M3.0424,225.852852 C3.0232,225.888052 3.1416,225.984852 3.2328,226.138452 C3.328,226.290452 3.3608,226.440052 3.4008,226.439252 C3.4384,226.442452 3.4688,226.255252 3.352,226.066452 C3.2368,225.876052 3.056,225.817652 3.0424,225.852852" id="Fill-139" fill="#132529"></path>
                <path d="M2.5232,225.123252 C2.4896,225.141652 2.5024,225.229652 2.552,225.319252 C2.6016,225.408852 2.6688,225.466452 2.7032,225.447252 C2.7368,225.428852 2.724,225.340852 2.6744,225.251252 C2.6248,225.162452 2.5568,225.104052 2.5232,225.123252" id="Fill-140" fill="#132529"></path>
                <path d="M34.9464,103.823252 C34.9464,103.823252 31.116,120.033652 32.1992,123.240052 C33.2824,126.447252 40.3024,128.301652 40.3024,128.301652 L40.0648,172.690452 L1.2456,220.673652 L15.5808,232.403252 C15.5808,232.403252 57.6048,184.328852 61.3096,175.624052 C65.0136,166.918452 58.948,103.104852 58.948,103.104852 L34.9464,103.823252" id="Fill-141" fill="#132529"></path>
                <path d="M54.7744,97.2136523 L56.6736,232.035252 L36.9248,232.135252 L27.0144,122.330452 C24.92,120.331252 21.9728,116.905652 22.3784,109.268852 L22.8592,100.396052 L54.7744,97.2136523" id="Fill-142" fill="#132529"></path>
                <path d="M33.9512,180.19642 C33.944,180.190452 33.9824,180.122452 34.0648,179.996052 C34.1672,179.845652 34.2904,179.664052 34.44,179.442452 C34.8032,178.929652 35.2936,178.235252 35.908,177.366452 C37.2208,175.548852 39.056,173.008052 41.2656,169.948852 L41.2328,170.051252 C40.8024,165.371252 40.2808,159.696852 39.7192,153.578452 C39.0024,145.559252 38.4216,138.294452 38.08,133.029652 C37.9056,130.397652 37.7912,128.265652 37.7272,126.791252 C37.7032,126.086452 37.684,125.522452 37.6696,125.093652 C37.6608,124.704852 37.6632,124.500852 37.6776,124.50005 C37.692,124.499252 37.7176,124.702452 37.7536,125.088852 C37.788,125.516052 37.8328,126.078452 37.8896,126.781652 C38.0072,128.298452 38.172,130.412852 38.3736,133.007252 C38.7904,138.264852 39.4176,145.524052 40.1336,153.540852 C40.672,159.681652 41.2208,165.346452 41.5752,170.049652 L41.5792,170.102452 L41.5416,170.152052 C39.2832,173.175252 37.408,175.686452 36.0664,177.482452 C35.4208,178.328052 34.9048,179.004052 34.5232,179.504052 C34.3568,179.712852 34.2208,179.884852 34.108,180.027252 C34.0112,180.143252 33.9584,180.201652 33.9512,180.19642" id="Fill-143" fill="#334F55"></path>
                <path d="M40.0128,124.500052 C39.9952,124.610452 37.6424,124.324052 34.7848,123.721652 C31.9248,123.123252 29.6552,122.439252 29.684,122.330452 C29.7128,122.216052 32.0208,122.717652 34.8704,123.313652 C37.7176,123.913652 40.032,124.383252 40.0128,124.500052" id="Fill-144" fill="#334F55"></path>
                <path d="M53.5392,170.530452 C53.4864,170.657652 51.2712,169.362452 48.2064,169.140052 C45.144,168.876052 42.752,169.806452 42.72,169.672052 C42.7024,169.628852 43.268,169.336852 44.2592,169.070452 C45.2464,168.801652 46.6712,168.604052 48.2392,168.725652 C49.8064,168.852052 51.1816,169.271252 52.1144,169.692852 C53.0512,170.111252 53.5632,170.489652 53.5392,170.530452" id="Fill-145" fill="#334F55"></path>
                <path d="M60.5048,176.777652 C60.596,176.847252 55.0416,184.304052 48.0984,193.429652 C41.1536,202.558452 35.4512,209.900052 35.36,209.830452 C35.268,209.760852 40.8224,202.305652 47.7672,193.176852 C54.7096,184.051252 60.4128,176.708052 60.5048,176.777652" id="Fill-146" fill="#334F55"></path>
                <path d="M57.8296,107.228852 C57.8656,107.240852 57.5944,107.931252 56.7184,108.696052 C55.8696,109.451252 54.3104,110.218452 52.508,110.036852 C50.7064,109.838452 49.3408,108.763252 48.6688,107.846452 C47.9712,106.915252 47.8504,106.184852 47.888,106.180052 C47.9584,106.150452 48.1784,106.827252 48.8976,107.660852 C49.5936,108.486452 50.8944,109.440852 52.5512,109.621652 C54.2088,109.790452 55.68,109.128052 56.5328,108.466452 C57.4104,107.801652 57.7672,107.184852 57.8296,107.228852" id="Fill-147" fill="#334F55"></path>
                <path d="M30.8464,37.8608523 C27.6312,34.8072523 25.6688,30.4720523 25.496,26.0416523 C25.324,21.6104523 26.944,17.1360523 29.912,13.8416523" id="Fill-148" fill="#132529"></path>
                <path d="M19.756,50.4368523 C19.756,50.4368523 15.4648,55.2832523 14.576,73.8208523 C14.576,73.8208523 26.7944,76.1392523 27.0176,75.4728523 C27.2416,74.8056523 19.756,50.4368523 19.756,50.4368523" id="Fill-149" fill="#E0565F"></path>
                <path d="M24.3712,75.4272523 C20.7168,74.9864523 14.576,73.8208523 14.576,73.8208523 C15.4648,55.2832523 19.756,50.4368523 19.756,50.4368523 C19.756,50.4368523 19.756,50.4368523 19.756,50.4376523 C19.4384,50.9288523 19.1576,51.4704523 18.9192,52.0696523 C18.5688,52.9512523 18.412,53.9584523 18.4128,55.0576523 C18.416,57.8416523 19.4296,61.2208523 20.8768,64.6744523 L24.3712,75.4272523" id="Fill-150" fill="#A93B44"></path>
                <path d="M21.7344,104.424052 L59.2448,104.424052 L58.6392,98.5656523 C58.6392,98.5656523 54.3528,76.2720523 54.384,75.9784523 L55.06,74.5584523 C56.8304,70.8376523 56.8904,66.5304523 55.224,62.7624523 L73.5912,56.4816523 L69.0944,41.3256523 C60.76,42.7336523 48.1616,44.3024523 48.1616,44.3024523 L46.2864,44.4600523 C46.2864,44.4600523 33.2808,45.1384523 33.0032,45.1720523 C27.5624,45.8296523 21.2336,46.2472523 18.9192,52.0696523 C17.6824,55.1832523 18.8576,59.8560523 20.8768,64.6744523 L25.6856,79.4720523 C27.6064,87.6056523 24.5416,87.2192523 22.8592,95.4048523 C22.6056,96.6432523 21.7088,103.288852 21.7344,104.424052" id="Fill-151" fill="#E0565F"></path>
                <path d="M59.2448,104.424052 L21.7344,104.424052 C21.7336,104.408852 21.7336,104.392052 21.7336,104.374452 C21.7336,103.108052 22.6088,96.6264523 22.8592,95.4048523 C24.164,89.0576523 26.2992,87.8648523 26.2976,83.8568523 C26.2968,82.6960523 26.1168,81.2992523 25.6856,79.4720523 L20.8768,64.6744523 C19.4296,61.2208523 18.416,57.8416523 18.412797,55.0576523 C18.412,53.9584523 18.5688,52.9512523 18.9192,52.0696523 C21.2336,46.2472523 27.5624,45.8296523 33.0032,45.1720523 C33.2808,45.1384523 46.2864,44.4600523 46.2864,44.4600523 L48.1616,44.3024523 C48.1616,44.3024523 60.76,42.7336523 69.0944,41.3256523 L73.5912,56.4816523 L71.6672,57.1392523 L55.224,62.7624523 C56.0312,64.5880523 56.4328,66.5392523 56.432,68.4896523 C56.4304,70.5656523 55.9728,72.6400523 55.06,74.5584523 L54.384,75.9784523 C54.384,75.9792523 54.384,75.9808523 54.384,75.9824523 C54.3856,76.4456523 58.6392,98.5656523 58.6392,98.5656523 L59.2448,104.424052" id="Fill-152" fill="#A93B44"></path>
                <path d="M73.4193943,56.7272523 C73.428,56.7544523 73.1376,56.8752523 72.6048,57.0696523 C72.0712,57.2640523 71.296,57.5328523 70.3352,57.8560523 C68.4144,58.5048523 65.748,59.3648523 62.804,60.3064523 C59.86,61.2480523 57.2272,62.1840523 55.3584,62.9560523 C54.4208,63.3344523 53.6752,63.6712523 53.1544,63.8936523 C52.6376,64.1256523 52.3456,64.2432523 52.3328,64.2176523 C52.3192,64.1920523 52.5864,64.0264523 53.0824,63.7488523 C53.5832,63.4808523 54.3136,63.1008523 55.2424,62.6856523 C57.092,61.8392523 59.7264,60.8536523 62.6768,59.9096523 C65.6248,58.9672523 68.3024,58.1528523 70.2464,57.5752523 C71.2184,57.2880523 72.008,57.0624523 72.556,56.9152523 C73.104,56.7680523 73.4104,56.7000523 73.4193943,56.7272523" id="Fill-153" fill="#132529"></path>
                <path d="M71.2392,48.6576523 C71.2392,48.7728523 60.1488,48.8664523 46.4712,48.8664523 C32.7896,48.8664523 21.7016,48.7728523 21.7016,48.6576523 C21.7016,48.5432523 32.7896,48.4496523 46.4712,48.4496523 C60.1488,48.4496523 71.2392,48.5432523 71.2392,48.6576523" id="Fill-154" fill="#FAF9F6"></path>
                <path d="M72.3824,56.0248523 C72.3824,56.1400523 60.0408,56.2336523 44.82,56.2336523 C29.5944,56.2336523 17.256,56.1400523 17.256,56.0248523 C17.256,55.9104523 29.5944,55.8168523 44.82,55.8168523 C60.0408,55.8168523 72.3824,55.9104523 72.3824,56.0248523" id="Fill-155" fill="#FAF9F6"></path>
                <path d="M20.3256,64.4088523 C20.3256,64.5232523 19.2968,64.6168523 18.028,64.6168523 C16.7592,64.6168523 15.7312,64.5232523 15.7312,64.4088523 C15.7312,64.2936523 16.7592,64.2008523 18.028,64.2008523 C19.2968,64.2008523 20.3256,64.2936523 20.3256,64.4088523" id="Fill-156" fill="#FAF9F6"></path>
                <path d="M56.3776,64.6624523 C56.3776,64.7776523 48.3064,64.8704523 38.3528,64.8704523 C28.3944,64.8704523 20.3256,64.7776523 20.3256,64.6624523 C20.3256,64.5480523 28.3944,64.4544523 38.3528,64.4544523 C48.3064,64.4544523 56.3776,64.5480523 56.3776,64.6624523" id="Fill-157" fill="#FAF9F6"></path>
                <path d="M55.5832,73.3000523 C55.5832,73.4152523 48.3392,73.5080523 39.4048,73.5080523 C30.468,73.5080523 23.2256,73.4152523 23.2256,73.3000523 C23.2256,73.1848523 30.468,73.0920523 39.4048,73.0920523 C48.3392,73.0920523 55.5832,73.1848523 55.5832,73.3000523" id="Fill-158" fill="#FAF9F6"></path>
                <path d="M55.3488,81.3024523 C55.3488,81.4176523 48.7824,81.5104523 40.6848,81.5104523 C32.5848,81.5104523 26.02,81.4176523 26.02,81.3024523 C26.02,81.1872523 32.5848,81.0944523 40.6848,81.0944523 C48.7824,81.0944523 55.3488,81.1872523 55.3488,81.3024523" id="Fill-159" fill="#FAF9F6"></path>
                <path d="M56.632,87.7800523 C56.632,87.8960523 49.608,87.9888523 40.9456,87.9888523 C32.28,87.9888523 25.2576,87.8960523 25.2576,87.7800523 C25.2576,87.6656523 32.28,87.5720523 40.9456,87.5720523 C49.608,87.5720523 56.632,87.6656523 56.632,87.7800523" id="Fill-160" fill="#FAF9F6"></path>
                <path d="M58.664,96.0368523 C58.664,96.1520523 50.6736,96.2448523 40.8184,96.2448523 C30.96,96.2448523 22.9712,96.1520523 22.9712,96.0368523 C22.9712,95.9216523 30.96,95.8288523 40.8184,95.8288523 C50.6736,95.8288523 58.664,95.9216523 58.664,96.0368523" id="Fill-161" fill="#FAF9F6"></path>
                <path d="M25.4616,78.7800523 C25.4336,78.7888523 25.3168,78.5256523 25.1296,78.0424523 C24.9096,77.4712523 24.6464,76.7896523 24.3408,75.9960523 C23.6808,74.2656523 22.7512,71.8808523 21.7848,69.2208523 C20.8136,66.5624523 20.0168,64.1232523 19.5128,62.3360523 C19.2624,61.4424523 19.0736,60.7152523 18.9664,60.2064523 C18.856,59.6992523 18.808,59.4152523 18.8352,59.4078967 C18.8968,59.3928523 19.22,60.4920523 19.7944,62.2504523 C20.3688,64.0088523 21.2072,66.4240523 22.1768,69.0792523 C23.1416,71.7344523 24.028,74.1368523 24.6184,75.8960523 C24.9144,76.7744523 25.1408,77.4912523 25.2832,77.9904523 C25.424,78.4904523 25.488,78.7712523 25.4616,78.7800523" id="Fill-162" fill="#132529"></path>
            </g>
            <path d="M91.090201,14.1462084 L91.209901,11.9587084 C91.209901,11.9587084 91.496201,10.6476084 91.486401,8.28510841 C91.483601,7.67190841 91.370901,7.06500841 91.163701,6.48820841 C90.912401,5.78890841 90.539301,4.87330841 90.180201,4.43580841 C89.735001,3.89400841 90.180901,3.09320841 90.797601,3.25140841 C91.414301,3.40960841 92.676401,4.87330841 93.247601,7.05730841 C93.818801,9.24130841 95.290201,6.00800841 95.847401,4.83970841 C96.405301,3.67070841 98.299501,0.135708409 98.794401,0.0230084088 C99.520301,-0.142891591 99.831801,0.604008409 99.248001,1.75830841 C98.656501,2.92660841 97.157101,6.49660841 97.788501,6.76120841 C97.788501,6.76120841 98.690801,6.54350841 99.168201,6.70240841 C99.327101,6.75490841 99.439101,6.85010841 99.454501,7.00900841 C99.516801,7.64460841 99.658901,8.01420841 99.658901,8.01420841 C99.658901,8.01420841 100.527601,7.73560841 100.745301,8.10450841 C100.963001,8.47340841 101.028801,9.32180841 101.028801,9.32180841 C101.028801,9.32180841 101.689601,9.02850841 102.036801,9.25460841 C102.789301,9.74390841 101.979401,10.7729084 101.979401,10.7729084 C100.139801,13.6814084 96.147001,18.1145084 96.147001,18.1145084 L91.057301,14.0195084" id="Fill-122" fill="#F1AD92"></path>
        </g>
        <g id="Group-9" transform="translate(47.000000, 117.000000)">
            <circle id="Oval" stroke="#CF174D" stroke-width="0.64" fill="#FAF9F6" cx="16" cy="16" r="16"></circle>
            <g id="flash" transform="translate(9.600000, 5.760000)" fill="#EC1066" fill-rule="nonzero">
                <path d="M12.62,8.44 L7.65140624,8.44 L11.9415625,0.89656248 C12.0471875,0.71093752 12.0459375,0.48296876 11.9385938,0.29828124 C11.83125,0.11359376 11.6335938,3.55271368e-17 11.42,3.55271368e-17 L4.22,3.55271368e-17 C3.96156248,3.55271368e-17 3.73203124,0.165625 3.650625,0.41093752 L0.050625,11.2507812 C-0.01015624,11.43375 0.020625,11.6346875 0.13343752,11.7910938 C0.24625,11.9473438 0.42718752,12.04 0.62,12.04 L5.71171876,12.04 L2.468125,19.6445312 C2.35265624,19.9153125 2.45046876,20.2296875 2.69921876,20.3870312 C2.94796876,20.544375 3.27406248,20.4979688 3.46921876,20.2778125 L13.0692188,9.43781248 C13.4110938,9.05156248 13.1364062,8.44 12.62,8.44 L12.62,8.44 Z" id="Shape"></path>
            </g>
        </g>
    </g>
</svg>