<?xml version="1.0" encoding="UTF-8"?>
<svg width="400px" height="400px" viewBox="0 0 400 400" version="1.1" xmlns="http://www.w3.org/2000/svg" xmlns:xlink="http://www.w3.org/1999/xlink">
    <title>icon2</title>
    <defs>
        <polygon id="path-1" points="0 -2.84217094e-14 96 -2.84217094e-14 96 11.163762 96 193.537002 0 193.537002"></polygon>
    </defs>
    <g id="icon2" stroke="none" stroke-width="1" fill="none" fill-rule="evenodd">
        <g id="Group" transform="translate(9.000000, 81.000000)">
            <path d="M354.764412,233.902251 L27.5356806,233.902251 C20.4760372,233.902251 14.7528558,228.17907 14.7528558,221.119426 L14.7528558,13.3860186 C14.7528558,6.32637519 20.4760372,0.603193798 27.5356806,0.603193798 L354.764412,0.603193798 C361.823178,0.603193798 367.547237,6.32637519 367.547237,13.3860186 L367.547237,221.119426 C367.547237,228.17907 361.823178,233.902251 354.764412,233.902251" id="Fill-34" fill="#132529"></path>
            <path d="M366.607414,237.060443 L15.6172124,237.060443 C6.99207442,237.060443 0,230.068369 0,221.443231 L0,216.647588 L382.225504,216.647588 L382.225504,221.443231 C382.225504,230.068369 375.232552,237.060443 366.607414,237.060443" id="Fill-35" fill="#132529"></path>
            <polygon id="Fill-36" fill="#334F55" points="24.223045 206.889572 357.090716 206.889572 357.090716 9.87155349 24.223045 9.87155349"></polygon>
            <polyline id="Fill-37" fill="#334F55" points="156.372198 216.647588 161.115191 224.191622 227.855805 224.191622 232.260074 216.647588 156.372198 216.647588"></polyline>
            <path d="M348.047002,206.259513 L33.9512248,206.259513 C32.3646698,206.259513 31.0791039,204.97307 31.0791039,203.387392 L31.0791039,19.4136992 C31.0791039,17.8280217 32.3646698,16.5415783 33.9512248,16.5415783 L348.047002,16.5415783 C349.633557,16.5415783 350.919122,17.8280217 350.919122,19.4136992 L350.919122,203.38827 C350.919122,204.97307 349.633557,206.259513 348.047002,206.259513" id="Fill-38" fill="#E4E4DE"></path>
            <polygon id="Fill-39" fill="#FAF9F6" points="31.0791039 206.259513 350.919122 206.259513 350.919122 30.4423628 31.0791039 30.4423628"></polygon>
            <path d="M57.3107907,23.8679876 C57.3107907,25.2790388 56.1673829,26.423324 54.7563318,26.423324 C53.3452806,26.423324 52.2027504,25.2790388 52.2027504,23.8679876 C52.2027504,22.457814 53.3452806,21.3144062 54.7563318,21.3144062 C56.1673829,21.3144062 57.3107907,22.457814 57.3107907,23.8679876" id="Fill-40" fill="#132529"></path>
            <path d="M49.2604279,23.8679876 C49.2604279,25.2790388 48.1170202,26.423324 46.705969,26.423324 C45.2949178,26.423324 44.1515101,25.2790388 44.1515101,23.8679876 C44.1515101,22.457814 45.2949178,21.3144062 46.705969,21.3144062 C48.1170202,21.3144062 49.2604279,22.457814 49.2604279,23.8679876" id="Fill-42" fill="#132529"></path>
            <path d="M364.515408,216.64671 C364.515408,216.77395 286.211721,216.875743 189.642468,216.875743 C93.0389922,216.875743 14.7528558,216.77395 14.7528558,216.64671 C14.7528558,216.520347 93.0389922,216.418555 189.642468,216.418555 C286.211721,216.418555 364.515408,216.520347 364.515408,216.64671" id="Fill-43" fill="#334F55"></path>
        </g>
        <g id="Group-2" transform="translate(119.000000, 127.000000)">
            <path d="M1,34.839 L34.839,34.839 L34.839,1 L1,1 L1,34.839 Z M-2.84217094e-14,35.839 L35.839,35.839 L35.839,-2.84217094e-14 L-2.84217094e-14,-2.84217094e-14 L-2.84217094e-14,35.839 Z" id="Fill-68" fill="#E0565F"></path>
            <path d="M162.482,8.655 C162.482,8.799 137.535,8.915 106.769,8.915 C75.993,8.915 51.051,8.799 51.051,8.655 C51.051,8.511 75.993,8.394 106.769,8.394 C137.535,8.394 162.482,8.511 162.482,8.655" id="Fill-70" fill="#132529"></path>
            <path d="M162.482,16.102 C162.482,16.246 137.535,16.362 106.769,16.362 C75.993,16.362 51.051,16.246 51.051,16.102 C51.051,15.958 75.993,15.842 106.769,15.842 C137.535,15.842 162.482,15.958 162.482,16.102" id="Fill-71" fill="#132529"></path>
            <path d="M162.482,23.55 C162.482,23.693 137.535,23.809 106.769,23.809 C75.993,23.809 51.051,23.693 51.051,23.55 C51.051,23.405 75.993,23.289 106.769,23.289 C137.535,23.289 162.482,23.405 162.482,23.55" id="Fill-72" fill="#132529"></path>
            <path d="M162.482,30.997 C162.482,31.14 137.535,31.257 106.769,31.257 C75.993,31.257 51.051,31.14 51.051,30.997 C51.051,30.852 75.993,30.736 106.769,30.736 C137.535,30.736 162.482,30.852 162.482,30.997" id="Fill-73" fill="#132529"></path>
        </g>
        <g id="Group-2-Copy" transform="translate(119.000000, 177.000000)">
            <path d="M1,34.839 L34.839,34.839 L34.839,1 L1,1 L1,34.839 Z M-2.84217094e-14,35.839 L35.839,35.839 L35.839,-2.84217094e-14 L-2.84217094e-14,-2.84217094e-14 L-2.84217094e-14,35.839 Z" id="Fill-68" fill="#E0565F"></path>
            <path d="M162.482,8.655 C162.482,8.799 137.535,8.915 106.769,8.915 C75.993,8.915 51.051,8.799 51.051,8.655 C51.051,8.511 75.993,8.394 106.769,8.394 C137.535,8.394 162.482,8.511 162.482,8.655" id="Fill-70" fill="#132529"></path>
            <path d="M162.482,16.102 C162.482,16.246 137.535,16.362 106.769,16.362 C75.993,16.362 51.051,16.246 51.051,16.102 C51.051,15.958 75.993,15.842 106.769,15.842 C137.535,15.842 162.482,15.958 162.482,16.102" id="Fill-71" fill="#132529"></path>
            <path d="M162.482,23.55 C162.482,23.693 137.535,23.809 106.769,23.809 C75.993,23.809 51.051,23.693 51.051,23.55 C51.051,23.405 75.993,23.289 106.769,23.289 C137.535,23.289 162.482,23.405 162.482,23.55" id="Fill-72" fill="#132529"></path>
            <path d="M162.482,30.997 C162.482,31.14 137.535,31.257 106.769,31.257 C75.993,31.257 51.051,31.14 51.051,30.997 C51.051,30.852 75.993,30.736 106.769,30.736 C137.535,30.736 162.482,30.852 162.482,30.997" id="Fill-73" fill="#132529"></path>
        </g>
        <g id="Brand/Insider-Heart" transform="translate(129.000000, 124.000000)" fill="#EC1066">
            <g id="o/Brand/Insider-Heart/Flat" transform="translate(0.000000, 2.000000)">
                <path d="M23.1286008,9.91075574 C25.1644346,11.9215893 25.2294559,15.292519 23.1720789,17.2819104 L19.7257521,20.7437231 L14.1905168,26.3037112 C13.2281227,27.2607358 11.4304393,27.2145075 10.4576653,26.2679089 L4.95924932,20.7451001 L4.96372017,20.7406093 L1.51331419,17.2819104 C-0.54386697,15.292519 -0.478845631,11.9215893 1.55698816,9.91075574 C3.57930849,7.8961846 6.89441755,7.9107416 8.93416829,9.90446082 L12.3426966,13.3287006 L15.7514207,9.90446082 C17.7911714,7.9107416 21.1062805,7.8961846 23.1286008,9.91075574 Z M30.2682614,2.39339031 L30.4431098,2.56399385 C32.4787477,4.57463067 32.5439649,7.94556038 30.4865879,9.93514856 L27.2504053,13.1858846 C27.1342678,13.3023407 26.9460585,13.3023407 26.8299209,13.1856879 C26.7811549,13.1367056 26.7517778,13.0719859 26.7455107,13.0029385 L26.7419855,12.9649723 L26.7419855,12.9649723 C26.5778653,11.2370167 25.8015262,9.63141866 24.6013733,8.43144952 C23.4069,7.22597232 21.8083934,6.4461891 20.087874,6.28134088 C20.0753397,6.28016058 20.0628055,6.27898028 20.0500754,6.27779999 C19.981333,6.27150507 19.9168992,6.24219434 19.8681332,6.19301528 C19.7519957,6.07636254 19.7519957,5.88731822 19.8681332,5.7708622 L23.1045116,2.52012613 C25.0285277,0.512664871 28.2505066,0.517125593 30.2682614,2.39339031 Z" id="Combined-Shape"></path>
            </g>
        </g>
        <g id="Brand/Insider-Heart" transform="translate(129.000000, 174.000000)" fill="#EC1066">
            <g id="o/Brand/Insider-Heart/Flat" transform="translate(0.000000, 2.000000)">
                <path d="M23.1286008,9.91075574 C25.1644346,11.9215893 25.2294559,15.292519 23.1720789,17.2819104 L19.7257521,20.7437231 L14.1905168,26.3037112 C13.2281227,27.2607358 11.4304393,27.2145075 10.4576653,26.2679089 L4.95924932,20.7451001 L4.96372017,20.7406093 L1.51331419,17.2819104 C-0.54386697,15.292519 -0.478845631,11.9215893 1.55698816,9.91075574 C3.57930849,7.8961846 6.89441755,7.9107416 8.93416829,9.90446082 L12.3426966,13.3287006 L15.7514207,9.90446082 C17.7911714,7.9107416 21.1062805,7.8961846 23.1286008,9.91075574 Z M30.2682614,2.39339031 L30.4431098,2.56399385 C32.4787477,4.57463067 32.5439649,7.94556038 30.4865879,9.93514856 L27.2504053,13.1858846 C27.1342678,13.3023407 26.9460585,13.3023407 26.8299209,13.1856879 C26.7811549,13.1367056 26.7517778,13.0719859 26.7455107,13.0029385 L26.7419855,12.9649723 L26.7419855,12.9649723 C26.5778653,11.2370167 25.8015262,9.63141866 24.6013733,8.43144952 C23.4069,7.22597232 21.8083934,6.4461891 20.087874,6.28134088 C20.0753397,6.28016058 20.0628055,6.27898028 20.0500754,6.27779999 C19.981333,6.27150507 19.9168992,6.24219434 19.8681332,6.19301528 C19.7519957,6.07636254 19.7519957,5.88731822 19.8681332,5.7708622 L23.1045116,2.52012613 C25.0285277,0.512664871 28.2505066,0.517125593 30.2682614,2.39339031 Z" id="Combined-Shape"></path>
            </g>
        </g>
        <g id="Group-9" transform="translate(33.000000, 150.000000)">
            <path d="M100.7097,29.5420084 C100.7097,29.7289084 98.6699,29.8808084 96.1541,29.8808084 C93.6376,29.8808084 91.5978,29.7289084 91.5978,29.5420084 C91.5978,29.3544084 93.6376,29.2032084 96.1541,29.2032084 C98.6699,29.2032084 100.7097,29.3544084 100.7097,29.5420084" id="Fill-28" fill="#1A282B"></path>
            <path d="M62.1572,230.690618 L62.1572,227.467688 L49.2016,227.429308 L49.0945,232.248259 L49.8974,232.274781 C53.4709,232.37775 68.0834,232.577447 70.4781,232.24701 C73.1486,231.878506 62.1572,230.690618 62.1572,230.690618" id="Fill-114" fill="#DE4D59"></path>
            <path d="M70.875,232.636508 C70.875,232.758308 66.0296,232.857008 60.0523,232.857008 C54.0743,232.857008 49.2289,232.758308 49.2289,232.636508 C49.2289,232.515408 54.0743,232.416008 60.0523,232.416008 C66.0296,232.416008 70.875,232.515408 70.875,232.636508" id="Fill-116" fill="#1A282B"></path>
            <path d="M62.4757,231.282008 C62.3693,231.226008 62.461,230.843808 62.7389,230.467908 C63.0168,230.089908 63.3556,229.889708 63.4396,229.974408 C63.5271,230.061908 63.3493,230.379708 63.0938,230.728308 C62.8369,231.076208 62.5842,231.340108 62.4757,231.282008" id="Fill-117" fill="#1A282B"></path>
            <path d="M63.3024,231.758708 C63.1897,231.716008 63.2478,231.288308 63.5033,230.838208 C63.756,230.385308 64.0934,230.114408 64.1879,230.189308 C64.2845,230.264908 64.1214,230.633808 63.8862,231.053808 C63.6489,231.472408 63.4172,231.803508 63.3024,231.758708" id="Fill-118" fill="#1A282B"></path>
            <path d="M53.1321,232.588208 C53.0817,232.623208 52.8892,232.433508 52.6085,232.115008 C52.3271,231.800008 51.9568,231.353408 51.4717,230.977508 C50.9915,230.601608 50.4623,230.413308 50.071,230.365008 C49.6769,230.312508 49.4179,230.373408 49.3962,230.309708 C49.3738,230.262108 49.6139,230.082208 50.0808,230.053508 C50.5407,230.022708 51.191,230.197708 51.7405,230.628208 C52.2879,231.054508 52.6365,231.564108 52.8598,231.931608 C53.081,232.304008 53.1811,232.554608 53.1321,232.588208" id="Fill-119" fill="#1A282B"></path>
            <path d="M62.5149,229.923308 C62.5786,230.025508 62.356,230.276808 61.9864,230.411908 C61.6168,230.549108 61.285,230.500808 61.2668,230.381808 C61.2479,230.260708 61.5104,230.119308 61.8345,229.998908 C62.1593,229.879908 62.4512,229.819008 62.5149,229.923308" id="Fill-120" fill="#1A282B"></path>
            <path d="M62.3119,229.224708 C62.3238,229.345808 61.9787,229.449408 61.5412,229.455708 C61.1037,229.461308 60.7558,229.366808 60.7642,229.245708 C60.7726,229.123908 61.1177,229.021008 61.5356,229.015408 C61.9521,229.009808 62.3,229.103608 62.3119,229.224708" id="Fill-121" fill="#1A282B"></path>
            <path d="M99.82,14.1462084 L99.9397,11.9587084 C99.9397,11.9587084 100.226,10.6476084 100.2162,8.28510841 C100.2134,7.67190841 100.1007,7.06500841 99.8935,6.48820841 C99.6422,5.78890841 99.2691,4.87330841 98.91,4.43580841 C98.4648,3.89400841 98.9107,3.09320841 99.5274,3.25140841 C100.1441,3.40960841 101.4062,4.87330841 101.9774,7.05730841 C102.5486,9.24130841 104.02,6.00800841 104.5772,4.83970841 C105.1351,3.67070841 107.0293,0.135708409 107.5242,0.0230084088 C108.2501,-0.142891591 108.5616,0.604008409 107.9778,1.75830841 C107.3863,2.92660841 105.8869,6.49660841 106.5183,6.76120841 C106.5183,6.76120841 107.4206,6.54350841 107.898,6.70240841 C108.0569,6.75490841 108.1689,6.85010841 108.1843,7.00900841 C108.2466,7.64460841 108.3887,8.01420841 108.3887,8.01420841 C108.3887,8.01420841 109.2574,7.73560841 109.4751,8.10450841 C109.6928,8.47340841 109.7586,9.32180841 109.7586,9.32180841 C109.7586,9.32180841 110.4194,9.02850841 110.7666,9.25460841 C111.5191,9.74390841 110.7092,10.7729084 110.7092,10.7729084 C108.8696,13.6814084 104.8768,18.1145084 104.8768,18.1145084 L99.7871,14.0195084" id="Fill-122" fill="#D99476"></path>
            <path d="M37.5851,14.0020084 L37.4997,41.9222084 L49.4781,42.4941084 L49.8239,35.7020084 C49.8239,35.7020084 54.0785,36.5469084 55.1768,32.5954084 C55.8775,30.0719084 55.7025,10.5650084 55.7025,10.5650084 L37.5851,14.0020084" id="Fill-123" fill="#D99476"></path>
            <path d="M55.0151,6.23620841 C51.3709,7.41710841 50.4917,7.81050841 48.8579,7.94140841 C47.2906,8.06740841 36.1284,8.07650841 35.1162,14.3338084 C34.9979,14.0762084 34.8782,13.7675084 34.8005,13.4140084 C34.5632,12.4270084 34.7676,11.5940084 34.6633,11.5660084 C34.5807,11.5191084 34.1859,12.3955084 34.4456,13.4959084 C34.4778,13.6394084 34.5184,13.7738084 34.5646,13.8998084 C34.4925,13.8249084 34.4218,13.7500084 34.3399,13.6786084 C33.859,13.2628084 33.3235,13.0220084 32.9238,12.9254084 C32.522,12.8267084 32.2644,12.8484084 32.2588,12.8925084 C32.2378,12.9989084 33.2206,13.1739084 34.1012,13.9537084 C34.5422,14.3275084 34.8404,14.7454084 35.0427,15.0709084 L35.0371,15.1549084 C35.0371,15.1549084 32.6494,14.1056084 33.278,18.4337084 C33.9059,22.7618084 36.7332,26.4340084 37.079,33.5159084 C37.079,33.5159084 46.9735,34.6961084 48.7326,30.8930084 L50.211,26.5292084 C50.211,26.5292084 47.8303,26.1421084 48.1075,24.2276084 C48.4911,21.5788084 50.5148,21.5109084 52.0226,22.6918084 L53.7586,18.0396084 C53.7586,18.0396084 58.156,15.1549084 58.4073,13.3188084 C58.6586,11.4827084 58.6586,5.05600841 55.0151,6.23620841" id="Fill-124" fill="#1A282B"></path>
            <polyline id="Fill-125" fill="#DE4D59" points="4.4499 224.403108 2.6943 232.213008 14.7882 233.707508 15.2208 225.969708 4.4499 224.403108"></polyline>
            <path d="M9.9092,224.786008 C10.0086,224.802108 9.8308,226.407908 9.5116,228.371408 C9.1924,230.336308 8.8529,231.915508 8.7535,231.898708 C8.6541,231.883308 8.8319,230.277508 9.1518,228.312608 C9.471,226.349108 9.8098,224.769908 9.9092,224.786008" id="Fill-126" fill="#1A282B"></path>
            <path d="M14.8359096,232.857008 C14.8246,232.908108 14.1582,232.808008 13.0844,232.637208 C11.8804,232.442608 10.4594,232.211608 8.8886,231.956808 C7.2499,231.684508 5.7694,231.408708 4.7047,231.170708 C3.64,230.934108 2.9911,230.745108 3.0016,230.697508 C3.0128,230.646408 3.6792,230.746508 4.753,230.917308 C5.9563,231.112608 7.378,231.342908 8.9488,231.597708 C10.5875,231.870008 12.068,232.146508 13.1327,232.384508 C14.1974,232.620408 14.8456,232.809408 14.8359096,232.857008" id="Fill-127" fill="#1A282B"></path>
            <path d="M22.3776,101.616108 L-4.26325641e-14,227.390008 L19.1681,228.477108 C19.1681,228.477108 39.5255,120.061108 42.5138,119.790208 C43.7661,119.676808 44.268,227.619608 45.2739,227.390008 C46.2798,227.161108 65.9813,227.740008 65.9813,227.740008 L63.3626,100.014508 L22.3776,101.616108" id="Fill-128" fill="#1A282B"></path>
            <path d="M50.693399,117.149108 C50.7143,117.247808 47.3928,118.037408 43.2754,118.911708 C39.1566,119.787408 35.8015,120.416008 35.7804009,120.318008 C35.7595,120.219308 39.0803,119.430408 43.1991,118.555408 C47.3172,117.680408 50.6723,117.051108 50.693399,117.149108" id="Fill-129" fill="#365158"></path>
            <path d="M20.5667014,221.091408 C20.5632,221.191508 16.2316,221.139008 10.8913,220.974508 C5.5503,220.808608 1.2243,220.593008 1.22709864,220.492208 C1.2306,220.392108 5.5615,220.444608 10.9025,220.609808 C16.2428,220.775708 20.5695,220.990608 20.5667014,221.091408" id="Fill-130" fill="#365158"></path>
            <path d="M65.8364013,221.101208 C65.8336,221.202008 61.1562,221.144608 55.391,220.972408 C49.6237,220.800208 44.9526,220.579008 44.9553987,220.478908 C44.9582,220.378108 49.6342,220.435508 55.4015,220.607708 C61.1674,220.779908 65.8392,221.001108 65.8364013,221.101208" id="Fill-131" fill="#365158"></path>
            <path d="M31.9417,120.631594 C32.0397,120.652608 27.2986,143.090408 21.3521,170.740408 C15.4042,198.400208 10.5042,220.798108 10.4055,220.777123 C10.3068,220.755408 15.0479,198.323208 20.9958,170.664108 C26.9423,143.014108 31.843,120.610608 31.9417,120.631594" id="Fill-132" fill="#365158"></path>
            <path d="M55.4785,220.790408 C55.4715,220.790408 55.4631,220.702208 55.4512,220.530708 C55.4407,220.341008 55.4267,220.089008 55.4092,219.768408 C55.3798,219.077508 55.3371,218.093308 55.2832,216.836808 C55.1782,214.290208 55.0536,210.604708 54.9206,206.049808 C54.6546,196.940708 54.3942,184.352608 54.3256,170.447808 C54.2605,156.538108 54.4005,143.947208 54.5783,134.835308 C54.6672,130.279708 54.7568,126.593508 54.8366,124.046208 C54.8786,122.789708 54.9122,121.805508 54.9346,121.113908 C54.9493,120.794008 54.9612,120.541308 54.9696,120.351608 C54.9794,120.180108 54.9878,120.092604 54.9941,120.092604 C55.0004,120.092604 55.0046,120.180808 55.0067,120.352308 C55.0074,120.542708 55.0074,120.795408 55.0081,121.116008 C55.0018,121.807608 54.9913,122.791808 54.9787,124.049708 C54.9444,126.618708 54.8961,130.300008 54.8359,134.839508 C54.7239,143.951408 54.6252,156.539508 54.6903,170.446408 C54.7589,184.348408 54.9787,196.933708 55.1782,206.044208 C55.2818,210.583008 55.3665,214.263608 55.4246,216.832608 C55.4498,218.089808 55.4687,219.074008 55.4827,219.766308 C55.4848,220.086908 55.4869,220.339608 55.4883,220.530008 C55.4876,220.701508 55.4841,220.790408 55.4785,220.790408" id="Fill-133" fill="#365158"></path>
            <path d="M97.8418,13.5155084 C97.8418,13.5155084 83.0018,35.9008084 81.7446,37.1587084 C80.4867,38.4159084 57.2453,40.8589084 57.2446,40.8589084 C50.1095,39.2482084 27.0382,39.7795084 22.68,42.9890084 C18.9098,45.0750084 14.3276,49.9568084 11.9686,61.5607084 C7.9443,81.3553084 3.92,88.6493084 11.9686,91.4164084 C15.6849,92.6939084 19.1849,93.3806084 21.8778,93.7509084 L21.6552,102.710908 L63.3731,100.118108 L61.2367,77.8686084 C60.9861,71.6218084 60.8699,65.1104084 60.7152,59.3438084 C63.3248,58.3547084 87.5861,49.1721084 89.2521,48.9341084 C91.0126,48.6821084 106.8963,19.3003084 106.8963,19.3003084 C107.4003,15.7793084 97.8418,13.5155084 97.8418,13.5155084" id="Fill-134" fill="#00534C"></path>
            <path d="M23.0174,54.0294079 C23.1182,54.0322084 22.8949,64.9333084 22.519,78.3747084 C22.1424,91.8203084 21.756,102.714408 21.6552,102.711609 C21.5551,102.709508 21.7784,91.8098084 22.1543,78.3642084 C22.5302,64.9235084 22.9173,54.0266084 23.0174,54.0294079" id="Fill-135" fill="#1A282B"></path>
            <path d="M83.8334,42.1980084 C83.7368,42.2526084 83.1236,41.1648084 82.6182,39.7417084 C82.1135,38.3214084 81.6655,37.2035084 81.7446,37.1587084 C81.8412,37.1034084 82.4551,38.1919084 82.9598,39.6143084 C83.4645,41.0346084 83.9125,42.1525084 83.8334,42.1980084" id="Fill-136" fill="#1A282B"></path>
            <path d="M85.4973,40.2933084 C85.4308,40.3570084 84.581,39.6899084 83.5086,38.8688084 C82.4341,38.0477084 81.6662,37.2350084 81.7446,37.1587084 C81.8111,37.0950084 82.6609,37.7614084 83.734,38.5825084 C84.8078,39.4043084 85.5764,40.2163084 85.4973,40.2933084" id="Fill-137" fill="#1A282B"></path>
            <path d="M106.092,21.0587084 C106.0598,21.1014084 105.5369,20.7549084 104.6857,20.2124084 C103.8352,19.6699084 102.6466,18.9419084 101.2921,18.2153084 C99.9355,17.4908084 98.6713,16.9049084 97.748,16.4982084 C96.8247,16.0908084 96.2465,15.8479084 96.2647,15.7968084 C96.2801,15.7527084 96.8898,15.9102084 97.8446,16.2595084 C98.7994,16.6081084 100.0944,17.1618084 101.4643,17.8940084 C102.8328,18.6276084 104.0116,19.3983084 104.8313,19.9996084 C105.651,20.6009084 106.12,21.0209084 106.092,21.0587084" id="Fill-138" fill="#1A282B"></path>
            <path d="M22.5176,78.4818084 C22.5029,78.5700084 21.3465,78.5028084 19.9374,78.2172084 C18.5276,77.9295084 17.4447,77.4808084 17.4762,77.3898084 C17.5091,77.2904084 18.6242,77.5774084 20.0116,77.8609084 C21.3976,78.1409084 22.5372,78.3719084 22.5176,78.4818084" id="Fill-139" fill="#1A282B"></path>
            <path d="M61.0547404,40.5425084 C61.0617,40.6132084 60.1594,40.6118084 58.8175,41.0682084 C57.4903,41.5078084 55.7179,42.5179084 54.4635,44.2707084 C53.214,46.0270084 52.8367,48.0318084 52.8521,49.4304084 C52.8577,50.8472084 53.1524,51.6998084 53.0831,51.7166084 C53.0628,51.7236084 52.9711,51.5192084 52.8584,51.1307084 C52.7443,50.7422084 52.6309,50.1626084 52.5945,49.4367084 C52.5112,47.9989084 52.8591,45.8982084 54.1667,44.0586084 C55.4799,42.2239084 57.3531,41.2110084 58.7391,40.8225084 C59.4377,40.6202084 60.0229,40.5390084 60.4268,40.5201084 C60.8314,40.5005084 61.0547404,40.5208084 61.0547404,40.5425084" id="Fill-140" fill="#1A282B"></path>
            <path d="M63.3731025,100.117408 C63.3787,100.218208 54.0442,100.880408 42.5264,101.596508 C31.0044,102.311908 21.6615,102.811008 21.6551968,102.710908 C21.6489,102.610108 30.9813,101.948608 42.504,101.231808 C54.0218,100.516408 63.3661,100.018008 63.3731025,100.117408" id="Fill-141" fill="#1A282B"></path>
            <path d="M46.7551,40.103576 C46.767,40.1008084 46.809,40.2793084 46.8783,40.6223084 C46.9091,40.7945084 46.9623,41.0059084 46.9931,41.2600084 C47.0169,41.5211084 47.0435,41.8151084 47.0743,42.1413084 C47.159,43.4671084 47.0078,45.4355084 46.1706,47.6832084 C45.3068,49.8847084 43.7073,52.4362084 40.9738,54.1204084 C40.6448,54.3451084 40.2766,54.5117084 39.9105,54.6909084 C39.5486,54.8820084 39.1608,55.0171084 38.7737,55.1627084 C37.9967,55.4441084 37.1917,55.6807084 36.3944,55.9635084 C35.5978,56.2442084 34.8047,56.5753084 34.0844,57.0443084 C33.3732,57.5238084 32.7362,58.1307084 32.1895,58.8321084 C31.0898,60.2370084 30.3387,61.8484084 29.4315,63.3037084 C28.5488,64.7646084 27.4365,66.1065084 26.005,66.8702084 C24.5777,67.6283084 23.0041,67.8082084 21.6027,67.6850084 C20.1915,67.5590084 18.9168,67.1474084 17.8479,66.6133084 C15.6905,65.5577084 14.2674,64.1990084 13.3252,63.2778084 C12.8548,62.8095084 12.5055,62.4308084 12.2696,62.1732084 C12.0365,61.9135084 11.9182,61.7728084 11.9273,61.7637084 C11.9364,61.7553084 12.0722,61.8785084 12.3221,62.1221084 C12.5993,62.3867084 12.9654,62.7374084 13.4239,63.1756084 C14.3927,64.0632084 15.8277,65.3750084 17.9599,66.3809084 C19.0148,66.8898084 20.2587,67.2741084 21.6272,67.3840084 C22.9873,67.4911084 24.4958,67.3028084 25.8461,66.5748084 C27.1964,65.8426084 28.2597,64.5609084 29.1277,63.1168084 C30.0195,61.6790084 30.7685,60.0599084 31.9025,58.6074084 C32.4667,57.8829084 33.1359,57.2438084 33.8863,56.7405084 C34.6451,56.2484084 35.4669,55.9096084 36.2754,55.6268084 C37.0839,55.3580084 37.8784,55.0941084 38.6561,54.8344084 C39.0369,54.6937084 39.4184,54.5628084 39.767,54.3801084 C40.1226,54.2079084 40.4796,54.0497084 40.7995,53.8327084 C43.4588,52.2178084 45.0527,49.7405084 45.9305,47.5887084 C46.7831,45.3935084 46.9728,43.4594084 46.9322,42.1469084 C46.9147,41.8235084 46.8993,41.5316084 46.8853,41.2719084 C46.8657,41.0185084 46.8244,40.8071084 46.8055,40.6342084 C46.7607,40.2891084 46.7425,40.1057084 46.7551,40.103576" id="Fill-142" fill="#1A282B"></path>
            <path d="M62.5527,91.5732084 C62.5415,91.5879084 62.3931,91.4661084 62.0865,91.2757084 C61.7827,91.0846084 61.3109,90.8221084 60.6431,90.6842084 C59.9774,90.5379084 59.1325,90.5365084 58.1511,90.4616084 C57.1781,90.3832084 56.0644,90.3755084 54.8275,90.3307084 C53.5955,90.2838084 52.2207,90.1788084 50.8088,89.7672084 C49.3997,89.3668084 47.9479,88.7137084 46.606,87.7463084 C45.2683,86.7810084 44.0405,85.4909084 43.1711,83.9068084 C42.3024,82.3297084 41.7683,80.4803084 41.7627,78.5623084 C41.7438,76.6471084 42.2793,74.7676084 43.2663,73.2500084 C44.2386,71.7247084 45.5903,70.5270084 47.0792,69.7892084 C47.8226,69.4175084 48.6031,69.1704084 49.3759,69.0234084 C50.1508,68.8848084 50.911,68.8484084 51.6397,68.8372084 C53.0978,68.8225084 54.4446,68.8869084 55.6549,68.7182084 C58.1105,68.4641084 59.7681,67.0207084 60.3358,65.8020084 C60.6438,65.1937084 60.7236,64.6575084 60.7705,64.3033084 C60.8125,63.9449084 60.8069,63.7531084 60.8258,63.7531084 C60.8321,63.7531084 60.8377,63.8007084 60.8433,63.8938084 C60.8489,63.9876084 60.8559,64.1269084 60.8433,64.3096084 C60.8195,64.6708084 60.7621,65.2245084 60.4639,65.8629084 C60.1769,66.5020084 59.6337,67.2062084 58.8245,67.7893084 C58.0237,68.3885084 56.9254,68.8022084 55.6906,68.9737084 C54.453,69.1627084 53.0866,69.1116084 51.646,69.1396084 C50.925,69.1564084 50.1809,69.1991084 49.434,69.3384084 C48.6899,69.4861084 47.943,69.7276084 47.229,70.0895084 C45.8003,70.8077084 44.5011,71.9690084 43.568,73.4418084 C42.6209,74.9069084 42.1099,76.7087084 42.1274,78.5602084 C42.1323,80.4124084 42.6468,82.2051084 43.484,83.7346084 C44.3212,85.2697084 45.5056,86.5269084 46.8041,87.4740084 C48.1047,88.4239084 49.5173,89.0728084 50.8921,89.4774084 C52.269,89.8918084 53.6123,90.0101084 54.8401,90.0731084 C56.0686,90.1347084 57.1886,90.1606084 58.1686,90.2586084 C59.1381,90.3524084 59.9921,90.3741084 60.6746,90.5463084 C61.3592,90.7101084 61.8331,91.0020084 62.1278,91.2141084 C62.2769,91.3198084 62.3833,91.4101084 62.4526,91.4731084 C62.5226,91.5347084 62.5562,91.5690084 62.5527,91.5732084" id="Fill-143" fill="#1A282B"></path>
            <path d="M39.3666,101.826133 C39.3162,101.824008 39.4688,101.279408 39.2854,100.326008 C39.1118,99.4041084 38.5518,97.9936084 37.1301,97.0094084 C36.7759,96.7742084 36.3776,96.5705084 35.938,96.4277084 C35.4942,96.2912084 35.0119,96.2135084 34.5065,96.1631084 C33.4999,96.0532084 32.3743,96.0889084 31.2277,95.7186084 C30.6607,95.5282084 30.1098,95.2090084 29.6569,94.7694084 C29.2068,94.3256084 28.8505,93.7803084 28.5908,93.1867084 C28.0777,91.9946084 27.9405,90.6142084 28.1344,89.2723084 C28.525,86.5801084 29.7066,84.2617084 29.9138,81.9804084 C30.037,80.8513084 29.9649,79.7537084 29.6282,78.8101084 C29.2999,77.8616084 28.6923,77.1147084 28.0035,76.6142084 C26.6063,75.5985084 25.0999,75.4984084 24.1668,75.6321084 C23.2092,75.7735084 22.7388,76.0822084 22.7213,76.0381084 C22.7213,76.0381084 23.1644,75.6825084 24.1444,75.4921084 C25.0985,75.3122084 26.6651,75.3668084 28.1547,76.4056084 C28.8869,76.9138084 29.5554,77.7104084 29.9124,78.7079084 C30.282,79.7012084 30.366,80.8506084 30.2477,82.0154084 C30.0461,84.3744084 28.8666,86.7173084 28.4956,89.3213084 C28.3087,90.6149084 28.441,91.9197084 28.9184,93.0453084 C29.1606,93.6039084 29.4903,94.1107084 29.8998,94.5202084 C30.3142,94.9262084 30.8098,95.2181084 31.3355,95.4008084 C32.3988,95.7564084 33.5111,95.7403084 34.5387,95.8621084 C35.0546,95.9209084 35.5565,96.0077084 36.0234,96.1596084 C36.4903,96.3192084 36.9089,96.5425084 37.2778,96.7980084 C38.7541,97.8641084 39.2889,99.3467084 39.4254,100.302908 C39.5017,100.793608 39.4751,101.181408 39.4478,101.438308 C39.4065,101.695208 39.3792,101.828208 39.3666,101.826133" id="Fill-144" fill="#1A282B"></path>
            <path d="M37.9708,63.0895084 C37.961,63.0741084 38.1164,62.9411084 38.4643,62.8368084 C38.8059,62.7346084 39.3617,62.6919084 39.9763,62.9376084 C40.2794,63.0615084 40.5958,63.2575084 40.8576,63.5536084 C41.1159,63.8497084 41.3154,64.2487084 41.3665,64.6918084 C41.4841,65.5591084 41.0949,66.6301084 40.1555,67.1383084 C39.2007,67.6199084 38.0961,67.3210084 37.4591,66.7183084 C37.1287,66.4173084 36.9229,66.0190084 36.8417,65.6326084 C36.7619,65.2441084 36.8018,64.8724084 36.8914,64.5567084 C37.0776,63.9204084 37.464,63.5116084 37.7643,63.3170084 C38.0681,63.1168084 38.2725,63.0895084 38.2767,63.1063084 C38.2893,63.1364084 38.1066,63.2099084 37.8504,63.4297084 C37.5963,63.6439084 37.2771,64.0436084 37.1413,64.6218084 C36.9978,65.1867084 37.0972,65.9623084 37.6866,66.4712084 C38.2403,66.9780084 39.2084,67.2153084 39.9868,66.8156084 C40.7596,66.4033084 41.1208,65.4793084 41.0326,64.7317084 C40.9626,63.9568084 40.4068,63.4115084 39.8734,63.1742084 C39.3337,62.9236084 38.8234,62.9201084 38.4944,62.9754084 C38.1605,63.0307084 37.9848,63.1182084 37.9708,63.0895084" id="Fill-145" fill="#1A282B"></path>
            <path d="M16.9848,92.9347855 C16.9071,92.9179084 17.2361,91.7041084 17.3138,89.7021084 C17.3299,89.2016084 17.3425,88.6535084 17.2956,88.0669084 C17.2851,87.4782084 17.1892,86.8566084 17.1101,86.2007084 C16.8959,84.8980084 16.5452,83.4833084 15.9999,82.0588084 C15.435,80.6413084 14.7336,79.3638084 14.0084,78.2599084 C13.622,77.7244084 13.2713,77.2022084 12.88,76.7626084 C12.5167,76.2985084 12.1359,75.9051084 11.7845,75.5481084 C10.3705,74.1285084 9.3058,73.4586084 9.3527,73.3942084 C9.366,73.3732084 9.632,73.5356084 10.1038,73.8506084 C10.3432,74.0032084 10.6281,74.2013084 10.9333,74.4638084 C11.242,74.7228084 11.613,74.9972084 11.9658,75.3640084 C12.3333,75.7147084 12.7309,76.1046084 13.1103,76.5673084 C13.5184,77.0062084 13.8852,77.5298084 14.2856,78.0709084 C15.0402,79.1832084 15.764,80.4817084 16.3394,81.9265084 C16.8959,83.3776084 17.2431,84.8231084 17.4419,86.1524084 C17.5147,86.8209084 17.6001,87.4551084 17.5973,88.0536084 C17.6323,88.6514084 17.6043,89.2079084 17.5714,89.7147084 C17.5609,90.2229084 17.4741,90.6758084 17.4223,91.0748084 C17.3768,91.4759084 17.3012,91.8147084 17.2291,92.0898084 C17.0947,92.6407084 17.0093,92.9403084 16.9848,92.9347855" id="Fill-146" fill="#1A282B"></path>
            <path d="M89.6175,48.6247084 C89.6042,48.6499084 89.2388,48.4728084 88.5745,48.1634084 C87.9102,47.8547084 86.9456,47.4158084 85.7192,46.9671084 C84.4928,46.5268084 82.9983,46.0767084 81.2938,45.8499084 C79.5956,45.6161084 77.6783,45.6392084 75.761,46.1222084 C73.8437,46.5982084 72.1469,47.5208084 70.9002,48.6856084 C69.6486,49.8490084 68.8184,51.1958084 68.4019,52.4159084 C67.977,53.6388084 67.9259,54.7077084 67.9805,55.4294084 C68.0337,56.1539084 68.1485,56.5466084 68.1093,56.5558009 C68.0974,56.5592084 68.0638,56.4633084 68.0099,56.2764084 C67.9483,56.0909084 67.893,55.8102084 67.8384,55.4427084 C67.7397,54.7119084 67.7502,53.6073084 68.1576,52.3340084 C68.5559,51.0635084 69.3903,49.6558084 70.6706,48.4406084 C71.9467,47.2219084 73.7009,46.2573084 75.6714,45.7687084 C77.6433,45.2724084 79.6103,45.2605084 81.3393,45.5167084 C83.0753,45.7666084 84.5831,46.2496084 85.8109,46.7263084 C87.0373,47.2107084 87.9907,47.6881084 88.6382,48.0367084 C88.9609,48.2124084 89.2094,48.3524084 89.3739,48.4553084 C89.5391,48.5554084 89.6231,48.6142084 89.6175,48.6247084" id="Fill-147" fill="#1A282B"></path>
            <path d="M95.3477,17.2668084 C95.3568,17.2577084 95.4219,17.3144084 95.5381,17.4306084 C95.648,17.5517084 95.8356,17.7120084 96.0204,17.9640084 C96.4208,18.4449084 96.9185,19.2191084 97.3168,20.2726084 C97.72,21.3226084 97.9622,22.6715084 97.8712,24.1639084 C97.7718,25.6500084 97.3,27.2768084 96.3487,28.7251084 C95.3869,30.1692084 94.0555,31.2269084 92.7178,31.8786084 C91.3787,32.5429084 90.0417,32.8320084 88.9203,32.8866084 C87.7968,32.9440084 86.8875,32.8089084 86.2848,32.6437084 C85.9782,32.5786084 85.7549,32.4750084 85.5995,32.4246084 C85.4455,32.3672084 85.3671,32.3315084 85.3713,32.3196084 C85.3867,32.2258084 86.7013,32.8082084 88.9021,32.6290084 C89.9913,32.5443084 91.2814,32.2370084 92.5673,31.5776084 C93.8525,30.9322084 95.1244,29.9060084 96.0449,28.5242084 C96.9577,27.1347084 97.4218,25.5737084 97.5359,24.1387084 C97.6423,22.6995084 97.4358,21.3898084 97.0739,20.3587084 C96.3529,18.2720084 95.2651,17.3200084 95.3477,17.2668084" id="Fill-148" fill="#1A282B"></path>
            <path d="M49.6440001,40.0098084 C49.6447,40.1106084 46.9231,40.2128084 43.5645,40.2387084 C40.2052,40.2646084 37.4829,40.2044084 37.4821999,40.1036084 C37.4815,40.0028084 40.2024,39.9006084 43.5617,39.8740084 C46.9196,39.8481084 49.6433,39.9090084 49.6440001,40.0098084" id="Fill-149" fill="#1A282B"></path>
        </g>
        <g id="Group-10" transform="translate(296.000000, 151.000000)">
            <path d="M54.1255003,17.6340024 C54.0190003,16.6700024 54.3385003,15.7065024 54.3545003,14.7325024 C54.3655003,14.0615024 54.3170003,13.3530024 54.3070003,12.6770024 C53.7315003,12.6505024 53.1565003,12.5710024 52.5980003,12.4375024 C52.4805003,12.4110024 52.3525003,12.3735024 52.2835003,12.2780024 C52.2090003,12.1765024 52.2195003,12.0435024 52.2145003,11.9210024 C52.1715003,11.1655024 51.4425003,10.6645024 50.7880003,10.2870024 C50.4525003,10.0900024 50.1115003,9.89800237 49.7490003,9.77550237 C49.7490003,9.85550237 49.7490003,9.93000237 49.7545003,10.0100024 C49.8880003,13.7525024 50.6330003,17.3465024 51.8945003,20.6845024 C52.4700003,22.2070024 53.1565003,23.6820024 53.9500003,25.0925024 C54.2800003,25.7050024 54.6425003,26.3065024 55.0200003,26.8975024 C55.4885003,27.6270024 55.9780003,28.3405024 56.5055003,29.0270024 C56.9955003,29.6870024 57.5170003,30.3315024 58.0655003,30.9490024 C58.8160003,31.8060024 59.6095003,32.6210024 60.4450003,33.3980024 C61.1850003,34.0900024 61.9570003,34.7450024 62.7610003,35.3680024 C60.9245003,30.4380024 59.1940003,25.4065024 56.0530003,21.2115024 C55.2275003,20.1145024 54.2800003,18.9965024 54.1255003,17.6340024" id="Fill-7" fill="#ECECE8"></path>
            <path d="M54.3655003,11.3730024 C54.2960003,11.3620024 54.2320003,11.3515024 54.1630003,11.3410024 C53.5720003,11.2770024 52.8795003,11.2450024 52.5550003,10.7555024 C52.1770003,10.1860024 52.5495003,9.33900237 52.1610003,8.78000237 C51.9585003,8.48750237 51.6070003,8.35950237 51.3200003,8.15200237 C51.0325003,7.94950237 50.7875003,7.56650237 50.9630003,7.25750237 C51.1065003,6.99650237 51.4795003,6.94350237 51.6660003,6.70400237 C51.8150003,6.51200237 51.8100003,6.21900237 51.6555003,6.03850237 C51.0485003,5.31950237 50.3725003,6.78350237 50.0370003,7.12950237 C49.9410003,7.23100237 49.8505003,7.31600237 49.7655003,7.38500237 L49.7655003,7.39050237 C49.7600003,7.45450237 49.7545003,7.51300237 49.7545003,7.57700237 C49.7470003,7.77650237 49.7475003,7.98100237 49.7440003,8.18400237 C49.7405003,8.38650237 49.7335003,8.58850237 49.7335003,8.79050237 C49.7335003,8.95600237 49.7305003,8.94700237 49.7335003,9.11150237 C49.7360003,9.27600237 49.7440003,9.61300237 49.7490003,9.77550237 C50.1115003,9.89800237 50.4525003,10.0900024 50.7875003,10.2870024 C51.4425003,10.6645024 52.1715003,11.1655024 52.2145003,11.9210024 C52.2195003,12.0435024 52.2090003,12.1765024 52.2835003,12.2780024 C52.3525003,12.3735024 52.4805003,12.4110024 52.5980003,12.4375024 C53.1570003,12.5710024 53.7315003,12.6505024 54.3070003,12.6770024" id="Fill-8" fill="#ECECE8"></path>
            <path d="M54.3070003,12.6770024 C54.3170003,13.3530024 54.3655003,14.0615024 54.3545003,14.7320024 C54.3385003,15.7065024 54.0190003,16.6700024 54.1255003,17.6340024 C54.2800003,18.9965024 55.2275003,20.1145024 56.0530003,21.2115024 C59.1940003,25.4065024 60.9245003,30.4380024 62.7610003,35.3680024 L62.7665003,35.3680024 C63.1070003,35.6395024 63.4535003,35.8950024 63.8045003,36.1450024 C64.0810003,36.3450024 64.3610003,36.5405024 64.6435003,36.7315024 C64.9265003,36.9225024 65.2125003,37.1090024 65.5030003,37.2895024 C65.7055003,37.4175024 65.9075003,37.5400024 66.1150003,37.6625024 C66.0885003,37.6040024 66.0615003,37.5505024 66.0355003,37.4920024 C65.2950003,35.8685024 65.2525003,33.5260024 66.8445003,32.7220024 C67.1480003,32.5675024 67.4940003,32.4825024 67.7445003,32.2480024 C68.4525003,31.5775024 67.8725003,30.1930024 68.5805003,29.5220024 C68.9795003,29.1495024 69.6020003,29.1760024 70.0975003,28.9525024 C70.9865003,28.5425024 71.2740003,27.4035024 71.2050003,26.4235024 C71.1300003,25.4495024 70.8105003,24.4805024 70.9225003,23.5060024 C71.0985003,22.0315024 72.2480003,20.5355024 71.5880003,19.2045024 C70.8485003,17.7190024 68.6920003,17.9585024 67.1745003,17.2930024 C65.0560003,16.3615024 64.4005003,13.7315024 63.0165003,11.8735024 C61.7760003,10.2120024 58.8800003,8.38600237 56.6760003,8.88650237 C55.0790003,9.24850237 54.5305003,10.2015024 54.3655003,11.3730024" id="Fill-9" fill="#ECECE8"></path>
            <mask id="mask-2" fill="white">
                <use xlink:href="#path-1"></use>
            </mask>
            <g id="Clip-135"></g>
            <path d="M80.0835003,193.567504 L14.3175003,193.528502 C6.40800026,193.524002 -0.00149973677,187.109502 -9.9475983e-14,179.199502 L0.0325002632,14.3235024 C0.0340002632,6.40900237 6.45250026,-0.0044976334 14.3665003,5.68434189e-14 L80.1325003,0.0390023666 C88.0420003,0.0435023666 94.4515003,6.45750237 94.4500005,14.3675024 L94.4175003,179.244002 C94.4160003,187.158502 87.9975003,193.571502 80.0835003,193.567504" id="Fill-136" fill="#1A282B" mask="url(#mask-2)"></path>
            <path d="M80.0625003,5.87050237 L67.3120003,5.86300237 C65.6020003,5.86250237 64.2155003,7.31050237 64.2155003,9.09800237 L64.2145003,11.4110024 C64.2145003,13.1985024 62.8280003,14.6470024 61.1180003,14.6455024 L36.2640003,14.6310024 C34.5540003,14.6305024 33.1675003,13.1800024 33.1680003,11.3925024 L33.1685003,9.07950237 C33.1685003,7.29200237 31.7825003,5.84200237 30.0725003,5.84100237 L25.5885003,5.83850237 L14.4280003,5.83150132 C8.88550026,5.82900237 4.39050026,10.3205024 4.38950026,15.8630024 L4.3580001,176.794502 C4.35700026,182.334502 8.84550026,186.826502 14.3850003,186.830002 L80.0195003,186.868004 C85.5615003,186.871502 90.0570003,182.380002 90.0585003,176.837502 L90.0900004,15.9050024 C90.0910003,10.3655024 85.6020003,5.87350237 80.0625003,5.87050237" id="Fill-138" fill="#FFFFFE" mask="url(#mask-2)"></path>
            <path d="M95.7665001,39.0535 C95.767,39.097 94.109,39.1455 92.0635,39.162 C90.0175,39.1795 88.3595,39.158 88.3589999,39.115 C88.3585,39.0715 90.016,39.023 92.062,39.006 C94.1075,38.989 95.766,39.0105 95.7665001,39.0535" id="Fill-139" fill="#1A282B" mask="url(#mask-2)"></path>
            <path d="M95.7825,40.949 C95.7825,40.992 94.1245,41.0405 92.079,41.0575 C90.033,41.0745 88.375,41.0535 88.3744999,41.01 C88.374,40.967 90.032,40.9185 92.078,40.9015 C94.123,40.8845 95.782,40.9055 95.7825,40.949" id="Fill-140" fill="#1A282B" mask="url(#mask-2)"></path>
            <path d="M95.7980001,42.844 C95.7985,42.8875 94.14,42.936 92.095,42.953 C90.049,42.97 88.3905,42.9485 88.3899999,42.9055 C88.3895,42.8625 90.0475,42.8135 92.094,42.7965 C94.1385,42.78 95.7975,42.801 95.7980001,42.844" id="Fill-141" fill="#1A282B" mask="url(#mask-2)"></path>
            <path d="M14.6275003,28.0745024 C14.6300003,28.0715024 14.6830003,28.0685024 14.7810003,28.0645024 C14.9030003,28.0600024 15.0435003,28.0555024 15.2095003,28.0500024 C15.6140003,28.0405024 16.1425003,28.0280024 16.7915003,28.0125024 L16.7480003,28.0570024 C16.7420003,27.7060024 16.7360003,27.3230024 16.7290003,26.9100024 C16.7315003,26.6965024 16.7110003,26.4960024 16.7315003,26.2495024 C16.7740003,26.0040024 16.9930003,25.7875024 17.2625003,25.7620024 C17.5175003,25.7570024 17.7415003,25.7455024 18.0180003,25.7580024 C18.3030003,25.7930024 18.5450003,26.0675024 18.5370003,26.3690024 C18.5425003,26.9040024 18.5490003,27.4625024 18.5555003,28.0420024 L18.4825003,27.9700024 C19.1230003,27.9635024 19.7900003,27.9565024 20.4775003,27.9495024 L20.4015003,28.0270024 C20.3945003,27.2230024 20.3870003,26.3920024 20.3795003,25.5405024 C20.3775003,25.3285024 20.3760003,25.1170024 20.3740003,24.9075024 C20.3730003,24.7120024 20.2545003,24.5815024 20.0935003,24.4360024 C19.7985003,24.1450024 19.5075003,23.8580024 19.2215003,23.5760024 C18.9355003,23.2945024 18.6550003,23.0175024 18.3800003,22.7460024 C18.2425003,22.6100024 18.1065003,22.4760024 17.9720003,22.3430024 C17.8315003,22.2080024 17.7220003,22.0685024 17.5595003,22.0350024 C17.4020003,21.9925024 17.2285003,22.0260024 17.1020003,22.1225024 C16.9810003,22.2245024 16.8520003,22.3690024 16.7300003,22.4875024 C16.4845003,22.7355024 16.2460003,22.9765024 16.0145003,23.2100024 C15.5640003,23.6775024 15.0950003,24.1050024 14.7540003,24.5090024 C14.6100003,24.7320024 14.6640003,25.0050024 14.6535003,25.2535024 C14.6530003,25.5010024 14.6525003,25.7355024 14.6520003,25.9565024 C14.6495003,26.3875024 14.6470003,26.7655024 14.6450003,27.0890024 C14.6420003,27.3785024 14.6390003,27.6175024 14.6370003,27.8135024 C14.6340003,27.9805024 14.6310003,28.0705024 14.6275003,28.0745024 C14.6235003,28.0785024 14.6190003,27.9960024 14.6135003,27.8345024 C14.6080003,27.6420024 14.6015003,27.4065024 14.5935003,27.1215024 C14.5860003,26.7955024 14.5775003,26.4145024 14.5680003,25.9800024 C14.5635003,25.7545024 14.5595003,25.5150024 14.5545003,25.2630024 C14.5525003,25.1355024 14.5505003,25.0045024 14.5484803,24.8710024 C14.5475003,24.7290024 14.5840003,24.5825024 14.6585003,24.4530024 C15.0275003,24.0010024 15.4680003,23.6005024 15.9220003,23.1190024 C16.1515003,22.8840024 16.3885003,22.6410024 16.6325003,22.3915024 C16.7605003,22.2655024 16.8650003,22.1405024 17.0175003,22.0095024 C17.1770003,21.8870024 17.3960003,21.8430024 17.5960003,21.8955024 C17.8085003,21.9425024 17.9465003,22.1165024 18.0750003,22.2385024 C18.2100003,22.3705024 18.3465003,22.5045024 18.4845003,22.6395024 C18.7605003,22.9100024 19.0420003,23.1860024 19.3285003,23.4670024 C19.6150003,23.7485024 19.9065003,24.0345024 20.2025003,24.3250024 C20.2730003,24.3995024 20.3570003,24.4620024 20.4255003,24.5665024 C20.4900003,24.6660024 20.5270003,24.7835024 20.5300003,24.9030024 C20.5320003,25.1135024 20.5340003,25.3260024 20.5360003,25.5390024 C20.5420003,26.3910024 20.5485003,27.2220024 20.5545003,28.0255024 L20.5555003,28.1020024 L20.4785003,28.1025024 C19.7910003,28.1070024 19.1240003,28.1115024 18.4835003,28.1155024 L18.4105003,28.1160024 L18.4100003,28.0430024 C18.4070003,27.4640024 18.4040003,26.9050024 18.4015003,26.3705024 C18.4095003,26.1295024 18.2220003,25.9165024 17.9980003,25.8860024 C17.7685003,25.8735024 17.4980003,25.8820024 17.2745003,25.8835024 C17.0600003,25.9015024 16.8810003,26.0735024 16.8440003,26.2715024 C16.8250003,26.4720024 16.8400003,26.7060024 16.8355003,26.9090024 C16.8355003,27.3225024 16.8360003,27.7055024 16.8360003,28.0560024 L16.8360003,28.1010024 L16.7920003,28.1010024 C16.1325003,28.0960024 15.5950003,28.0920024 15.1840003,28.0895024 C15.0215003,28.0865024 14.8840003,28.0845024 14.7655003,28.0820024 C14.6715003,28.0800024 14.6245003,28.0775024 14.6275003,28.0745024" id="Fill-142" fill="#1A282B" mask="url(#mask-2)"></path>
            <path d="M76.2475003,50.8180024 L17.0165003,50.8180024 C14.0525003,50.8180024 11.6500003,48.4155024 11.6500003,45.4515024 L11.6500003,43.4580024 C11.6500003,40.4945024 14.0525003,38.0915024 17.0165003,38.0915024 L76.2475003,38.0915024 C79.2115003,38.0915024 81.6140003,40.4945024 81.6140003,43.4580024 L81.6140003,45.4515024 C81.6140003,48.4155024 79.2115003,50.8180024 76.2475003,50.8180024" id="Fill-143" fill="#F8F7F5" mask="url(#mask-2)"></path>
            <path d="M76.2475003,50.8180024 C76.2475003,50.8180024 76.3840003,50.8020024 76.6495003,50.7845024 C76.9145003,50.7650024 77.3070003,50.7045024 77.8040003,50.5600024 C78.2940003,50.3990024 78.8895003,50.1385024 79.4870003,49.6745024 C80.0860003,49.2185024 80.6795003,48.5465024 81.0825003,47.6515024 C81.2775003,47.2050024 81.4440003,46.7090024 81.5035003,46.1690024 C81.5755003,45.6330024 81.5510003,45.0560024 81.5520003,44.4550024 C81.5425003,43.8535024 81.5810003,43.2230024 81.4695003,42.5900024 C81.3630003,41.9560024 81.1350003,41.3155024 80.7745003,40.7250024 C80.0640003,39.5455024 78.7950003,38.5565024 77.2445003,38.2715024 C76.4765003,38.1255024 75.6515003,38.1930024 74.8115003,38.1790024 C73.9715003,38.1805024 73.1095003,38.1820024 72.2265003,38.1840024 C58.0910003,38.1935024 38.5750003,38.2070024 17.0200003,38.2220024 C15.7020003,38.2205024 14.4055003,38.7360024 13.4575003,39.6250024 C12.5015003,40.5070024 11.9045003,41.7455024 11.8015003,43.0230024 C11.7575003,43.6565024 11.7895003,44.3270024 11.7795003,44.9735024 C11.7635003,45.6310024 11.7980003,46.2545024 11.9775003,46.8660024 C12.3160003,48.0825024 13.1085003,49.1490024 14.1450003,49.8310024 C14.6615003,50.1755024 15.2405003,50.4190024 15.8400003,50.5535024 C16.4405003,50.6955024 17.0520003,50.6960024 17.6810003,50.6920024 C18.9285003,50.6925024 20.1640003,50.6930024 21.3865003,50.6940024 C23.8315003,50.6955024 26.2255003,50.6965024 28.5605003,50.6980024 C37.9015003,50.7085024 46.3130003,50.7180024 53.3800003,50.7260024 C60.4400003,50.7435024 66.1545003,50.7575024 70.1125003,50.7675024 C72.0825003,50.7780024 73.6140003,50.7860024 74.6620003,50.7920024 C75.1765003,50.7975024 75.5705003,50.8015024 75.8450003,50.8050024 C76.1110003,50.8090024 76.2475003,50.8180024 76.2475003,50.8180024 C76.2475003,50.8180024 76.1110003,50.8270024 75.8450003,50.8315024 C75.5705003,50.8345024 75.1765003,50.8390024 74.6620003,50.8440024 C73.6140003,50.8500024 72.0825003,50.8580024 70.1125003,50.8690024 C66.1545003,50.8785024 60.4400003,50.8930024 53.3800003,50.9100024 C46.3130003,50.9180024 37.9015003,50.9275024 28.5605003,50.9380024 C26.2255003,50.9395024 23.8315003,50.9410024 21.3865003,50.9425024 C20.1640003,50.9430024 18.9285003,50.9435024 17.6810003,50.9445024 C17.0645003,50.9490024 16.4120003,50.9500024 15.7830003,50.8010024 C15.1545003,50.6600024 14.5465003,50.4050024 14.0050003,50.0440024 C12.9175003,49.3305024 12.0860003,48.2120024 11.7295003,46.9355024 C11.5410003,46.3040024 11.5050003,45.6160024 11.5210003,44.9735024 C11.5310003,44.3175024 11.4980003,43.6780024 11.5435003,43.0015024 C11.6510003,41.6610024 12.2780003,40.3595024 13.2805003,39.4345024 C14.2745003,38.5015024 15.6375003,37.9600024 17.0200003,37.9614993 C38.5750003,37.9765024 58.0910003,37.9900024 72.2265003,37.9995024 C73.1095003,38.0010024 73.9715003,38.0025024 74.8115003,38.0040024 C75.6480003,38.0215024 76.4740003,37.9550024 77.2750003,38.1090024 C78.8740003,38.4095024 80.1750003,39.4345024 80.8990003,40.6495024 C81.2665003,41.2585024 81.4975003,41.9170024 81.6025003,42.5680024 C81.7135003,43.2235024 81.6700003,43.8565024 81.6760003,44.4550024 C81.6710003,45.0540024 81.6925003,45.6325024 81.6155003,46.1840024 C81.5505003,46.7355024 81.3770003,47.2400024 81.1750003,47.6935024 C80.7565003,48.6020024 80.1470003,49.2795024 79.5345003,49.7360024 C78.9225003,50.2000024 78.3165003,50.4560024 77.8195003,50.6100024 C77.3150003,50.7480024 76.9180003,50.8000024 76.6515003,50.8110024 C76.3840003,50.8205024 76.2475003,50.8180024 76.2475003,50.8180024" id="Fill-144" fill="#1A282B" mask="url(#mask-2)"></path>
            <path d="M92.361,65.059 C92.308,65.108 91.803,64.6475 91.233,64.03 C90.6625,63.4125 90.243,62.873 90.296,62.824 C90.3485,62.775 90.8535,63.236 91.424,63.8535 C91.994,64.4705 92.4135,65.0105 92.361,65.059" id="Fill-146" fill="#1A282B" mask="url(#mask-2)"></path>
            <polygon id="Fill-151" stroke="#EC1066" stroke-width="0.5" mask="url(#mask-2)" points="14.6010003 76.6035024 29.9150003 76.6035024 29.9150003 61.2895024 14.6010003 61.2895024"></polygon>
            <g id="Group-5" mask="url(#mask-2)">
                <g transform="translate(36.502000, 62.687252)">
                    <path d="M22.873,0.24975 C22.873,0.32175 17.752,0.38025 11.437,0.38025 C5.12,0.38025 2.13162821e-14,0.32175 2.13162821e-14,0.24975 C2.13162821e-14,0.17825 5.12,0.11975 11.437,0.11975 C17.752,0.11975 22.873,0.17825 22.873,0.24975" id="Fill-152" fill="#DE4D59"></path>
                    <path d="M41.1115,4.94425 C41.1115,5.01625 31.9075,5.07475 20.557,5.07475 C9.202,5.07475 -7.10542736e-15,5.01625 -7.10542736e-15,4.94425 C-7.10542736e-15,4.87275 9.202,4.81425 20.557,4.81425 C31.9075,4.81425 41.1115,4.87275 41.1115,4.94425" id="Fill-153" fill="#1A282B"></path>
                    <path d="M40.6275,8.29725 C40.6275,8.36875 31.5325,8.42725 20.3145,8.42725 C9.0935,8.42725 2.13162821e-14,8.36875 2.13162821e-14,8.29725 C2.13162821e-14,8.22525 9.0935,8.16675 20.3145,8.16675 C31.5325,8.16675 40.6275,8.22525 40.6275,8.29725" id="Fill-154" fill="#1A282B"></path>
                    <path d="M23.9875,11.49525 C23.9875,11.56675 18.6175,11.62525 11.9945,11.62525 C5.369,11.62525 9.23705556e-14,11.56675 9.23705556e-14,11.49525 C9.23705556e-14,11.42325 5.369,11.36475 11.9945,11.36475 C18.6175,11.36475 23.9875,11.42325 23.9875,11.49525" id="Fill-155" fill="#1A282B"></path>
                </g>
            </g>
            <polygon id="Fill-156" mask="url(#mask-2)" points="14.6010003 102.117502 29.9150003 102.117502 29.9150003 86.8035024 14.6010003 86.8035024"></polygon>
            <path d="M59.3750003,88.4510024 C59.3750003,88.5235024 54.2540003,88.5815024 47.9390003,88.5815024 C41.6220003,88.5815024 36.5020003,88.5235024 36.5020003,88.4510024 C36.5020003,88.3795024 41.6220003,88.3210024 47.9390003,88.3210024 C54.2540003,88.3210024 59.3750003,88.3795024 59.3750003,88.4510024" id="Fill-157" fill="#DE4D59" mask="url(#mask-2)"></path>
            <path d="M77.6135003,93.1455024 C77.6135003,93.2175024 68.4095003,93.2760024 57.0590003,93.2760024 C45.7040003,93.2760024 36.5020003,93.2175024 36.5020003,93.1455024 C36.5020003,93.0735024 45.7040003,93.0155024 57.0590003,93.0155024 C68.4095003,93.0155024 77.6135003,93.0735024 77.6135003,93.1455024" id="Fill-158" fill="#1A282B" mask="url(#mask-2)"></path>
            <path d="M77.1295003,96.4980024 C77.1295003,96.5705024 68.0345003,96.6285024 56.8165003,96.6285024 C45.5955003,96.6285024 36.5020003,96.5705024 36.5020003,96.4980024 C36.5020003,96.4260024 45.5955003,96.3680024 56.8165003,96.3680024 C68.0345003,96.3680024 77.1295003,96.4260024 77.1295003,96.4980024" id="Fill-159" fill="#1A282B" mask="url(#mask-2)"></path>
            <path d="M60.4895003,99.6960024 C60.4895003,99.7680024 55.1195003,99.8265024 48.4965003,99.8265024 C41.8710003,99.8265024 36.5020003,99.7680024 36.5020003,99.6960024 C36.5020003,99.6245024 41.8710003,99.5660024 48.4965003,99.5660024 C55.1195003,99.5660024 60.4895003,99.6245024 60.4895003,99.6960024" id="Fill-160" fill="#1A282B" mask="url(#mask-2)"></path>
            <polygon id="Fill-161" stroke="#EC1066" stroke-width="0.5" mask="url(#mask-2)" points="14.6010003 127.632002 29.9150003 127.632002 29.9150003 112.318002 14.6010003 112.318002"></polygon>
            <path d="M59.3750003,113.965502 C59.3750003,114.037002 54.2540003,114.095502 47.9390003,114.095502 C41.6220003,114.095502 36.5020003,114.037002 36.5020003,113.965502 C36.5020003,113.893502 41.6220003,113.835002 47.9390003,113.835002 C54.2540003,113.835002 59.3750003,113.893502 59.3750003,113.965502" id="Fill-162" fill="#DE4D59" mask="url(#mask-2)"></path>
            <path d="M77.6135003,118.659502 C77.6135003,118.731502 68.4095003,118.790002 57.0590003,118.790002 C45.7040003,118.790002 36.5020003,118.731502 36.5020003,118.659502 C36.5020003,118.588002 45.7040003,118.529002 57.0590003,118.529002 C68.4095003,118.529002 77.6135003,118.588002 77.6135003,118.659502" id="Fill-163" fill="#1A282B" mask="url(#mask-2)"></path>
            <path d="M77.1295003,122.012002 C77.1295003,122.084002 68.0345003,122.142502 56.8165003,122.142502 C45.5955003,122.142502 36.5020003,122.084002 36.5020003,122.012002 C36.5020003,121.940502 45.5955003,121.882002 56.8165003,121.882002 C68.0345003,121.882002 77.1295003,121.940502 77.1295003,122.012002" id="Fill-164" fill="#1A282B" mask="url(#mask-2)"></path>
            <path d="M60.4895003,125.210502 C60.4895003,125.282002 55.1195003,125.340502 48.4965003,125.340502 C41.8710003,125.340502 36.5020003,125.282002 36.5020003,125.210502 C36.5020003,125.138002 41.8710003,125.080002 48.4965003,125.080002 C55.1195003,125.080002 60.4895003,125.138002 60.4895003,125.210502" id="Fill-165" fill="#1A282B" mask="url(#mask-2)"></path>
            <polygon id="Fill-166" mask="url(#mask-2)" points="14.6010003 153.146002 29.9150003 153.146002 29.9150003 137.831502 14.6010003 137.831502"></polygon>
            <path d="M58.139,181.926 C58.139,181.998 53.018,182.0565 46.703,182.0565 C40.386,182.0565 35.266,181.998 35.266,181.926 C35.266,181.8545 40.386,181.796 46.703,181.796 C53.018,181.796 58.139,181.8545 58.139,181.926" id="Fill-172" fill="#DFDFDA" mask="url(#mask-2)"></path>
            <path d="M76.3775,186.6205 C76.3775,186.692 67.1735,186.751 55.823,186.751 C44.468,186.751 35.266,186.692 35.266,186.6205 C35.266,186.5485 44.468,186.4905 55.823,186.4905 C67.1735,186.4905 76.3775,186.5485 76.3775,186.6205" id="Fill-173" fill="#ECECE8" mask="url(#mask-2)"></path>
            <path d="M75.8935,189.973 C75.8935,190.0455 66.7985,190.1035 55.5805,190.1035 C44.3595,190.1035 35.266,190.0455 35.266,189.973 C35.266,189.901 44.3595,189.843 55.5805,189.843 C66.7985,189.843 75.8935,189.901 75.8935,189.973" id="Fill-174" fill="#ECECE8" mask="url(#mask-2)"></path>
            <path d="M59.2535,193.171 C59.2535,193.243 53.8835,193.3015 47.2605,193.3015 C40.635,193.3015 35.266,193.243 35.266,193.171 C35.266,193.0995 40.635,193.041 47.2605,193.041 C53.8835,193.041 59.2535,193.0995 59.2535,193.171" id="Fill-175" fill="#ECECE8" mask="url(#mask-2)"></path>
            <polygon id="Fill-177" stroke="#EC1066" stroke-width="0.5" mask="url(#mask-2)" points="14.6010003 102.117502 29.9150003 102.117502 29.9150003 86.8035024 14.6010003 86.8035024"></polygon>
        </g>
        <g id="Brand/Insider-Heart" transform="translate(315.000000, 213.000000)" fill="#EC1066">
            <g id="o/Brand/Insider-Heart/Flat" transform="translate(0.000000, 0.812500)">
                <path d="M9.39599408,4.02624452 C10.2230516,4.84314564 10.2494665,6.21258584 9.41365706,7.02077612 L8.01358679,8.42713749 L5.76489747,10.6858827 C5.37392484,11.0746739 4.64361598,11.0558937 4.24842652,10.671338 L2.01469504,8.4276969 L2.01651132,8.42587252 L0.614783891,7.02077612 C-0.220945957,6.21258584 -0.194531038,4.84314564 0.632526442,4.02624452 C1.45409407,3.20782499 2.80085713,3.21373877 3.62950587,4.02368721 L5.01422048,5.41478463 L6.39901465,4.02368721 C7.22766339,3.21373877 8.57442644,3.20782499 9.39599408,4.02624452 Z M12.2415322,0.922983607 L12.3675133,1.0416225 C13.1944913,1.85844371 13.2209857,3.2278839 12.3851763,4.0361541 L11.0704772,5.35676563 C11.0232963,5.40407589 10.9468362,5.40407589 10.8996554,5.35668572 C10.8798442,5.33678664 10.8679097,5.31049428 10.8653637,5.28244377 L10.8639316,5.26701999 L10.8639316,5.26701999 C10.7972578,4.56503804 10.48187,3.91276383 9.99430791,3.42527637 C9.50905311,2.93555126 8.85965983,2.61876432 8.1606988,2.55179473 C8.15560677,2.55131524 8.15051473,2.55083574 8.14534314,2.55035624 C8.11741652,2.54779893 8.09124029,2.53589145 8.0714291,2.51591246 C8.02424824,2.46852228 8.02424824,2.39172303 8.0714291,2.34441277 L9.38620783,1.02380124 C10.1505975,0.226259761 11.419278,0.210400036 12.2415322,0.922983607 Z" id="Combined-Shape"></path>
            </g>
        </g>
        <g id="Brand/Insider-Heart" transform="translate(315.000000, 238.000000)" fill="#EC1066">
            <g id="o/Brand/Insider-Heart/Flat" transform="translate(0.000000, 0.812500)">
                <path d="M9.39599408,4.02624452 C10.2230516,4.84314564 10.2494665,6.21258584 9.41365706,7.02077612 L8.01358679,8.42713749 L5.76489747,10.6858827 C5.37392484,11.0746739 4.64361598,11.0558937 4.24842652,10.671338 L2.01469504,8.4276969 L2.01651132,8.42587252 L0.614783891,7.02077612 C-0.220945957,6.21258584 -0.194531038,4.84314564 0.632526442,4.02624452 C1.45409407,3.20782499 2.80085713,3.21373877 3.62950587,4.02368721 L5.01422048,5.41478463 L6.39901465,4.02368721 C7.22766339,3.21373877 8.57442644,3.20782499 9.39599408,4.02624452 Z M12.2415322,0.922983607 L12.3675133,1.0416225 C13.1944913,1.85844371 13.2209857,3.2278839 12.3851763,4.0361541 L11.0704772,5.35676563 C11.0232963,5.40407589 10.9468362,5.40407589 10.8996554,5.35668572 C10.8798442,5.33678664 10.8679097,5.31049428 10.8653637,5.28244377 L10.8639316,5.26701999 L10.8639316,5.26701999 C10.7972578,4.56503804 10.48187,3.91276383 9.99430791,3.42527637 C9.50905311,2.93555126 8.85965983,2.61876432 8.1606988,2.55179473 C8.15560677,2.55131524 8.15051473,2.55083574 8.14534314,2.55035624 C8.11741652,2.54779893 8.09124029,2.53589145 8.0714291,2.51591246 C8.02424824,2.46852228 8.02424824,2.39172303 8.0714291,2.34441277 L9.38620783,1.02380124 C10.1505975,0.226259761 11.419278,0.210400036 12.2415322,0.922983607 Z" id="Combined-Shape"></path>
            </g>
        </g>
        <g id="Brand/Insider-Heart" transform="translate(315.000000, 263.000000)" fill="#EC1066">
            <g id="o/Brand/Insider-Heart/Flat" transform="translate(0.000000, 0.812500)">
                <path d="M9.39599408,4.02624452 C10.2230516,4.84314564 10.2494665,6.21258584 9.41365706,7.02077612 L8.01358679,8.42713749 L5.76489747,10.6858827 C5.37392484,11.0746739 4.64361598,11.0558937 4.24842652,10.671338 L2.01469504,8.4276969 L2.01651132,8.42587252 L0.614783891,7.02077612 C-0.220945957,6.21258584 -0.194531038,4.84314564 0.632526442,4.02624452 C1.45409407,3.20782499 2.80085713,3.21373877 3.62950587,4.02368721 L5.01422048,5.41478463 L6.39901465,4.02368721 C7.22766339,3.21373877 8.57442644,3.20782499 9.39599408,4.02624452 Z M12.2415322,0.922983607 L12.3675133,1.0416225 C13.1944913,1.85844371 13.2209857,3.2278839 12.3851763,4.0361541 L11.0704772,5.35676563 C11.0232963,5.40407589 10.9468362,5.40407589 10.8996554,5.35668572 C10.8798442,5.33678664 10.8679097,5.31049428 10.8653637,5.28244377 L10.8639316,5.26701999 L10.8639316,5.26701999 C10.7972578,4.56503804 10.48187,3.91276383 9.99430791,3.42527637 C9.50905311,2.93555126 8.85965983,2.61876432 8.1606988,2.55179473 C8.15560677,2.55131524 8.15051473,2.55083574 8.14534314,2.55035624 C8.11741652,2.54779893 8.09124029,2.53589145 8.0714291,2.51591246 C8.02424824,2.46852228 8.02424824,2.39172303 8.0714291,2.34441277 L9.38620783,1.02380124 C10.1505975,0.226259761 11.419278,0.210400036 12.2415322,0.922983607 Z" id="Combined-Shape"></path>
            </g>
        </g>
        <g id="Group-6" transform="translate(119.000000, 221.000000)">
            <g id="Group-4" transform="translate(0.000000, 6.000000)" fill="#1A282B">
                <path d="M125.773484,0.262875329 C125.773484,0.262875329 125.856531,0.253343902 126.021423,0.262875329 C126.186314,0.274524851 126.435456,0.314768652 126.732742,0.445031484 C127.022806,0.576353363 127.36342,0.812520935 127.599323,1.1958961 C127.868926,1.57821221 127.849669,2.10985401 127.848465,2.65632248 C127.861705,4.90468013 127.882166,8.19090425 127.907441,12.4217987 C127.923088,16.6685788 127.941142,21.8579111 127.961602,27.8838908 C127.970028,30.8989988 127.977249,34.1227391 127.985674,37.5424032 C127.988081,38.3970545 127.990489,39.2644143 127.991692,40.1434237 C127.992896,40.5829284 127.994099,41.0256102 127.995303,41.4714691 C128.009746,41.8897929 128.009746,42.4404975 127.704035,42.8694117 C127.424803,43.3046802 126.94698,43.6414573 126.390923,43.7812515 C125.807184,43.9189277 125.294457,43.837381 124.76849,43.8617391 C123.716556,43.8627982 122.65018,43.8649163 121.571767,43.8659753 L121.795634,43.6689925 C121.801652,46.7232852 121.806466,50.0211589 121.813688,53.4376458 L121.813688,54 L121.390026,53.5784991 C118.294404,50.5062026 114.986951,47.2242147 111.557935,43.8204363 L111.752916,43.8988058 C82.7681695,43.9115144 47.8930753,43.9274001 10.3845359,43.9454039 C8.80422813,43.9454039 7.22753109,43.9454039 5.65685198,43.9454039 L3.30384227,43.9443448 C2.89943753,43.9401086 2.55160132,43.9538763 2.10146033,43.9348134 C1.65131934,43.8966877 1.21562138,43.7399487 0.865377994,43.4910725 C0.51393102,43.2411374 0.249142204,42.9022422 0.110729868,42.5241623 C0.04573625,42.3345928 0.00361075658,42.13761 0,41.9395681 L0,41.4206349 L0,39.3713781 C0,38.007325 0,36.6475082 0,35.2929865 C0.00240717105,29.8749 0.00361075658,24.537301 0.00481434211,19.2918392 C0.00842509869,14.0463774 0.0108322697,8.89305268 0.0132394408,3.84775081 L0.0192573684,1.94993785 C0.0385147369,1.22449038 0.551242171,0.541404798 1.280615,0.22157248 C1.63567273,0.0563610841 2.07257428,-0.0103589028 2.44327862,0.0012906187 L3.50243388,0.00234966611 L5.61111573,0.00340871352 C8.41667359,0.00552680835 11.1897346,0.00658585576 13.9290953,0.00870395058 C35.8355555,0.0309439462 55.5647294,0.051065847 72.1393057,0.0669515582 C88.6970318,0.105077265 102.098957,0.134730592 111.383415,0.154852493 C116.00398,0.177092489 119.595479,0.195096295 122.053201,0.206745816 C123.260397,0.219454385 124.184751,0.227926765 124.827466,0.234281049 C125.45333,0.243812476 125.773484,0.262875329 125.773484,0.262875329 C125.773484,0.262875329 125.45333,0.281938183 124.827466,0.290410562 C124.184751,0.296764846 123.260397,0.306296273 122.053201,0.317945795 C119.595479,0.330654363 116.00398,0.347599122 111.383415,0.369839118 C102.098957,0.391020066 88.6970318,0.420673393 72.1393057,0.457740053 C55.5647294,0.474684811 35.8355555,0.494806712 13.9290953,0.517046708 C11.1897346,0.518105755 8.41667359,0.52022385 5.61111573,0.521282897 L3.50243388,0.523400992 L2.44327862,0.523400992 C2.10507109,0.514928613 1.82583924,0.564703841 1.54901457,0.687553341 C1.00860467,0.926898056 0.62706806,1.43312272 0.615032204,1.9711188 L0.611421448,3.84775081 C0.613828619,8.89305268 0.617439375,14.0463774 0.619846546,19.2918392 C0.621050132,24.537301 0.622253718,29.8749 0.624660889,35.2929865 C0.624660889,36.6475082 0.624660889,38.007325 0.624660889,39.3713781 L0.624660889,41.4206349 C0.629475231,41.780711 0.600589178,42.0920709 0.706504704,42.3557737 C0.807605889,42.631126 1.00138316,42.8789431 1.25774688,43.0621583 C1.51531418,43.2443145 1.83185717,43.3576326 2.16043602,43.3862268 C2.49142204,43.4010535 2.92591642,43.390463 3.30384227,43.3936402 L5.65685198,43.3925811 C7.22753109,43.3925811 8.80422813,43.3925811 10.3845359,43.3925811 C47.8930753,43.4105849 82.7681695,43.4254116 111.752916,43.4391792 L111.872071,43.4391792 L111.949101,43.5164897 C115.368487,46.9276814 118.665108,50.2160236 121.752305,53.2967925 L121.329846,53.4376458 C121.334661,50.0211589 121.340679,46.7232852 121.346696,43.6689925 L121.346696,43.4698916 L121.571767,43.4709506 C122.65018,43.4720097 123.716556,43.4741278 124.76849,43.4751868 C125.290846,43.4582421 125.844496,43.5249621 126.270565,43.4158802 C126.717095,43.3036212 127.105853,43.0335641 127.332127,42.6830194 C127.580066,42.3250613 127.582473,41.9342728 127.572844,41.4714691 C127.574048,41.0256102 127.574048,40.5829284 127.575252,40.1434237 C127.577659,39.2644143 127.578862,38.3970545 127.581269,37.5424032 C127.589695,34.1227391 127.59812,30.8989988 127.605341,27.8838908 C127.627006,21.8579111 127.645059,16.6685788 127.659503,12.4217987 C127.685981,8.19090425 127.705239,4.90468013 127.719682,2.65632248 C127.731718,2.09714544 127.760604,1.60362935 127.512665,1.23508085 C127.297223,0.865473306 126.978273,0.631423828 126.701448,0.494806712 C126.127338,0.233222002 125.765059,0.289351514 125.773484,0.262875329" id="Fill-33"></path>
            </g>
            <circle id="Oval" fill="#F5DDE4" cx="127.5" cy="9.5" r="9.5"></circle>
            <path d="M60,16 C60.5522847,16 61,16.4477153 61,17 L61.0006487,20.0115407 C55.9860614,20.243888 52,23.9554465 52,28.5 C52,33.0445535 55.9860614,36.756112 61.0006487,36.9884593 L61,40 C61,40.5522847 60.5522847,41 60,41 L9,41 C8.44771525,41 8,40.5522847 8,40 L8.00001611,36.8946409 C12.5339867,36.2511637 16,32.7377404 16,28.5 C16,24.2622596 12.5339867,20.7488363 8.00001611,20.1053591 L8,17 C8,16.4477153 8.44771525,16 9,16 L60,16 Z" id="Combined-Shape" fill="#F5DDE4"></path>
            <g id="Group-3" transform="translate(124.000000, 4.000000)" fill="#EC1066" fill-rule="nonzero">
                <g id="notification">
                    <path d="M7.983975,8.09720625 L7.29718125,6.95240625 C6.9799875,6.4240125 6.81238125,5.8188 6.81238125,5.20280625 L6.81238125,4.2 C6.81238125,2.934 5.96758125,1.86320625 4.812375,1.518 L4.812375,0.80000625 C4.812375,0.3588 4.453575,0 4.01236875,0 C3.5711625,0 3.2123625,0.3588 3.2123625,0.80000625 L3.2123625,1.518 C2.057175,1.86320625 1.212375,2.934 1.212375,4.2 L1.212375,5.20280625 C1.212375,5.8188 1.04476875,6.4236 0.72796875,6.9520125 L0.041175,8.0968125 C0.003975,8.15881875 0.00316875,8.23561875 0.038775,8.2984125 C0.07438125,8.36120625 0.14038125,8.40001875 0.21238125,8.40001875 L7.812375,8.40001875 C7.884375,8.40001875 7.95076875,8.361225 7.986375,8.298825 C8.02198125,8.23640625 8.02078125,8.1588 7.983975,8.09720625 Z" id="Path"></path>
                    <path d="M2.75278125,8.79999375 C2.97838125,9.2712 3.45598125,9.6 4.01236875,9.6 C4.56875625,9.6 5.046375,9.2712 5.271975,8.79999375 L2.75278125,8.79999375 L2.75278125,8.79999375 Z" id="Path"></path>
                </g>
            </g>
            <g id="Group-5" transform="translate(70.000000, 22.000000)">
                <path d="M27,0.4995 C27,0.6435 20.9550125,0.7605 13.5005902,0.7605 C6.04380711,0.7605 0,0.6435 0,0.4995 C0,0.3565 6.04380711,0.2395 13.5005902,0.2395 C20.9550125,0.2395 27,0.3565 27,0.4995" id="Fill-152" fill="#DE4D59"></path>
                <path d="M48,5.4995 C48,5.6435 37.2538098,5.7605 24.0014594,5.7605 C10.7438551,5.7605 0,5.6435 0,5.4995 C0,5.3565 10.7438551,5.2395 24.0014594,5.2395 C37.2538098,5.2395 48,5.3565 48,5.4995" id="Fill-153" fill="#1A282B"></path>
                <path d="M47,9.5005 C47,9.6435 36.4784321,9.7605 23.5008676,9.7605 C10.5198326,9.7605 0,9.6435 0,9.5005 C0,9.3565 10.5198326,9.2395 23.5008676,9.2395 C36.4784321,9.2395 47,9.3565 47,9.5005" id="Fill-154" fill="#1A282B"></path>
                <path d="M28,13.5005 C28,13.6435 21.7317353,13.7605 14.0008755,13.7605 C6.26709745,13.7605 0,13.6435 0,13.5005 C0,13.3565 6.26709745,13.2395 14.0008755,13.2395 C21.7317353,13.2395 28,13.3565 28,13.5005" id="Fill-155" fill="#1A282B"></path>
            </g>
        </g>
        <g id="Group-6-Copy" transform="translate(310.000000, 288.000000)">
            <g id="Group-4" transform="translate(0.000000, 3.000000)" fill="#1A282B">
                <path d="M62.886742,0.131437665 C62.886742,0.131437665 62.9282657,0.126671951 63.0107113,0.131437665 C63.0931569,0.137262425 63.217728,0.157384326 63.3663708,0.222515742 C63.5114029,0.288176681 63.6817102,0.406260468 63.7996616,0.597948049 C63.9344632,0.789106107 63.9248345,1.05492701 63.9242327,1.32816124 C63.9308524,2.45234007 63.9410829,4.09545212 63.9537206,6.21089933 C63.9615439,8.33428938 63.9705708,10.9289555 63.9808012,13.9419454 C63.9850138,15.4494994 63.9886245,17.0613696 63.9928371,18.7712016 C63.9940407,19.1985272 63.9952443,19.6322072 63.9958461,20.0717118 C63.9964479,20.2914642 63.9970496,20.5128051 63.9976514,20.7357346 C64.004873,20.9448964 64.004873,21.2202488 63.8520176,21.4347059 C63.7124017,21.6523401 63.4734899,21.8207286 63.1954617,21.8906258 C62.9035922,21.9594638 62.6472285,21.9186905 62.384245,21.9308696 C61.8582782,21.9313991 61.3250898,21.9324581 60.7858835,21.9329877 L60.8978169,21.8344963 C60.9008259,23.3616426 60.903233,25.0105794 60.9068438,26.7188229 L60.9068438,27 L60.6950128,26.7892496 C59.1472018,25.2531013 57.4934753,23.6121073 55.7789677,21.9102181 L55.8764581,21.9494029 C41.3840848,21.9557572 23.9465376,21.9637 5.19226796,21.9727019 C4.40211407,21.9727019 3.61376555,21.9727019 2.82842599,21.9727019 L1.65192114,21.9721724 C1.44971877,21.9700543 1.27580066,21.9769381 1.05073017,21.9674067 C0.825659672,21.9483439 0.607810691,21.8699743 0.432688997,21.7455363 C0.25696551,21.6205687 0.124571102,21.4511211 0.0553649342,21.2620811 C0.022868125,21.1672964 0.00180537829,21.068805 0,20.969784 L0,20.7103174 L0,19.6856891 C0,19.0036625 0,18.3237541 0,17.6464933 C0.00120358553,14.93745 0.00180537829,12.2686505 0.00240717105,9.6459196 C0.00421254934,7.02318869 0.00541613487,4.44652634 0.0066197204,1.92387541 L0.00962868422,0.974968927 C0.0192573684,0.612245189 0.275621086,0.270702399 0.6403075,0.11078624 C0.817836366,0.028180542 1.03628714,-0.00517945141 1.22163931,0.000645309351 L1.75121694,0.00117483306 L2.80555786,0.00170435676 C4.2083368,0.00276340417 5.59486732,0.00329292788 6.96454765,0.00435197529 C17.9177777,0.0154719731 27.7823647,0.0255329235 36.0696529,0.0334757791 C44.3485159,0.0525386325 51.0494783,0.0673652962 55.6917077,0.0774262466 C58.0019901,0.0885462444 59.7977397,0.0975481474 61.0266006,0.103372908 C61.6301987,0.109727193 62.0923756,0.113963382 62.4137329,0.117140525 C62.7266651,0.121906238 62.886742,0.131437665 62.886742,0.131437665 C62.886742,0.131437665 62.7266651,0.140969091 62.4137329,0.145205281 C62.0923756,0.148382423 61.6301987,0.153148137 61.0266006,0.158972897 C59.7977397,0.165327182 58.0019901,0.173799561 55.6917077,0.184919559 C51.0494783,0.195510033 44.3485159,0.210336697 36.0696529,0.228870026 C27.7823647,0.237342406 17.9177777,0.247403356 6.96454765,0.258523354 C5.59486732,0.259052878 4.2083368,0.260111925 2.80555786,0.260641449 L1.75121694,0.261700496 L1.22163931,0.261700496 C1.05253554,0.257464306 0.912919622,0.282351921 0.774507287,0.34377667 C0.504302336,0.463449028 0.31353403,0.716561359 0.307516102,0.985559401 L0.305710724,1.92387541 C0.306914309,4.44652634 0.308719688,7.02318869 0.309923273,9.6459196 C0.310525066,12.2686505 0.311126859,14.93745 0.312330444,17.6464933 C0.312330444,18.3237541 0.312330444,19.0036625 0.312330444,19.6856891 L0.312330444,20.7103174 C0.314737615,20.8903555 0.300294589,21.0460355 0.353252352,21.1778869 C0.403802944,21.315563 0.500691579,21.4394716 0.628873438,21.5310792 C0.757657089,21.6221572 0.915928586,21.6788163 1.08021801,21.6931134 C1.24571102,21.7005268 1.46295821,21.6952315 1.65192114,21.6968201 L2.82842599,21.6962906 C3.61376555,21.6962906 4.40211407,21.6962906 5.19226796,21.6962906 C23.9465376,21.7052925 41.3840848,21.7127058 55.8764581,21.7195896 L55.9360356,21.7195896 L55.9745503,21.7582448 C57.6842436,23.4638407 59.3325539,25.1080118 60.8761524,26.6483963 L60.6649231,26.7188229 C60.6673303,25.0105794 60.6703393,23.3616426 60.6733482,21.8344963 L60.6733482,21.7349458 L60.7858835,21.7354753 C61.3250898,21.7360048 61.8582782,21.7370639 62.384245,21.7375934 C62.6454231,21.729121 62.9222478,21.762481 63.1352824,21.7079401 C63.3585475,21.6518106 63.5529266,21.516782 63.6660636,21.3415097 C63.7900329,21.1625307 63.7912365,20.9671364 63.7864222,20.7357346 C63.787024,20.5128051 63.787024,20.2914642 63.7876258,20.0717118 C63.7888294,19.6322072 63.7894311,19.1985272 63.7906347,18.7712016 C63.7948473,17.0613696 63.7990598,15.4494994 63.8026706,13.9419454 C63.8135029,10.9289555 63.8225297,8.33428938 63.8297513,6.21089933 C63.8429907,4.09545212 63.8526194,2.45234007 63.8598409,1.32816124 C63.8658588,1.04857272 63.8803019,0.801814676 63.7563325,0.617540426 C63.6486116,0.432736653 63.4891366,0.315711914 63.3507242,0.247403356 C63.0636691,0.116611001 62.8825294,0.144675757 62.886742,0.131437665" id="Fill-33"></path>
            </g>
            <circle id="Oval" fill="#F5DDE4" cx="63.75" cy="4.75" r="4.75"></circle>
            <path d="M30,8 C30.2761424,8 30.5,8.22385763 30.5,8.5 L30.5002598,10.0057733 C27.9929965,10.1219759 26,11.9777427 26,14.25 C26,16.5222573 27.9929965,18.3780241 30.5002598,18.4942267 L30.5,20 C30.5,20.2761424 30.2761424,20.5 30,20.5 L4.5,20.5 C4.22385763,20.5 4,20.2761424 4,20 L4.00037211,18.4472688 C6.26717888,18.1253938 8,16.3687568 8,14.25 C8,12.1312432 6.26717888,10.3746062 4.00037211,10.0527312 L4,8.5 C4,8.22385763 4.22385763,8 4.5,8 L30,8 Z" id="Combined-Shape" fill="#F5DDE4"></path>
            <g id="Group-3" transform="translate(62.000000, 2.000000)" fill="#EC1066" fill-rule="nonzero">
                <g id="notification">
                    <path d="M3.9919875,4.04860313 L3.64859063,3.47620313 C3.48999375,3.21200625 3.40619063,2.9094 3.40619063,2.60140313 L3.40619063,2.1 C3.40619063,1.467 2.98379063,0.931603125 2.4061875,0.759 L2.4061875,0.400003125 C2.4061875,0.1794 2.2267875,0 2.00618438,0 C1.78558125,0 1.60618125,0.1794 1.60618125,0.400003125 L1.60618125,0.759 C1.0285875,0.931603125 0.6061875,1.467 0.6061875,2.1 L0.6061875,2.60140313 C0.6061875,2.9094 0.522384375,3.2118 0.363984375,3.47600625 L0.0205875,4.04840625 C0.0019875,4.07940938 0.001584375,4.11780938 0.0193875,4.14920625 C0.037190625,4.18060313 0.070190625,4.20000938 0.106190625,4.20000938 L3.9061875,4.20000938 C3.9421875,4.20000938 3.97538438,4.1806125 3.9931875,4.1494125 C4.01099063,4.11820312 4.01039063,4.0794 3.9919875,4.04860313 Z" id="Path"></path>
                    <path d="M1.37639062,4.39999688 C1.48919062,4.6356 1.72799062,4.8 2.00618437,4.8 C2.28437812,4.8 2.5231875,4.6356 2.6359875,4.39999688 L1.37639062,4.39999688 L1.37639062,4.39999688 Z" id="Path"></path>
                </g>
            </g>
            <g id="Group-5" transform="translate(35.000000, 11.000000)">
                <path d="M13.5,0.24975 C13.5,0.32175 10.4775062,0.38025 6.75029511,0.38025 C3.02190355,0.38025 0,0.32175 0,0.24975 C0,0.17825 3.02190355,0.11975 6.75029511,0.11975 C10.4775062,0.11975 13.5,0.17825 13.5,0.24975" id="Fill-152" fill="#DE4D59"></path>
                <path d="M24,2.74975 C24,2.82175 18.6269049,2.88025 12.0007297,2.88025 C5.37192756,2.88025 0,2.82175 0,2.74975 C0,2.67825 5.37192756,2.61975 12.0007297,2.61975 C18.6269049,2.61975 24,2.67825 24,2.74975" id="Fill-153" fill="#1A282B"></path>
                <path d="M23.5,4.75025 C23.5,4.82175 18.239216,4.88025 11.7504338,4.88025 C5.25991631,4.88025 0,4.82175 0,4.75025 C0,4.67825 5.25991631,4.61975 11.7504338,4.61975 C18.239216,4.61975 23.5,4.67825 23.5,4.75025" id="Fill-154" fill="#1A282B"></path>
                <path d="M14,6.75025 C14,6.82175 10.8658676,6.88025 7.00043773,6.88025 C3.13354872,6.88025 0,6.82175 0,6.75025 C0,6.67825 3.13354872,6.61975 7.00043773,6.61975 C10.8658676,6.61975 14,6.67825 14,6.75025" id="Fill-155" fill="#1A282B"></path>
            </g>
        </g>
        <line x1="161" y1="238" x2="161" y2="262" id="Line" stroke="#F57DA0" stroke-width="0.5" stroke-linecap="square" stroke-dasharray="2,3"></line>
        <line x1="331" y1="296" x2="331" y2="308" id="Line" stroke="#F57DA0" stroke-width="0.5" stroke-linecap="square" stroke-dasharray="2,3"></line>
    </g>
</svg>