<?xml version="1.0" encoding="utf-8"?>
<!-- Generator: Adobe Illustrator 24.1.3, SVG Export Plug-In . SVG Version: 6.00 Build 0)  -->
<svg version="1.1" id="Layer_1" xmlns="http://www.w3.org/2000/svg" xmlns:xlink="http://www.w3.org/1999/xlink" x="0px" y="0px"
	 viewBox="0 0 504 504" style="enable-background:new 0 0 504 504;" xml:space="preserve">
<style type="text/css">
	.st0{fill-rule:evenodd;clip-rule:evenodd;fill:#F8F7F5;}
	.st1{fill-rule:evenodd;clip-rule:evenodd;fill:#1A282B;}
	.st2{fill-rule:evenodd;clip-rule:evenodd;fill:#0C172F;}
	.st3{fill-rule:evenodd;clip-rule:evenodd;fill:#FFFFFE;}
	.st4{fill-rule:evenodd;clip-rule:evenodd;fill:#DE4D59;}
	.st5{fill-rule:evenodd;clip-rule:evenodd;fill:#31C0F0;}
	.st6{fill-rule:evenodd;clip-rule:evenodd;fill:#EC1066;}
	.st7{fill-rule:evenodd;clip-rule:evenodd;fill:#365158;}
	.st8{fill-rule:evenodd;clip-rule:evenodd;fill:#F2B499;}
	.st9{fill-rule:evenodd;clip-rule:evenodd;fill:#EB916B;}
	.st10{filter:url(#Adobe_OpacityMaskFilter);}
	.st11{fill-rule:evenodd;clip-rule:evenodd;fill:#FFFFFF;}
	.st12{mask:url(#mask-2_1_);fill-rule:evenodd;clip-rule:evenodd;fill:#EEA199;}
	.st13{fill-rule:evenodd;clip-rule:evenodd;fill:#585F60;}
	.st14{fill-rule:evenodd;clip-rule:evenodd;fill:#EA9089;}
	.st15{fill-rule:evenodd;clip-rule:evenodd;fill:#F4C4B9;}
	.st16{fill-rule:evenodd;clip-rule:evenodd;fill:#EEA199;}
	.st17{fill-rule:evenodd;clip-rule:evenodd;fill:#873F43;}
	.st18{fill-rule:evenodd;clip-rule:evenodd;fill:#171F20;}
	.st19{fill-rule:evenodd;clip-rule:evenodd;fill:#8D6E61;}
	.st20{fill-rule:evenodd;clip-rule:evenodd;fill:#FDFCFB;}
	.st21{fill-rule:evenodd;clip-rule:evenodd;fill:#928E8B;}
	.st22{fill-rule:evenodd;clip-rule:evenodd;fill:#908E8A;}
</style>
<g id="easy-distribution">
	<polygon id="Fill-992" class="st0" points="82.4,197.4 132.2,197.4 132.2,113.2 82.4,113.2 	"/>
	<polygon id="Fill-1001" class="st0" points="172.3,268.6 211.5,268.6 211.5,200.8 172.3,200.8 	"/>
	<polygon id="Fill-1004" class="st0" points="128.3,199.4 170.8,199.4 170.8,124.2 128.3,124.2 	"/>
	<path id="Fill-1031" class="st1" d="M487.4,423.4c0,0.2-106.8,0.3-238.4,0.3c-131.7,0-238.5-0.1-238.5-0.3
		c0-0.2,106.7-0.3,238.5-0.3C380.6,423.1,487.4,423.3,487.4,423.4"/>
	<path id="Fill-1040" class="st2" d="M207.4,108.4H53.5c-2.4,0-4.3-1.9-4.3-4.3V67.6c0-2.4,1.9-4.3,4.3-4.3h153.9
		c2.4,0,4.3,1.9,4.3,4.3v36.5C211.7,106.5,209.8,108.4,207.4,108.4"/>
	<path id="Fill-1041" class="st3" d="M83.8,94c-3.5,4.3-9.8,5-14.2,1.6c-4.3-3.5-5.1-9.8-1.6-14.2c3.5-4.3,9.8-5,14.2-1.6
		C86.5,83.3,87.2,89.6,83.8,94"/>
	<path id="Fill-1042" class="st4" d="M81.2,84.7c0.1,0.1-2.2,2.7-5.1,5.6c-0.4,0.4-0.8,0.8-1.3,1.2l-0.2,0.2l-0.2-0.2
		c-2.3-2.4-3.9-4.3-3.8-4.4c0.1-0.1,1.9,1.6,4.3,3.9l-0.4,0c0.4-0.4,0.8-0.8,1.2-1.3C78.6,86.9,81.1,84.6,81.2,84.7"/>
	<path id="Fill-1043" class="st3" d="M195.1,82.9c0,0.2-20.4,0.3-45.7,0.3c-25.2,0-45.7-0.1-45.7-0.3c0-0.2,20.4-0.3,45.7-0.3
		C174.6,82.6,195.1,82.8,195.1,82.9"/>
	<path id="Fill-1044" class="st3" d="M158.3,91.2c0,0.2-11.9,0.3-26.7,0.3S105,91.4,105,91.2c0-0.2,11.9-0.3,26.7-0.3
		S158.3,91.1,158.3,91.2"/>
	<path id="Fill-1045" class="st5" d="M207.4,160.6H53.5c-2.4,0-4.3-1.9-4.3-4.3v-36.5c0-2.4,1.9-4.3,4.3-4.3h153.9
		c2.4,0,4.3,1.9,4.3,4.3v36.5C211.7,158.7,209.8,160.6,207.4,160.6"/>
	<path id="Fill-1046" class="st3" d="M83.8,146.2c-3.5,4.3-9.8,5-14.2,1.6c-4.3-3.5-5.1-9.8-1.6-14.2c3.5-4.3,9.8-5,14.2-1.6
		C86.5,135.5,87.2,141.8,83.8,146.2"/>
	<path id="Fill-1047" class="st4" d="M81.2,135.7c0.1,0.1-2.2,2.7-5.1,5.6c-0.4,0.4-0.8,0.8-1.3,1.2l-0.2,0.2l-0.2-0.2
		c-2.3-2.4-3.9-4.3-3.8-4.4c0.1-0.1,1.9,1.6,4.3,3.9l-0.4,0c0.4-0.4,0.8-0.8,1.2-1.3C78.6,137.9,81.1,135.6,81.2,135.7"/>
	<path id="Fill-1048" class="st3" d="M195.1,135.1c0,0.2-20.4,0.3-45.7,0.3c-25.2,0-45.7-0.1-45.7-0.3c0-0.2,20.4-0.3,45.7-0.3
		C174.6,134.8,195.1,134.9,195.1,135.1"/>
	<path id="Fill-1049" class="st3" d="M158.3,143.4c0,0.2-11.9,0.3-26.7,0.3s-26.7-0.1-26.7-0.3c0-0.2,11.9-0.3,26.7-0.3
		S158.3,143.2,158.3,143.4"/>
	<path id="Fill-1050" class="st6" d="M207.4,212.8H53.5c-2.4,0-4.3-1.9-4.3-4.3V172c0-2.4,1.9-4.3,4.3-4.3h153.9
		c2.4,0,4.3,1.9,4.3,4.3v36.5C211.7,210.9,209.8,212.8,207.4,212.8"/>
	<path id="Fill-1051" class="st3" d="M83.8,197.4c-3.5,4.1-9.8,4.7-14.2,1.5c-4.3-3.3-5.1-9.3-1.6-13.3c3.5-4.1,9.8-4.7,14.2-1.5
		C86.5,187.3,87.2,193.3,83.8,197.4"/>
	<path id="Fill-1052" class="st4" d="M81.2,187.9c0.1,0.1-2.2,2.7-5.1,5.6c-0.4,0.4-0.8,0.8-1.3,1.2l-0.2,0.2l-0.2-0.2
		c-2.3-2.4-3.9-4.3-3.8-4.4c0.1-0.1,1.9,1.6,4.3,3.9l-0.4,0c0.4-0.4,0.8-0.8,1.2-1.3C78.6,190.1,81.1,187.8,81.2,187.9"/>
	<path id="Fill-1053" class="st3" d="M195.1,186.7c0,0.3-20.4,0.6-45.7,0.6c-25.2,0-45.7-0.3-45.7-0.6c0-0.3,20.4-0.6,45.7-0.6
		C174.6,186.1,195.1,186.4,195.1,186.7"/>
	<path id="Fill-1054" class="st3" d="M158.3,195.6c0,0.2-11.9,0.3-26.7,0.3s-26.7-0.1-26.7-0.3c0-0.2,11.9-0.3,26.7-0.3
		S158.3,195.4,158.3,195.6"/>
	<polyline id="Fill-1055" class="st1" points="275,325.4 272.8,423.4 268.5,423.4 268.7,325.6 275,325.4 	"/>
	<polyline id="Fill-1056" class="st1" points="290.7,324.3 311.7,423.4 316.5,423.4 299,324.3 290.7,324.3 	"/>
	<polyline id="Fill-1057" class="st1" points="251.3,325.4 228,423.4 223.2,423.4 244.3,325 251.3,325.4 	"/>
	<path id="Fill-1058" class="st1" d="M318,217.7c0,0,26.7-1.5,24,29.3c-2.7,30.8-4.2,62-14.1,72.7c-9.9,10.7-109.6,11-118,2.3
		c-8.4-8.8,16-8.4,20.6-8.4c4.6,0,32.7,2.7,41.9-21.3C281.4,268.3,279.1,216.1,318,217.7"/>
	<path id="Fill-1059" class="st7" d="M319.7,217.7c0,0,20.4,4.2,18.5,25.5c-1.9,21.3-7.2,58.6-17.1,68.1
		c-9.9,9.5-48.7,11.6-69.7,10.3c-24.4-1.5-39.7-6.2-39.7-6.2s-4.4,2.9-3.1,4.7c1.3,1.8,13.2,9.2,70.8,8c57.6-1.2,53.6-9.7,56-19
		c2.4-9.3,7.4-58.8,6.7-69.6C341.3,228.6,335.8,219.6,319.7,217.7"/>
	<path id="Fill-1060" class="st1" d="M262.4,127.3c6.3-2.4,14.2,0.2,17.8,5.9c2.6,4,3.2,9,5.8,12.9c1.9,2.8,4.6,4.8,6.9,7.3
		c2.3,2.5,4.1,5.7,3.6,9c-0.5,3.1-3.2,5.8-2.6,9c0.5,2.9,3.6,4.8,4.2,7.7c0.7,3.4-2.6,6.6-6,7.1c-3.4,0.5-6.9-0.8-10.1-2.1
		c-3.2-1.3-6.7-2.6-10.1-1.9c-4,0.7-7,3.8-10.5,5.9c-7.2,4.3-17,3.7-23.7-1.4c-2.6-2-4.9-5.1-4.3-8.4c0.6-3,3.5-5.1,4.3-8.1
		c1.3-4.4-2.4-8.9-1.8-13.4c0.7-6.1,8.3-8.9,11-14.4c1.3-2.6,1.4-5.7,2.6-8.4c1.2-2.7,4.2-5.1,6.9-4"/>
	<path id="Fill-1061" class="st8" d="M259.9,182.7c0.4-2.2-0.3-11.3-0.3-11.3s-8.1-1-8.5-9.3c-0.3-8.3,0.5-27.3,0.5-27.3l14.9-7.2
		l13,14.8l0.2,40.1L259.9,182.7"/>
	<path id="Fill-1062" class="st1" d="M252.7,149.5c0,0.6,0.4,1.1,1,1.1c0.6,0,1-0.5,1-1c0-0.6-0.4-1.1-1-1.1
		C253.1,148.4,252.7,148.9,252.7,149.5"/>
	<path id="Fill-1063" class="st1" d="M252,147.6c0.1,0.1,0.9-0.5,2-0.6c1.1-0.1,1.9,0.5,2,0.4c0.1-0.1-0.1-0.3-0.4-0.6
		c-0.4-0.3-1-0.5-1.6-0.5c-0.7,0-1.3,0.3-1.6,0.6C252.1,147.3,251.9,147.5,252,147.6"/>
	<path id="Fill-1064" class="st1" d="M264.7,149.5c0,0.6,0.4,1.1,1,1.1c0.6,0,1-0.5,1.1-1c0-0.6-0.5-1.1-1-1.1
		C265.2,148.4,264.7,148.9,264.7,149.5"/>
	<path id="Fill-1065" class="st1" d="M264.3,147.8c0.1,0.1,0.9-0.5,2-0.6c1.1-0.1,1.9,0.5,2.1,0.4c0.1-0.1-0.1-0.3-0.4-0.6
		c-0.4-0.3-1-0.5-1.6-0.5c-0.7,0-1.3,0.3-1.6,0.6C264.3,147.5,264.2,147.8,264.3,147.8"/>
	<path id="Fill-1066" class="st1" d="M260.1,157.4c0-0.1-0.7-0.2-1.8-0.3c-0.3,0-0.5-0.1-0.6-0.3c-0.1-0.2,0-0.5,0.2-0.9
		c0.3-0.7,0.5-1.5,0.8-2.3c1.1-3.3,1.9-6.1,1.8-6.1c-0.1,0-1.1,2.6-2.2,6c-0.3,0.8-0.5,1.6-0.8,2.4c-0.1,0.3-0.3,0.7-0.1,1.2
		c0.1,0.2,0.3,0.4,0.5,0.4c0.2,0.1,0.3,0,0.5,0.1C259.4,157.4,260.1,157.4,260.1,157.4"/>
	<path id="Fill-1067" class="st9" d="M259.6,171.4c0,0,5.4,0.2,10.7-3.5c0,0-2.5,6-10.6,5.5L259.6,171.4"/>
	<path id="Fill-1068" class="st9" d="M260.5,160.3c0.1-0.7,0.6-1.3,1.3-1.6c0.5-0.2,1-0.2,1.4,0c0.4,0.2,0.7,0.7,0.7,1.2
		c-0.1,0.5-0.6,0.9-1.2,1.1c-0.5,0.1-1.1,0-1.6-0.1c-0.1,0-0.3-0.1-0.4-0.2C260.6,160.6,260.5,160.5,260.5,160.3"/>
	<path id="Fill-1069" class="st1" d="M263.3,157.3c0.1,0,0.2,0.3,0.2,0.8c0,0.5-0.3,1.3-0.9,1.9c-0.6,0.6-1.4,0.8-1.9,0.8
		c-0.5,0-0.8-0.1-0.8-0.2c0-0.2,1.3-0.1,2.3-1C263.1,158.6,263.1,157.3,263.3,157.3"/>
	<path id="Fill-1070" class="st1" d="M250.9,133.9c0.4,4.8,5,8.8,9.8,8.7c-0.7-1.6-1.5-3.3-2.3-4.9c2,2.3,4.1,4.7,6.8,6.1
		c2.7,1.4,6.3,1.5,8.6-0.4c0.8,2,0.7,4.3,1.4,6.3c0.7,2,2.3,10.5,4.5,10.2c2-0.3,3.4-8.8,3.9-10.7c1.4-5.3-0.3-11.1-3.9-15.3
		c-4.2-5-10.8-7.8-17.3-7.3c-2.9,0.2-5.8,1-8,2.8c-2,1.6-3.4,3.8-3.9,6.3"/>
	<path id="Fill-1071" class="st1" d="M239.8,171.2c0,0-0.2,0-0.6-0.1c-0.4-0.1-0.9-0.3-1.5-0.6c-1.3-0.6-3-2-4.3-4.2
		c-1.3-2.2-2-5.6-0.8-8.8c0.6-1.6,1.6-3.2,3-4.4c1.4-1.3,3.2-2.2,5.1-2.6c0.9-0.2,1.8-0.5,2.4-1.1c0.6-0.6,0.8-1.5,0.9-2.4
		c0.1-1.7-0.5-3.4-0.7-5.2c-0.2-1.7,0.2-3.4,1-4.8c0.8-1.4,1.9-2.3,3.1-2.9c1.1-0.6,2.2-1,3.2-1.4c0.9-0.4,1.7-0.8,2.3-1.2
		c1.2-0.8,1.5-1.6,1.6-1.5c0,0-0.1,0.2-0.3,0.5c-0.2,0.3-0.6,0.8-1.2,1.2c-0.6,0.4-1.3,0.9-2.3,1.3c-0.9,0.4-2,0.9-3.1,1.5
		c-1.1,0.6-2.1,1.5-2.8,2.8c-0.7,1.3-1.1,2.8-0.8,4.4c0.2,1.6,0.9,3.3,0.8,5.3c-0.1,0.9-0.4,2-1.1,2.7c-0.7,0.8-1.8,1.1-2.7,1.3
		c-3.8,0.7-6.6,3.6-7.8,6.6c-1.2,3.1-0.6,6.3,0.6,8.4c1.2,2.2,2.8,3.5,4,4.2C239.1,170.9,239.8,171.1,239.8,171.2"/>
	<path id="Fill-1072" class="st1" d="M293.5,182c0,0,0.7-0.5,1.9-1.4c1.2-0.9,3-2.3,4.1-4.7c0.5-1.2,0.7-2.7,0.2-4.2
		c-0.2-0.7-0.6-1.4-1.2-2c-0.6-0.6-1.3-1-2.1-1.4c-1.6-0.9-3-2.7-3-4.8c-0.1-2.1,1.3-3.9,1.7-5.8c0.5-1.9,0-4-0.9-5.6
		c-0.9-1.7-2.2-3.1-3.5-4.2c-2.7-2.3-5.6-3.9-7.5-5.9c-2-1.9-3.1-3.9-3.5-5.4c-0.2-0.7-0.2-1.3-0.3-1.7c0-0.4,0-0.6,0-0.6
		c0.1,0,0,0.9,0.5,2.3c0.5,1.4,1.6,3.3,3.6,5.2c1.9,1.9,4.8,3.5,7.6,5.8c1.4,1.2,2.8,2.6,3.7,4.4c0.9,1.7,1.5,3.9,1,6.1
		c-0.5,2.1-1.8,3.8-1.7,5.7c0,1.9,1.2,3.5,2.7,4.3c0.7,0.5,1.6,0.9,2.2,1.5c0.6,0.6,1.1,1.4,1.3,2.2c0.5,1.6,0.2,3.2-0.3,4.5
		c-0.5,1.3-1.4,2.3-2.1,3c-0.8,0.8-1.6,1.3-2.2,1.7c-0.6,0.4-1.2,0.7-1.5,0.9C293.7,182,293.6,182.1,293.5,182"/>
	<path id="Fill-1073" class="st1" d="M250.7,143.8c1.2-0.9,1.9-2.3,2.3-3.7c0.4-1.4,0.5-2.9,0.5-4.4c0-0.4,0-1-0.5-1.1
		c-0.4-0.1-0.7,0.3-0.9,0.7c-1.4,2.7-2,5.9-1.5,8.9l0.3-0.2"/>
	<path id="Fill-1074" class="st4" d="M229.7,417.9l-0.2-10l18.7-0.5l0.5,14.6l-1.2,0.1c-5.1,0.4-26.2,1.8-29.6,0.8
		C213.9,421.9,229.7,417.9,229.7,417.9"/>
	<g id="Group-1077" transform="translate(264.930000, 406.476000)">
		<g id="Clip-1076">
		</g>
		<defs>
			<filter id="Adobe_OpacityMaskFilter" filterUnits="userSpaceOnUse" x="-23.1" y="10.1" width="6.7" height="5.3">
				<feColorMatrix  type="matrix" values="1 0 0 0 0  0 1 0 0 0  0 0 1 0 0  0 0 0 1 0"/>
			</filter>
		</defs>
		<mask maskUnits="userSpaceOnUse" x="-23.1" y="10.1" width="6.7" height="5.3" id="mask-2_1_">
			<g class="st10">
				<path id="path-1_1_" class="st11" d="M-23.1,15.4c0.3-1.5,1.1-2.9,2.2-3.8c1.1-0.9,2.5-1.5,4-1.5c0.1,0,0.2,0,0.3,0l0.1,5.2
					l0-0.1L-23.1,15.4L-23.1,15.4z"/>
			</g>
		</mask>
		<polygon id="Fill-1075" class="st12" points="-23.1,15.4 -16.4,15.4 -16.4,10.1 -23.1,10.1 		"/>
	</g>
	<path id="Fill-1078" class="st3" d="M230.7,423.1c6.7-0.3,14-0.8,16.7-1l1.2-0.1C244.2,422.5,237.1,422.9,230.7,423.1L230.7,423.1"
		/>
	<path id="Fill-1079" class="st13" d="M230.7,423.1C230.7,423.1,230.7,423.1,230.7,423.1L230.7,423.1
		C230.7,423.1,230.7,423.1,230.7,423.1"/>
	<path id="Fill-1080" class="st3" d="M218,423c-0.4-0.1-0.7-0.1-0.8-0.2c-0.1-0.1-0.1-0.3,0-0.4c-0.1,0.2,0,0.4,0.6,0.6
		C217.8,423,217.9,423,218,423 M220.7,420.6c0.8-0.3,1.3-0.5,1.3-0.5C221.5,420.3,221.1,420.5,220.7,420.6"/>
	<path id="Fill-1081" class="st14" d="M223.8,423.2c-2.7,0-4.8-0.1-5.9-0.2c-0.1,0-0.1,0-0.2,0c-0.5-0.1-0.7-0.4-0.6-0.6
		c0.4-0.6,2.2-1.3,3.4-1.8c0.4-0.2,0.9-0.3,1.3-0.5c1.1,0,1.7,2.4,1.7,2.4l18.2-0.7c0,0.1,0,0.1,0,0.2l6.7-0.3v0l0,0.3l-1.2,0.1
		c-2.7,0.2-10,0.7-16.7,1c0,0,0,0,0,0C228.2,423.2,225.9,423.2,223.8,423.2"/>
	<path id="Fill-1082" class="st15" d="M241.8,422.1c0-0.1,0-0.1,0-0.2l6.7-0.2l0,0.1v0L241.8,422.1"/>
	<path id="Fill-1083" class="st1" d="M248.8,421.6c0,0-0.1,0-0.3,0c-0.3,0-0.6,0.1-0.9,0.1c-0.9,0.1-2.1,0.1-3.4,0.2
		c-2.9,0.2-6.8,0.4-11.2,0.5c-4.4,0.1-8.3,0.1-11.2,0.1c-1.3,0-2.5,0-3.4,0c-0.3,0-0.6,0-0.9,0c-0.2,0-0.3,0-0.3,0c0,0,0.1,0,0.3,0
		c0.3,0,0.6,0,0.9,0c0.9,0,2.1,0,3.4,0c2.9,0,6.8-0.1,11.2-0.2c4.4-0.1,8.3-0.3,11.2-0.4c1.3-0.1,2.5-0.1,3.4-0.2c0.3,0,0.6,0,0.9,0
		C248.7,421.6,248.8,421.6,248.8,421.6"/>
	<path id="Fill-1084" class="st1" d="M223.7,422.8c-0.1,0-0.1-0.8-0.7-1.6c-0.5-0.8-1.2-1.2-1.2-1.3c0-0.1,0.8,0.3,1.4,1.1
		C223.8,421.9,223.8,422.8,223.7,422.8"/>
	<path id="Fill-1085" class="st1" d="M229.1,419.9c-0.1,0-0.3-0.3-0.6-0.7c-0.3-0.4-0.5-0.8-0.4-0.8c0.1,0,0.3,0.3,0.6,0.7
		C229,419.4,229.2,419.8,229.1,419.9"/>
	<path id="Fill-1086" class="st1" d="M230.6,419c0,0-0.3-0.1-0.7-0.4c-0.3-0.3-0.6-0.5-0.5-0.6c0,0,0.3,0.1,0.7,0.4
		C230.4,418.7,230.7,419,230.6,419"/>
	<path id="Fill-1087" class="st1" d="M231.5,417.2c0,0.1-0.4,0.1-1,0.2c-0.5,0-1,0-1-0.1c0-0.1,0.4-0.1,1-0.1
		C231.1,417.1,231.5,417.2,231.5,417.2"/>
	<path id="Fill-1088" class="st1" d="M231.8,416c0,0.1-0.5,0.3-1.1,0.3c-0.6,0.1-1.1-0.1-1.1-0.1c0-0.1,0.5,0,1.1-0.1
		C231.3,416,231.8,415.9,231.8,416"/>
	<path id="Fill-1089" class="st1" d="M228.5,418.2c0,0-0.5,0.1-1.2,0c-0.4,0-0.8-0.1-1.3-0.2c-0.2-0.1-0.5-0.1-0.7-0.3
		c-0.1-0.1-0.3-0.2-0.3-0.4c-0.1-0.2,0-0.4,0.2-0.5c1.1-0.6,2.3,0,2.7,0.6c0.2,0.3,0.4,0.6,0.4,0.8c0.1,0.2,0.1,0.3,0,0.3
		c0,0-0.1-0.5-0.6-1c-0.2-0.3-0.6-0.5-1-0.6c-0.4-0.1-1-0.1-1.4,0.1c-0.2,0.1-0.1,0.4,0.1,0.5c0.2,0.1,0.5,0.2,0.7,0.3
		c0.5,0.1,0.9,0.2,1.2,0.3C228,418.2,228.5,418.2,228.5,418.2"/>
	<path id="Fill-1090" class="st1" d="M228.2,418.3c0,0-0.2-0.3-0.2-0.8c0-0.3,0.1-0.6,0.3-0.9c0.2-0.3,0.5-0.6,1-0.6
		c0.3,0,0.4,0.3,0.4,0.5c0,0.2-0.1,0.4-0.2,0.5c-0.2,0.3-0.4,0.6-0.5,0.7C228.6,418.2,228.3,418.3,228.2,418.3
		c0.1-0.1,0.3-0.2,0.7-0.6c0.2-0.2,0.3-0.4,0.5-0.7c0.2-0.3,0.3-0.7,0-0.8c-0.3,0-0.6,0.3-0.8,0.5c-0.2,0.3-0.3,0.5-0.3,0.8
		C228.1,418,228.2,418.3,228.2,418.3"/>
	<path id="Fill-1091" class="st1" d="M248.3,416.5c0,0-0.5,0-1.4,0.1c-0.8,0.1-2,0.5-3,1.3c-1,0.8-1.6,1.9-1.8,2.7
		c-0.3,0.8-0.3,1.3-0.3,1.3c0,0,0-0.1,0-0.4c0-0.2,0.1-0.6,0.2-1c0.2-0.8,0.8-2,1.8-2.8c1-0.9,2.2-1.2,3.1-1.3c0.4,0,0.8,0,1,0
		C248.2,416.4,248.3,416.5,248.3,416.5"/>
	<path id="Fill-1092" class="st1" d="M246.2,408.8c0.1,0,0.2,1.7,0.3,3.8c0.1,2.1,0.1,3.8,0,3.8c-0.1,0-0.2-1.7-0.3-3.8
		C246.1,410.5,246.1,408.8,246.2,408.8"/>
	<path id="Fill-1093" class="st1" d="M239.4,420.3c0,0.1-1.2,0.3-2.7,0.3c-1.5,0.1-2.7-0.1-2.7-0.1c0-0.1,1.2,0,2.7-0.1
		C238.2,420.4,239.4,420.2,239.4,420.3"/>
	<path id="Fill-1094" class="st1" d="M243.1,420.2c0.1,0-0.1,0.3-0.2,0.5c-0.1,0.3-0.2,0.5-0.2,0.5c-0.1,0-0.1-0.3,0-0.6
		C242.8,420.3,243,420.2,243.1,420.2"/>
	<path id="Fill-1095" class="st1" d="M244.4,418.4c0,0-0.1,0.2-0.3,0.4c-0.2,0.2-0.4,0.3-0.4,0.3c0,0,0.1-0.2,0.3-0.4
		C244.2,418.5,244.4,418.4,244.4,418.4"/>
	<path id="Fill-1096" class="st1" d="M246.4,417.6c0,0.1-0.3,0.1-0.5,0.2c-0.3,0.1-0.5,0.3-0.5,0.2c0,0,0.1-0.3,0.4-0.4
		C246.1,417.4,246.4,417.6,246.4,417.6"/>
	<path id="Fill-1097" class="st1" d="M247.7,417.2c0,0.1-0.1,0.2-0.2,0.2c-0.2,0.1-0.3,0.1-0.3,0c0-0.1,0.1-0.2,0.2-0.2
		C247.6,417.1,247.7,417.1,247.7,417.2"/>
	<path id="Fill-1098" class="st4" d="M181.7,360.5l4.6-9.6l18.1,8.6l-6.6,14.1l-1.2-0.5c-5.1-2.1-25.8-11-28.7-13.5
		C164.7,356.7,181.7,360.5,181.7,360.5"/>
	<path id="Fill-1099" class="st16" d="M196.3,370.5L196.3,370.5l0.1-0.2l-6.9-3.2c1-1.4,2.6-2.3,4.2-2.7c0.6-0.1,1.1-0.2,1.7-0.2
		c1.2,0,2.4,0.3,3.5,0.9L196.3,370.5"/>
	<path id="Fill-1100" class="st3" d="M197.8,373.6c-4.5-1.7-11.5-4.7-17.6-7.6c6.5,3,13.7,6,16.5,7.2L197.8,373.6 M168.1,359.7
		c-0.4-0.3-0.6-0.5-0.6-0.6c0-0.2,0.1-0.3,0.2-0.4c-0.2,0.2-0.2,0.4,0.2,0.8C168,359.6,168,359.6,168.1,359.7 M173.3,358.9
		c-0.5-0.1-1-0.1-1.5-0.2C172.7,358.8,173.3,358.9,173.3,358.9C173.3,358.9,173.3,358.9,173.3,358.9"/>
	<path id="Fill-1101" class="st14" d="M197.8,373.6l-1.2-0.5c-2.7-1.1-9.9-4.2-16.5-7.2c-5.6-2.6-10.4-5.1-12.1-6.3
		c0,0-0.1-0.1-0.1-0.1c-0.4-0.4-0.5-0.7-0.2-0.8c0.3-0.2,0.9-0.2,1.5-0.2c0.8,0,1.8,0.1,2.6,0.2c0.5,0.1,1,0.1,1.5,0.2
		c1,0.5,0.5,3.1,0.5,3.1l17.6,8.2c0,0.1-0.1,0.1-0.1,0.2l6.6,3L197.8,373.6"/>
	<path id="Fill-1102" class="st15" d="M196.3,370.5l-7-3.1c0.1-0.1,0.1-0.1,0.1-0.2l6.9,3.2L196.3,370.5"/>
	<path id="Fill-1103" class="st1" d="M198.2,373.3c0,0-0.1,0-0.3-0.1c-0.3-0.1-0.6-0.2-0.9-0.4c-0.9-0.4-2-0.9-3.4-1.4
		c-2.8-1.2-6.7-2.9-10.9-4.9c-4.2-2-8-3.9-10.8-5.3c-1.3-0.7-2.3-1.2-3.2-1.7c-0.3-0.2-0.6-0.3-0.9-0.5c-0.2-0.1-0.3-0.2-0.3-0.2
		c0,0,0.1,0,0.3,0.1c0.3,0.1,0.6,0.3,0.9,0.4c0.9,0.4,2,1,3.2,1.6c2.8,1.4,6.6,3.2,10.8,5.2c4.2,2,8.1,3.7,10.9,5
		c1.3,0.6,2.4,1.1,3.3,1.5c0.3,0.2,0.6,0.3,0.9,0.4C198.1,373.2,198.2,373.3,198.2,373.3"/>
	<path id="Fill-1104" class="st1" d="M173.7,362.2c-0.1,0,0.2-0.8,0.1-1.9c-0.1-1-0.6-1.7-0.5-1.8c0,0,0.7,0.7,0.8,1.8
		C174.2,361.5,173.7,362.3,173.7,362.2"/>
	<path id="Fill-1105" class="st1" d="M180.3,362.1c-0.1,0-0.2-0.4-0.2-1c-0.1-0.5-0.1-1,0-1c0.1,0,0.2,0.4,0.2,1
		C180.3,361.6,180.3,362.1,180.3,362.1"/>
	<path id="Fill-1106" class="st1" d="M182.1,362c-0.1,0-0.3-0.3-0.4-0.7c-0.2-0.4-0.3-0.8-0.2-0.8c0.1,0,0.3,0.3,0.4,0.7
		C182.1,361.6,182.2,362,182.1,362"/>
	<path id="Fill-1107" class="st1" d="M183.8,360.7c0,0.1-0.5-0.1-1-0.3c-0.5-0.2-0.9-0.5-0.9-0.5c0-0.1,0.5,0.1,1,0.3
		C183.5,360.4,183.9,360.7,183.8,360.7"/>
	<path id="Fill-1108" class="st1" d="M184.7,359.7c0,0.1-0.6,0.1-1.2-0.2c-0.6-0.2-1.1-0.6-1-0.7c0-0.1,0.5,0.2,1.1,0.4
		C184.2,359.5,184.7,359.6,184.7,359.7"/>
	<path id="Fill-1109" class="st1" d="M180.4,360.2c0,0-0.5-0.1-1.2-0.6c-0.3-0.2-0.7-0.5-1.1-0.9c-0.2-0.2-0.4-0.4-0.6-0.6
		c-0.1-0.1-0.2-0.3-0.1-0.5c0-0.2,0.2-0.3,0.4-0.4c1.4,0,2.2,1.1,2.3,1.9c0.1,0.4,0.1,0.7,0,1c0,0.2-0.1,0.3-0.1,0.3
		c0,0,0.1-0.5-0.1-1.2c-0.1-0.4-0.3-0.8-0.7-1.1c-0.3-0.3-0.9-0.6-1.4-0.6c-0.2,0-0.3,0.3-0.1,0.5c0.1,0.2,0.3,0.4,0.5,0.6
		c0.4,0.4,0.7,0.7,1,0.9C180,360,180.4,360.2,180.4,360.2"/>
	<path id="Fill-1110" class="st1" d="M180.1,360.1c0,0,0-0.4,0.2-0.9c0.2-0.2,0.4-0.5,0.7-0.7c0.3-0.2,0.8-0.4,1.2-0.1
		c0.3,0.2,0.2,0.5,0.1,0.7c-0.1,0.2-0.3,0.3-0.4,0.4c-0.3,0.2-0.6,0.4-0.9,0.4c-0.5,0.2-0.9,0.2-0.9,0.2c0,0,0.3-0.1,0.8-0.3
		c0.2-0.1,0.5-0.3,0.8-0.5c0.3-0.2,0.6-0.6,0.3-0.7c-0.3-0.2-0.7,0-1,0.1c-0.3,0.2-0.5,0.4-0.7,0.6
		C180.2,359.8,180.1,360.1,180.1,360.1"/>
	<path id="Fill-1111" class="st1" d="M198.8,365c0,0-0.5-0.3-1.4-0.6c-0.9-0.3-2.3-0.5-3.7-0.2c-1.4,0.3-2.5,1.1-3.2,1.8
		c-0.7,0.7-1,1.2-1,1.2c0,0,0-0.1,0.2-0.4c0.1-0.2,0.4-0.6,0.7-0.9c0.6-0.7,1.8-1.6,3.3-1.9c1.5-0.3,2.9-0.1,3.8,0.3
		c0.5,0.2,0.8,0.4,1,0.5C198.7,364.9,198.8,365,198.8,365"/>
	<path id="Fill-1112" class="st1" d="M201.9,359.7c0.1,0-0.7,1.7-1.6,3.8c-0.9,2.1-1.8,3.7-1.8,3.7c-0.1,0,0.7-1.7,1.6-3.8
		C201,361.4,201.8,359.7,201.9,359.7"/>
	<path id="Fill-1113" class="st1" d="M187.8,364.3c0,0.1-1.4-0.3-2.9-1c-1.6-0.7-2.7-1.5-2.7-1.5c0-0.1,1.2,0.6,2.8,1.3
		C186.6,363.8,187.9,364.2,187.8,364.3"/>
	<path id="Fill-1114" class="st1" d="M191.6,366.1c0,0.1-0.2,0.2-0.5,0.4c-0.3,0.2-0.5,0.4-0.5,0.4c-0.1,0,0.1-0.3,0.4-0.6
		C191.2,366.1,191.6,366,191.6,366.1"/>
	<path id="Fill-1115" class="st1" d="M193.8,365c0,0.1-0.2,0.2-0.5,0.3c-0.3,0.1-0.5,0.1-0.6,0.1c0-0.1,0.2-0.2,0.5-0.3
		C193.5,365,193.8,364.9,193.8,365"/>
	<path id="Fill-1116" class="st1" d="M196.2,365.1c0,0.1-0.3-0.1-0.6-0.1c-0.3,0-0.6,0-0.6,0c0-0.1,0.3-0.3,0.7-0.2
		C196,364.8,196.3,365.1,196.2,365.1"/>
	<path id="Fill-1117" class="st1" d="M197.8,365.4c0,0.1-0.2,0.1-0.4,0.1c-0.2,0-0.3-0.1-0.3-0.2c0-0.1,0.2-0.1,0.4-0.1
		C197.7,365.3,197.8,365.4,197.8,365.4"/>
	<path id="Fill-1118" class="st4" d="M313.4,220.9l-4.2-21.3c-3.1-17.4-27.6-18.6-27.6-18.6l-19.2-0.3c0,0-14.2-1.9-23,8
		c-9.1,10.2-20.2,22.3-20.2,22.3l8.5,21.4l20.2-16.7c0,0-2.7,4.4-2.7,9.7c0,5.7,5.9,8.3,5.9,8.3l1.8,17.3l-6,27.9l62.6-2.5
		c-1.2-10.1-4.4-18.8-9.2-26.3l1.2-29.2H313.4"/>
	<path id="Fill-1119" class="st1" d="M286.6,197c0,0,0.2,0.5,0.3,1.4c0.2,1,0.5,2.3,0.7,3.7c0.6,3.3,1.5,7.6,2.4,12.3
		c0.9,4.8,1.7,9.2,2.2,12.4c0.2,1.6,0.4,2.9,0.5,3.8c0.1,0.9,0.1,1.4,0.1,1.4c0,0-0.2-0.5-0.3-1.4c-0.2-1-0.4-2.3-0.7-3.7
		c-0.6-3.3-1.5-7.6-2.4-12.3c-0.9-4.8-1.7-9.2-2.2-12.4c-0.2-1.6-0.4-2.9-0.5-3.8C286.5,197.5,286.5,197,286.6,197"/>
	<path id="Fill-1120" class="st1" d="M313.8,219.8c0,0.2-5.2,0.3-11.6,0.3c-6.4,0-11.6-0.1-11.6-0.3c0-0.2,5.2-0.3,11.6-0.3
		C308.6,219.5,313.8,219.6,313.8,219.8"/>
	<path id="Fill-1121" class="st8" d="M316.1,239.1c-1.2-10.2-2.9-19-2.9-19h-22.2c0,0,2.8,13,2.1,16c-0.5,2.6-43.5,4.4-54.7,4.5
		c-0.3-0.2-0.7-0.2-1.1-0.1c-0.5,0.1-1,0.1-1.4-0.3c-0.8-0.7-1.4-1.5-1.9-2.3c-0.6-1.1-1.4-2.5-1.5-3.5c-0.2-1.2-1.7-1.4-2.1-0.5
		c-0.4,1,0.1,4.2,2.2,7.2c2.1,3.1-3.4,1.5-5.5,0.9c-2-0.5-8.4-1.9-9.1-1.4c-1,0.7-0.4,2,1.7,2.5c2.1,0.5,8.1,2.4,7.8,3.5
		c-0.3,1.1-10.7-1.9-10.7-1.9s-2.1-1-2.5,0.3c-0.8,2.3,10.5,4.5,11.5,4.7c0.7,0.1,0.4,1.3-0.4,1.1c-0.8-0.2-10.3-3.2-11.1-0.9
		c-0.6,1.8,9.2,2,10.9,3.7c0.8,0.9-1.1,0.6-3.2,0.4c-2.1-0.2-4.5-0.5-4.8,0.4c-0.2,0.6,3.6,0.9,9,1.7c5.1,0.7,14.5,0.6,16.8,0.6
		c12.6,0.7,57.1,1.6,66.6,0.9C320.7,257,316.6,242.6,316.1,239.1"/>
	<path id="Fill-1122" class="st1" d="M245.7,221.5c-0.1,0,0.2-1.1,0.7-2.9c0.3-0.9,0.6-1.9,1-3.1c0.2-0.6,0.4-1.2,0.7-1.8
		c0.1-0.3,0.3-0.6,0.4-0.9c0.1-0.3,0.1-0.6,0.1-0.9c0-0.6-0.2-1.3-0.3-2c-0.1-0.6-0.2-1.3-0.3-1.9c-0.2-1.1-0.4-2.2-0.6-3.2
		c-0.3-1.8-0.4-2.9-0.4-3c0.1,0,0.4,1.1,0.8,2.9c0.2,1,0.4,2,0.7,3.2c0.1,0.6,0.2,1.2,0.4,1.9c0.1,0.6,0.3,1.3,0.3,2.1
		c0,0.4,0,0.8-0.1,1.1c-0.1,0.4-0.3,0.7-0.4,0.9c-0.3,0.6-0.5,1.2-0.7,1.8c-0.4,1.1-0.8,2.1-1.1,3
		C246.2,220.5,245.7,221.5,245.7,221.5"/>
	<path id="Fill-1123" class="st1" d="M271.5,140.6c1.7,2.2,3.5,4.7,3.2,7.5c-0.3,2.4-2.2,4.6-1.9,7c0.4,2.8,3.6,4.6,3.8,7.4
		c0.1,2.3-1.9,4.1-3.3,6c-2,2.7-3.1,6.1-2.6,9.5c0.5,3.3,2.5,6.4,5.4,8.1c2.9,1.6,6.7,1.7,9.6-0.1c2.7-1.6,4.3-4.5,5.3-7.4
		c1.3-3.8,1.7-8.3-0.6-11.7c-0.9-1.4-2.3-2.5-2.6-4.1c-0.4-2,1.1-4,1.3-6c0.3-2.8-1.6-5.3-3.7-7.1c-2.1-1.8-4.6-3.3-6.2-5.6"/>
	<path id="Fill-1124" class="st17" d="M288.7,237.5c-0.2-11.9-0.7-22.8-1.5-34.7c0.5,3.1,1.3,7.2,2.1,11.8c0.9,4.8,1.8,9,2.4,12.3
		c0.3,1.5,0.5,2.7,0.7,3.7c0.2,0.9,0.3,1.4,0.3,1.4c0,0,0-0.5-0.1-1.4c-0.1-0.9-0.3-2.2-0.5-3.8c-0.3-1.8-0.7-3.9-1.1-6.2
		c0.6,3.1,1.2,6,1.6,8.6c0.1,0.8,0.2,1.5,0.3,2.2c0.2,2,0.3,3.6,0.2,4.7c-0.5,0.4-1,0.6-1.6,0.8
		C290.9,237.1,289.9,237.3,288.7,237.5C288.8,237.5,288.8,237.5,288.7,237.5"/>
	<path id="Fill-1125" class="st18" d="M292.8,232c0,0-0.2-0.5-0.3-1.4c-0.2-1-0.4-2.3-0.7-3.7c-0.6-3.3-1.5-7.6-2.4-12.3
		c-0.9-4.5-1.6-8.6-2.1-11.8c0,0,0,0,0,0c1.2,5.5,2.6,11.5,3.7,17c-0.2,0-0.4,0.1-0.4,0.1c0,0,0.1,0.1,0.4,0.1
		c0,0.2,0.1,0.4,0.1,0.7c0.4,2.4,0.8,4.5,1.1,6.2c0.2,1.6,0.4,2.9,0.5,3.8C292.9,231.5,292.9,232,292.8,232"/>
	<path id="Fill-1126" class="st18" d="M291,219.9c-0.3,0-0.4-0.1-0.4-0.1c0,0,0.1-0.1,0.4-0.1C291,219.8,291,219.9,291,219.9"/>
	<path id="Fill-1127" class="st19" d="M288.8,237.5c1.2-0.2,2.1-0.4,2.9-0.6C290.8,237.2,289.8,237.4,288.8,237.5 M293,231.4
		c-0.1-0.7-0.2-1.5-0.3-2.2C292.9,229.9,292.9,230.7,293,231.4"/>
	<path id="Fill-1128" class="st20" d="M258.4,197.3c-0.2,0-0.1-1.3,0.3-2.7c0.4-1.4,1-2.5,1.2-2.4c0.2,0.1-0.2,1.2-0.6,2.6
		C258.8,196.2,258.6,197.3,258.4,197.3"/>
	<path id="Fill-1129" class="st20" d="M245.8,197.3c-0.1,0.1-0.9-0.3-1.8-1.1c-0.8-0.8-1.3-1.6-1.2-1.7c0.1-0.1,0.8,0.5,1.6,1.3
		C245.2,196.5,245.9,197.1,245.8,197.3"/>
	<path id="Fill-1130" class="st20" d="M233.7,207.1c0,0-0.1-0.1-0.2-0.3l0.3,0c0.1,0.5,0.2,1.6,0,2.9c-0.3,1.8-1.1,3.1-1.2,3
		c-0.2-0.1,0.3-1.4,0.6-3.1c0.2-1.2,0.3-2.3,0.3-2.8l0.3,0C233.8,207,233.8,207.1,233.7,207.1"/>
	<path id="Fill-1131" class="st20" d="M233.2,219.4c-0.1,0.2-1.2-0.1-2.6-0.7c-1.4-0.5-2.4-1.1-2.4-1.3c0.1-0.2,1.2,0.1,2.6,0.7
		C232.2,218.7,233.3,219.3,233.2,219.4"/>
	<path id="Fill-1132" class="st20" d="M243.4,212.6c-0.2,0-0.1-1.1,0.2-2.3c0.4-1.2,0.9-2.1,1.1-2c0.2,0.1-0.1,1-0.5,2.2
		C243.8,211.7,243.5,212.6,243.4,212.6"/>
	<path id="Fill-1133" class="st20" d="M254.1,185.6c0,0.2-0.9,0.4-2,0.4c-1.1,0.1-2,0-2-0.2c0-0.2,0.9-0.4,2-0.4
		S254.1,185.4,254.1,185.6"/>
	<path id="Fill-1134" class="st20" d="M256.3,208.8c-0.1,0.1-1.1-0.6-1.7-1.9c-0.7-1.3-0.6-2.5-0.5-2.5c0.2,0,0.4,1.1,1,2.2
		C255.7,207.8,256.4,208.6,256.3,208.8"/>
	<path id="Fill-1135" class="st20" d="M277.3,203.8c0.1,0.1-0.6,1.1-1.8,2c-1.1,1-2.2,1.6-2.3,1.4c-0.1-0.1,0.8-1,1.9-1.9
		C276.3,204.4,277.2,203.7,277.3,203.8"/>
	<path id="Fill-1136" class="st20" d="M266.9,200.5c0.1,0.1-0.6,0.8-1.5,1.5c-0.9,0.7-1.7,1.1-1.8,1c-0.1-0.1,0.6-0.8,1.5-1.5
		C266,200.8,266.8,200.4,266.9,200.5"/>
	<path id="Fill-1137" class="st20" d="M272,192c-0.1,0.1-1.3-0.3-2.5-1.4c-1.2-1-1.9-2.2-1.8-2.3c0.1-0.1,1,0.8,2.2,1.8
		C271.1,191.2,272.1,191.9,272,192"/>
	<path id="Fill-1138" class="st20" d="M284,188.7c0.1,0.1-0.6,0.8-1.5,1.5c-0.9,0.7-1.8,1.2-1.9,1c-0.1-0.1,0.6-0.8,1.5-1.5
		C283.1,189,283.9,188.6,284,188.7"/>
	<path id="Fill-1139" class="st20" d="M294,193.4c-0.2-0.1,0.1-1.2,0.4-2.5c0.3-1.4,0.4-2.5,0.6-2.5c0.2,0,0.3,1.2,0,2.6
		S294.2,193.5,294,193.4"/>
	<path id="Fill-1140" class="st20" d="M295.8,204.9c-0.1,0.1-1.2-0.7-2.4-1.8c-1.2-1.1-2.1-2.1-2-2.2c0.1-0.1,1.2,0.7,2.4,1.8
		C295,203.7,295.9,204.7,295.8,204.9"/>
	<path id="Fill-1141" class="st20" d="M303.9,200.1c-0.2-0.1,0.2-1.1,0.7-2.4c0.5-1.3,1.1-2.2,1.3-2.2c0.2,0.1-0.1,1.1-0.7,2.4
		C304.6,199.2,304,200.1,303.9,200.1"/>
	<path id="Fill-1142" class="st20" d="M304.3,213.8c-0.2-0.1,0.4-1.3,1.2-2.8c0.8-1.4,1.5-2.5,1.7-2.5c0.1,0.1-0.4,1.3-1.2,2.8
		C305.2,212.8,304.5,213.9,304.3,213.8"/>
	<path id="Fill-1143" class="st20" d="M296.3,215.9c-0.1,0.1-0.9-0.8-1.8-1.9c-0.9-1.2-1.5-2.2-1.3-2.3c0.1-0.1,0.9,0.8,1.8,1.9
		C295.9,214.8,296.5,215.8,296.3,215.9"/>
	<path id="Fill-1144" class="st20" d="M281.2,221.8c-0.1-0.1,0.5-1.7,1.6-3.4c1.2-1.7,2.4-2.9,2.5-2.8c0.1,0.1-0.9,1.5-2,3.2
		C282.2,220.4,281.4,221.8,281.2,221.8"/>
	<path id="Fill-1145" class="st20" d="M270.4,220.7c-0.2,0.1-0.9-1.2-1.7-2.7c-0.8-1.6-1.3-2.9-1.1-3c0.2-0.1,0.9,1.2,1.7,2.7
		C270,219.2,270.5,220.6,270.4,220.7"/>
	<path id="Fill-1146" class="st20" d="M256.7,217.5c0.1,0.1-1,1.3-2.5,2.6c-1.5,1.3-2.8,2.2-2.9,2.1c-0.1-0.1,1-1.3,2.5-2.6
		C255.3,218.3,256.6,217.4,256.7,217.5"/>
	<path id="Fill-1147" class="st20" d="M261.9,232.3c-0.1,0.1-1.1-1-2.4-2.3c-1.3-1.3-2.4-2.3-2.3-2.4c0.1-0.1,1.4,0.7,2.7,2
		C261.3,230.9,262.1,232.2,261.9,232.3"/>
	<path id="Fill-1148" class="st20" d="M271.5,232.8c-0.2,0,0.2-1.5,1.1-3c0.9-1.5,2-2.5,2.1-2.4c0.1,0.1-0.7,1.2-1.6,2.7
		C272.2,231.5,271.6,232.8,271.5,232.8"/>
	<path id="Fill-1149" class="st20" d="M284.9,234.3c-0.1,0.1-1.4-0.8-2.9-2.1c-1.5-1.3-2.6-2.4-2.5-2.5c0.1-0.1,1.4,0.8,2.9,2.1
		C283.9,233,285,234.2,284.9,234.3"/>
	<path id="Fill-1150" class="st20" d="M283.7,199c-0.1,0.1-1.3-0.3-2.5-1.2c-1.2-0.9-2-1.9-1.9-2c0.1-0.1,1.1,0.7,2.3,1.5
		C282.8,198.2,283.8,198.9,283.7,199"/>
	<path id="Fill-1151" class="st20" d="M264.3,259.8c0.1,0.2-0.9,0.7-2,1.5c-1.1,0.8-1.9,1.5-2,1.4c-0.1-0.1,0.5-1.1,1.6-1.9
		C263.1,259.9,264.3,259.6,264.3,259.8"/>
	<path id="Fill-1152" class="st20" d="M278.7,265.7c-0.2,0.1-0.7-1.1-1.3-2.5c-0.5-1.5-0.8-2.7-0.7-2.8c0.2-0.1,0.7,1.1,1.3,2.5
		C278.5,264.4,278.8,265.6,278.7,265.7"/>
	<path id="Fill-1153" class="st20" d="M293.1,260.5c0.1,0.1-0.6,1.1-1.6,2.2c-1,1.1-2,1.9-2.1,1.7c-0.1-0.1,0.6-1.1,1.6-2.2
		C292.1,261.2,293,260.4,293.1,260.5"/>
	<path id="Fill-1154" class="st20" d="M303.8,268.3c-0.1,0.1-1.1-0.6-2.5-0.9c-1.4-0.3-2.6,0-2.7-0.2c-0.1-0.1,1.2-0.8,2.8-0.4
		C303.1,267.2,304,268.2,303.8,268.3"/>
	<path id="Fill-1155" class="st7" d="M309.7,273.6c0,0-81.9-17.2-89.8-13.4c-7.9,3.8-44.5,94.2-44.5,94.2l29.4,12.7l31.7-76.8
		c0,0,57.3,20.9,67.4,18.9C313.9,307,309.7,273.6,309.7,273.6"/>
	<path id="Fill-1156" class="st7" d="M273.1,278.4c-1.3,0.4-48.6,19.9-52,26.2c-3.3,6.3,4.9,110.2,4.9,110.2H253l-1.7-92.4
		l52.6-13.3L273.1,278.4"/>
	<path id="Fill-1157" class="st1" d="M304.2,309.3c0,0-0.3,0-0.8-0.1c-0.6-0.1-1.3-0.2-2.2-0.4c-1.9-0.4-4.7-0.9-8.1-1.6
		c-6.8-1.4-16.2-3.6-26.4-6.5c-5.1-1.5-9.9-3-14.3-4.5c-4.3-1.5-8.2-3-11.4-4.4c-1.6-0.7-3-1.3-4.3-1.9c-1.3-0.6-2.3-1.1-3.2-1.5
		c-0.8-0.4-1.5-0.7-2-1c-0.5-0.2-0.7-0.4-0.7-0.4c0,0,0.3,0.1,0.7,0.3c0.5,0.2,1.2,0.5,2.1,0.9c0.9,0.4,2,0.9,3.2,1.4
		c1.3,0.5,2.7,1.2,4.3,1.8c3.2,1.3,7.1,2.7,11.4,4.2c4.4,1.5,9.2,3,14.3,4.5c10.2,2.9,19.5,5.2,26.3,6.7c3.3,0.8,6,1.4,8,1.8
		c0.9,0.2,1.6,0.4,2.2,0.5C303.9,309.2,304.2,309.3,304.2,309.3"/>
	<path id="Fill-1158" class="st1" d="M221.2,328.5c0,0-0.1-0.6-0.2-1.6c-0.1-1.1-0.3-2.6-0.4-4.3c-0.2-1.8-0.4-4-0.6-6.3
		c-0.2-2.4-0.5-5,0-7.8c0.5-2.8,2.1-5.2,3.9-6.8c1.8-1.7,3.7-2.7,5.4-3.5c1.7-0.8,3-1.2,4-1.6c1-0.3,1.5-0.5,1.5-0.4
		c0,0.1-2.1,0.9-5.3,2.4c-1.6,0.8-3.5,1.9-5.2,3.5c-1.7,1.6-3.2,3.8-3.7,6.5c-0.5,2.7-0.2,5.3,0,7.7c0.2,2.4,0.3,4.5,0.5,6.3
		c0.1,1.7,0.2,3.1,0.3,4.3C221.2,327.9,221.2,328.5,221.2,328.5"/>
	<path id="Fill-1159" class="st1" d="M244.8,319.5c0.1-0.2,1.6,0.3,3.3,1.1c1.8,0.8,3.1,1.5,3.1,1.7c-0.1,0.2-1.5-0.3-3.3-1.1
		C246.1,320.5,244.7,319.7,244.8,319.5"/>
	<path id="Fill-1160" class="st1" d="M247.2,316.7c0.2-0.1,0.9,1.4,2.1,3c1.2,1.6,2.5,2.8,2.3,2.9c-0.1,0.1-1.6-0.8-2.8-2.5
		C247.6,318.4,247,316.8,247.2,316.7"/>
	<path id="Fill-1161" class="st1" d="M257.5,321c0,0-0.1,0.2-0.4,0.4c-0.3,0.2-0.9,0.4-1.6,0.4c-0.7,0-1.5-0.1-2.2,0.1
		c-0.8,0.1-1.4,0.7-1.3,1.7c0,3.9-0.2,7.2-0.3,7.2c-0.2,0-0.3-3.2-0.3-7.2c0-0.5,0.1-1.1,0.5-1.5c0.4-0.4,0.9-0.6,1.4-0.7
		c0.9-0.1,1.7,0,2.3,0.1C256.9,321.5,257.5,320.9,257.5,321"/>
	<polyline id="Fill-1162" class="st21" points="251.1,259.7 251.1,259.7 251.6,257.1 251.1,259.7 	"/>
	<path id="Fill-1163" class="st17" d="M306.9,264.2l-15.6-1.3c0.1-0.1,0.1-0.1,0.2-0.2c1-1.1,1.8-2.1,1.6-2.2c0,0,0,0,0,0
		c-0.2,0-1.1,0.7-2.1,1.8c-0.2,0.2-0.4,0.4-0.5,0.6l-13-1c-0.4-0.9-0.7-1.4-0.8-1.4c0,0,0,0,0,0c-0.1,0,0,0.6,0.2,1.4l-13.7-1.1
		c0.7-0.4,1.1-0.7,1.1-0.9c0,0-0.1,0-0.1,0c-0.3,0-1.1,0.3-1.9,0.8l-11.2-0.9l0.5-2.5c12.6,0.4,32.4,0.8,45.7,0.8
		c2.7,0,5.1,0,7.2-0.1h0L306.9,264.2"/>
	<path id="Fill-1164" class="st19" d="M297.3,258c-13.3,0-33.1-0.4-45.7-0.8v0l52.9,0.8C302.4,258,300,258,297.3,258"/>
	<path id="Fill-1165" class="st22" d="M263.2,260.7l-1-0.1c0.8-0.6,1.6-0.8,1.9-0.8c0.1,0,0.1,0,0.1,0
		C264.4,259.9,263.9,260.2,263.2,260.7"/>
	<path id="Fill-1166" class="st22" d="M277.5,261.8l-0.6,0c-0.2-0.8-0.3-1.4-0.2-1.4c0,0,0,0,0,0
		C276.9,260.4,277.2,260.9,277.5,261.8"/>
	<path id="Fill-1167" class="st22" d="M291.3,262.9l-0.8-0.1c0.2-0.2,0.3-0.4,0.5-0.6c1-1,1.9-1.8,2.1-1.8c0,0,0,0,0,0
		c0.1,0.1-0.6,1.1-1.6,2.2C291.4,262.8,291.4,262.8,291.3,262.9"/>
	<polyline id="Fill-1168" class="st1" points="402.2,247.4 73,247.4 73,256.2 90.6,256.2 81.6,423.1 86.6,423.4 95.7,256.2 
		384.2,256.2 392,423.3 397,423.3 389.3,256.2 402.2,256.2 402.2,247.4 	"/>
	<polyline id="Fill-1169" class="st1" points="169,195.5 187.3,248.9 269.9,248.9 269.3,246.1 235.9,245.1 220.5,195.5 169,195.5 	
		"/>
	<path id="Fill-1170" class="st3" d="M205.7,220.6c0.5,2.2-0.4,4.3-2.1,4.8c-1.7,0.5-3.5-0.9-4.1-3.1c-0.5-2.2,0.4-4.3,2.1-4.8
		C203.3,217,205.1,218.4,205.7,220.6"/>
</g>
</svg>
